<mxfile host="app.diagrams.net" agent="Mozilla/5.0 (Windows NT 10.0; Win64; x64) AppleWebKit/537.36 (KHTML, like Gecko) Chrome/131.0.0.0 Safari/537.36 Edg/131.0.0.0" version="25.0.1">
  <diagram name="Page-1" id="YgBWllIp4_dITZRX3R4q">
    <mxGraphModel dx="2037" dy="1181" grid="1" gridSize="10" guides="1" tooltips="1" connect="1" arrows="1" fold="1" page="1" pageScale="1" pageWidth="850" pageHeight="1100" math="0" shadow="0">
      <root>
        <mxCell id="0" />
        <mxCell id="1" parent="0" />
        <mxCell id="G61-mg7mq5Pun503_9LL-1" value="" style="shape=image;verticalLabelPosition=bottom;labelBackgroundColor=default;verticalAlign=top;aspect=fixed;imageAspect=0;image=data:image/jpeg,/9j/4AAQSkZJRgABAQAAAQABAAD/4gIoSUNDX1BST0ZJTEUAAQEAAAIYanhsIARAAABtbnRyUkdCIFhZWiAH4wAMAAEAAAAAAABhY3NwQVBQTAAAAAAAAAAAAAAAAAAAAAAAAAAAAAAAAQAA9tYAAQAAAADTLWp4bCACufkBQHM6b/D/A/Tw9worAAAAAAAAAAAAAAAAAAAAAAAAAAAAAAAAAAAAAAAAAAtkZXNjAAABCAAAAERjcHJ0AAABTAAAACR3dHB0AAABcAAAABRjaGFkAAABhAAAACxjaWNwAAABsAAAAAxyWFlaAAABvAAAABRnWFlaAAAB0AAAABRiWFlaAAAB5AAAABRyVFJDAAAB+AAAACBnVFJDAAAB+AAAACBiVFJDAAAB+AAAACBtbHVjAAAAAAAAAAEAAAAMZW5VUwAAACYAAAAcAFIARwBCAF8ARAA2ADUAXwBTAFIARwBfAFIAZQBsAF8AUwBSAEcAAG1sdWMAAAAAAAAAAQAAAAxlblVTAAAABgAAABwAQwBDADAAAFhZWiAAAAAAAAD21gABAAAAANMtc2YzMgAAAAAAAQxAAAAF3f//8yoAAAeSAAD9kP//+6P///2jAAAD2wAAwIFjaWNwAAAAAAENAAFYWVogAAAAAAAAb58AADj1AAADkFhZWiAAAAAAAABilgAAt4cAABjbWFlaIAAAAAAAACSiAAAPhQAAttZwYXJhAAAAAAADAAAAAmZmAADypwAADVkAABPQAAAKW//bAEMAAgEBAQEBAgEBAQICAgICBAMCAgICBQQEAwQGBQYGBgUGBgYHCQgGBwkHBgYICwgJCgoKCgoGCAsMCwoMCQoKCv/bAEMBAgICAgICBQMDBQoHBgcKCgoKCgoKCgoKCgoKCgoKCgoKCgoKCgoKCgoKCgoKCgoKCgoKCgoKCgoKCgoKCgoKCv/AABEIBBsDcgMBEQACEQEDEQH/xAAeAAEAAgEFAQEAAAAAAAAAAAAABwgGAgMEBQkKAf/EAHwQAAECBAIDBwsLDgYMCAsGBwADBAIFBgcBCAkSExEUIjlYd7UVFxkjMlmXmNTV1goWGBohMzhCUle3JDE1N0FDU2Jyc5WWsbYlNFGClLREVFVhY3F1dpKz0+UmdIGDhJGToic2VmShssHCw9LwKEWj0eHiR3iFh6TExv/EABwBAQACAwEBAQAAAAAAAAAAAAAEBQMGBwIBCP/EAE8RAQABAgIECgYHBQYEBQQDAAABAgUEEQMWIZEGEhQVMUFRUlPwYXGBocHhEyIyM1Sx0SMkNULxJTRDY3JzRGKjswcXgsLDZIOEopKTpP/aAAwDAQACEQMRAD8A9DdGro1dHPcjRz2Br+v8gVlZ5PJ5ZWlpjOZzOrWSh26mDpxKGqqrldVVvjGqqpHjjFGpFjrRRbuOIE29ii0XHez7A+BuReTAOxRaLjvZ9gfA3IvJgHYotFx3s+wPgbkXkwDsUWi472fYHwNyLyYB2KLRcd7PsD4G5F5MA7FFouO9n2B8Dci8mAdii0XHez7A+BuReTAOxRaLjvZ9gfA3IvJgHYotFx3s+wPgbkXkwDsUWi472fYHwNyLyYB2KLRcd7PsD4G5F5MA7FFouO9n2B8Dci8mAdii0XHez7A+BuReTAOxRaLjvZ9gfA3IvJgHYotFx3s+wPgbkXkwDsUWi472fYHwNyLyYB2KLRcd7PsD4G5F5MA7FFouO9n2B8Dci8mAdii0XHez7A+BuReTAOxRaLjvZ9gfA3IvJgHYotFx3s+wPgbkXkwFec1dstD5lZurKbHt9DXRNyKwmlJv6owpi2diaXeP20naLooqucEHO94nPDW3IUGuC7iLcj3EwNTWTep04L71dl2m2WHK9IqkoWmmE+qxKp7ZU5K0pYg6x4KauLpFOKBVPDFDaw6vad9oYKbkUe4BJlQ5M9BbRTSqndXZTsp0ogohJuvWqs1oSmEIafgcfxeN7rpYb0hU+JtdXW+KBGlm6b9T73roy491pVkyy0yaibX1jBTs6uBUVuqUQkTpSNs1cJOmr3DCJKNspg8RhgViih1osdzCEDLqpsR6nnoCmJTWldWPyZyeRz+TdVqenE1pmk27WZMNdODfbdWODCFVDWWRh2kG7DrLQ+7wgOmmVp9ADLc1MhyZKZPsseFe1JSClSyqWw2zpzHBVlDjBqcPY7kaisGMasCSeEUUSKCqnuQ7mOIcPKxanQo5uLnT+1VutFfahi7kFHySpVXk8sjTaSLlhNd84tI0tSFSLWihaxx460MPBjgAkJ1kz0FrS8yWXJ3lPyno3ActMXCNCRUHTOE6UR1MY9rCx2O31NSHGLW1dzcAxqrLI+p6aKjrZnP7CZQcXttZavMa/lbaiKYcPpCgjubWN01gSiXR93HCDcih3daKGHcxiA4djbTep88wNopReq32VnKrhKJjReFVuEZhQVLpuJZKYeAs4dwamO94EVdZJWKLgpqQRwxY62AGR4ZXNAIrXkstXhl0yfw1ROUUFZRTvrRpXB++TVQ3yjEi32W0VhUQ7bDqw46yfCw4PugcGRWF9Tz1LQD669J2VyYzGlpbNUpRMqlZU1Sa7Bu/V1Nk0Vcww7OBaPXg1U4otaLXhAzi3mjm0N94KMl9x7T5FMs9TU9NkNrLZ7TtsKeeMnsHy0lkW8UEcO7hj7sMX3MQO87FFouO9n2B8Dci8mAdii0XHez7A+BuReTAOxRaLjvZ9gfA3IvJgHYotFx3s+wPgbkXkwDsUWi472fYHwNyLyYB2KLRcd7PsD4G5F5MA7FFouO9n2B8Dci8mAdii0XHez7A+BuReTAOxRaLjvZ9gfA3IvJgHYotFx3s+wPgbkXkwDsUWi472fYHwNyLyYB2KLRcd7PsD4G5F5MA7FFouO9n2B8Dci8mAdii0XHez7A+BuReTAOxRaLjvZ9gfA3IvJgHYotFx3s+wPgbkXkwDsUWi472fYHwNyLyYB2KLRcd7PsD4G5F5MA7FFouO9n2B8Dci8mAdii0XHez7A+BuReTAOxRaLjvZ9gfA3IvJgIPys6NTRwVRfXMlJKjyCWSmLOnL2sJdTzJ9aqTqJy1rHQ9LO42zeCNtuIpYuHTpfFOHch2i6sfdRxATh2KLRcd7PsD4G5F5MA7FFouO9n2B8Dci8mAdii0XHez7A+BuReTAOxRaLjvZ9gfA3IvJgHYotFx3s+wPgbkXkwDsUWi472fYHwNyLyYB2KLRcd7PsD4G5F5MA7FFouO9n2B8Dci8mAdii0XHez7A+BuReTAOxRaLjvZ9gfA3IvJgHYotFx3s+wPgbkXkwDsUWi472fYHwNyLyYB2KLRcd7PsD4G5F5MA7FFouO9n2B8Dci8mAdii0XHez7A+BuReTAOxRaLjvZ9gfA3IvJgHYotFx3s+wPgbkXkwDsUWi472fYHwNyLyYB2KLRcd7PsD4G5F5MA7FFouO9n2B8Dci8mAdii0XHez7A+BuReTAOxRaLjvZ9gfA3IvJgHYotFx3s+wPgbkXkwEcZrMnmhoyb2AqrMxeLRw2MRpuk5dg6fYM7MyPFZbHaYQJopYRN4IddRSOCCHGKKGH3d2KKGHhAY9Y3Ljoert4pSq4WiYtbaioXlRrySS0ndazFMS99PFkm2DnGOWRt9u2miWyxxi2rRZbc1I9bV1QOyqjL56nmoKWtZ5XFlsmUoZOp26kjN5NKapRum5mbePCByzgjjgwwjXSi3IVEvfE8e6wwA6SUWy9T5TTMvW2UdXKVljRrW3dLoz+r2ry2VON0mTSLCNSPdijRw95TwgVX+KimujjHFw/cDv0MvXqe+YWzZ3ja2MyZrUfMprHK5bViFMUpjLHLyGGOONsm6wg2UasMEEcWKcMWthqR+4Atplw9T43pqqX0NZ2xOTiq51NpbHMZbJacpelHzp6ygjiSicIpIwRRKJQxQRwxKw7sOsnj7oEpdii0XHez7A+BuReTAOxRaLjvZ9gfA3IvJgHYotFx3s+wPgbkXkwDsUWi472fYHwNyLyYB2KLRcd7PsD4G5F5MA7FFouO9n2B8Dci8mAdii0XHez7A+BuReTAOxRaLjvZ9gfA3IvJgHYotFx3s+wPgbkXkwDsUWi472fYHwNyLyYB2KLRcd7PsD4G5F5MA7FFouO9n2B8Dci8mAdii0XHez7A+BuReTAOxRaLjvZ9gfA3IvJgHYotFx3s+wPgbkXkwDsUWi472fYHwNyLyYB2KLRcd7PsD4G5F5MA7FFouO9n2B8Dci8mAdii0XHez7A+BuReTAOxRaLjvZ9gfA3IvJgHYotFx3s+wPgbkXkwDsUWi472fYHwNyLyYB2KLRcd7PsD4G5F5MA7FFouO9n2B8Dci8mA4Oivmk1X0YWXBZaYQYxx2Go+KLHGHDdxxxkrTd+4BztFFxXGWfmBo3oJqBYIAAAAAAAAAAAAAAAAAAAAAAAA85dNjkWuVm8qynKrs9lNrZ7X1KU67cWsvpaa6ktkc5puebuOzYv279ZtryyPHHBXFduou4h3FYU0ktfGJUMBzU6P/AEgF0ccxdJv7b+uyc3dy5UXKWVbSucS1vLHNSyTfCztmqks5Sco74Vj7UpvfY9s4cSQHX3ayQZ8r+V3eHMBjlMeSLqnc61lW09beqavkzh1VjGnU8YZgwj3s+UaIqa+OEcG3W2MWOy7Z8gODU2jqz5VkjV16pJZaqKBd450ELpyyhqdqClV549k0coRZ7dvi7jcyjf6LjGNfBJ3Fs9ZCPVU96VA72zOi3zF0pXtA1Q5sdO8Jc0tBdWGZIVTW8imLuWT2onaSrdqrvBuxbay0OLrdgboRN2+0jT20UOpEBu0Hk10hNkG9nKnpXLu+nNSSbI26tfMlmNUSb/g1VG63WRxdb5eQ7ZDgau0bb54WHCh1eEBK9rbNZiMkWfS4dwqCyTV9cO30+tBRFMUxM6GqCmE8UVJOk8TVhVSm83Yq/f4NyLVi1gIwk+jWzZus+U+qGu5LcV3SE/zJM7qSuopTV9Is5LKIEpdDDBA62rFzPFnyOpvPBq2iTZqIqa2+UuEBl+WbKJmforLK7yW3EyLyJee03Q1eyRlmBmtSSfHGZYzRdeNt1PgS277de7aCN3viFlCnih9/4OAELz/JFpCm1k5GzkGSaoXU4m+RR3ZSZSXGr6cTUkk8Sxw2bpePqpso2a+7HqKoxKKQ/fEUgJQtvoy81c0pzMvSc3plGj5nc/LFRFEUhU603aq7kyZU84ZvkI97RKKJpQOI04YotXViw4SeuBEzbRbZw6+tE7mlTWDr71yKzK08lfSe4lb0Sok5lMgmyDt3gg0kTNBtAzapRrwJRuXKrpwnwYm8OMEOsHscAAAAAAAAAAAAAAAAAAAAAAAAAK+5N/hIZruf2X/R7RgFggAAAAAAAAAAAAAAAAAAAAAAAAAAhbPvbRS8GU2tbaw5ZGN40JzLMG7227+qeoeE4RxUw2sCT7GHVRXhh4SUWMSXbIIO3Ie+wh5Y3Oy1X10fGjkqWfVZWVQ09hbO+FP1LlCt9eit5TMKpwxaIQJOJImrLVl0Fd8wKPU27NsopFCnhwoe63QzfMJomMylK5SLIU7Ya1FbTy5lLWmn7OdVPSNS05ii5ns52LmYMp/JKj2bSaSt04xW18YV9onFB7qCu5AB2WabRt6Qi8+F7aTa2zZpTG51hbeMUKhpCYSppIoZ1T7lVzMJNsHK23RSce9IbjdRv2ztsUEP1g72R6N7NBVNXUVeKd2drxR49zd03XFZMrp1jSLiYpyyWShdp1UUbyFo2l7fHWxQh2DdV2rFCgipwYtaGEObl00b2aK2t5LP1pOLIIS1vTObm5VZ1C8Qm8tx3tIpq0eIy95wFtaPbazWHZQ4RKQ/fIYdUD1EAAAAAAAAAAAAAAAAAAAAAAAAAAABAGif4rPLVzAUb0GzAgzRp1/pGWOjjy/tKAys2TmkjSslSkMmmM1v9OGbpy1wk7XBJVdCClF4G6kUGG7EnCspDBFjjDtI+6xCceuPpSuRtYLxlp56GgOuPpSuRtYLxlp56GgOuPpSuRtYLxlp56GgOuPpSuRtYLxlp56GgOuPpSuRtYLxlp56GgOuPpSuRtYLxlp56GgOuPpSuRtYLxlp56GgOuPpSuRtYLxlp56GgOuPpSuRtYLxlp56GgOuPpSuRtYLxlp56GgOuPpSuRtYLxlp56GgOuPpSuRtYLxlp56GgOuPpSuRtYLxlp56GgOuPpSuRtYLxlp56GgOuPpSuRtYLxlp56GgOuPpSuRtYLxlp56GgOuPpSuRtYLxlp56GgOuPpSuRtYLxlp56GgOuPpSuRtYLxlp56GgOuPpSuRtYLxlp56GgOuPpSuRtYLxlp56GgOuPpSuRtYLxlp56GgOuPpSuRtYLxlp56GgOuPpSuRtYLxlp56GgOuPpSuRtYLxlp56GgOuPpSuRtYLxlp56GgOuPpSuRtYLxlp56GgOuPpSuRtYLxlp56GgOuPpSuRtYLxlp56GgOuPpSuRtYLxlp56GgOuPpSuRtYLxlp56GgOuPpSuRtYLxlp56GgOuPpSuRtYLxlp56GgOuPpSuRtYLxlp56GgOuPpSuRtYLxlp56GgOuPpSuRtYLxlp56GgOuPpSuRtYLxlp56GgOuPpSuRtYLxlp56GgOuPpSuRtYLxlp56GgOuPpSuRtYLxlp56GgOuPpSuRtYLxlp56GgOuPpSuRtYLxlp56GgOuPpSuRtYLxlp56GgOuPpSuRtYLxlp56GgOuPpSuRtYLxlp56GgOuPpSuRtYLxlp56GgOuPpSuRtYLxlp56GgOuPpSuRtYLxlp56GgOuPpSuRtYLxlp56GgOuPpSuRtYLxlp56GgOuPpSuRtYLxlp56GgOuPpSuRtYLxlp56GgOuPpSuRtYLxlp56GgOuPpSuRtYLxlp56GgOuPpSuRtYLxlp56GgQdlXuBpHGt+cyvUDKzZN26WvYwinyL2/04QTZu/WNSeGxbxwUopvlLYYIKbSKFCLaKqwbPGFLBVUJx64+lK5G1gvGWnnoaA64+lK5G1gvGWnnoaA64+lK5G1gvGWnnoaA64+lK5G1gvGWnnoaA64+lK5G1gvGWnnoaA64+lK5G1gvGWnnoaA64+lK5G1gvGWnnoaA64+lK5G1gvGWnnoaA64+lK5G1gvGWnnoaA64+lK5G1gvGWnnoaA64+lK5G1gvGWnnoaA64+lK5G1gvGWnnoaA64+lK5G1gvGWnnoaA64+lK5G1gvGWnnoaA64+lK5G1gvGWnnoaA64+lK5G1gvGWnnoaA64+lK5G1gvGWnnoaA64+lK5G1gvGWnnoaA64+lK5G1gvGWnnoaA64+lK5G1gvGWnnoaA64+lK5G1gvGWnnoaA64+lK5G1gvGWnnoaA64+lK5G1gvGWnnoaA64+lK5G1gvGWnnoaA64+lK5G1gvGWnnoaA64+lK5G1gvGWnnoaA64+lK5G1gvGWnnoaA64+lK5G1gvGWnnoaA64+lK5G1gvGWnnoaA64+lK5G1gvGWnnoaA64+lK5G1gvGWnnoaA64+lK5G1gvGWnnoaA64+lK5G1gvGWnnoaA64+lK5G1gvGWnnoaA64+lK5G1gvGWnnoaA64+lK5G1gvGWnnoaA64+lK5G1gvGWnnoaA64+lK5G1gvGWnnoaA64+lK5G1gvGWnnoaA64+lK5G1gvGWnnoaA64+lK5G1gvGWnnoaA64+lK5G1gvGWnnoaA64+lK5G1gvGWnnoaA64+lK5G1gvGWnnoaA64+lK5G1gvGWnnoaA64+lK5G1gvGWnnoaA64+lK5G1gvGWnnoaA64+lK5G1gvGWnnoaA64+lK5G1gvGWnnoaA64+lK5G1gvGWnnoaA64+lK5G1gvGWnnoaA64+lK5G1gvGWnnoaA64+lK5G1gvGWnnoaBq0T/FZ5auYCjeg2YGjRRcVxln5gaN6CagWCAAAAAAAAAAAAAAAAAAAAAAAAAAAAAAAOvm83lFPyhxOZzMEGjNohGq7drr4JppJwYbscUUePcw4e6BQ6+vqm/Q0WDqZejHOaSKrZgzx1V8KGkDqZoYY/iu4YcGy3/NqRAZllK0/WiizpVI0oK0mbGWsKkeY7NrIKwYLyddypue5Ani7ghSWi/FTUiiAueAAAAAAAAAAAAAAAAAAAAAAAAAAAABX3Jv8JDNdz+y/wCj2jALBAAAAAAAAAAAAAAAAAAAAAAAAAAAAAAAAAAAAAAAAAAAAAAAAAAAAAAAAAAAAABAGif4rPLVzAUb0GzA0aKLiuMs/MDRvQTUCwQAAAAAAAAAAAAAAAAAAAAAAAAAAAAAAB8r3qk7TZXIzqZiqiygWHrxwwsrQk0UljlGWuMU8KqmTeLUXcr7nvzaBXdgQT92Dcg2314odQPKQAB9DPqVvTg3Hu/VCOjSza1ovPZgnLFHNqqnmq20dxpt4NdWUqxR+6rqo66qEXdYJoKp/gsMA94wAAAAAAAAAAAAAAAAAAAAAAAAAAAV9yb/AAkM13P7L/o9owCwQAAAAAAAAAAAAAAAAAAAAAAAAAAAAAAAAAAAAAAAAAAAAAAAAAAAAAAAAAAAAAQBon+Kzy1cwFG9BswNGii4rjLPzA0b0E1AsEAAAAAAAAAAAAAAAAAAAAAAAAAAAAAAjjNxW0/trlTuZcSk4tWbyC304mUrxS+vg4bsV1kv+/BgB8JQAABYLRVVrPrbaTGwFXUwvFvxC8FOQYQo4+6rApMkUlEf56cccH88D7egAAAAAAAAAAAAAAAAAAAAAAAAAAAV9yb/AAkM13P7L/o9owCwQAAAAAAAAAAAAAAAAAAAAAAAAAAAAAAAAAAAAAAAAAAAAAAAAAAAAAAAAAAAAAQBon+Kzy1cwFG9BswNGii4rjLPzA0b0E1AsEAAAAAAAAAAAAAAAAAAAAAAAAAAAAAA66oKclNVU+9pqoGeDxjMWarV6grh74ipBqRwf8uH7QPiR0leRqv9HTnOrTKrcForinI5kopTkzVh9yaydXHGJm7h/KS3NbDDd1VIY4PrwYgQEAA9MPUuGj9rTN7pKKZvi7p5b1jWXeJ1LO5ri3x2Mcygx3Zczhj+ttcXG4vufg2qn3dUD6zAAAAAAAAAAAAAAAAAAAAAAAAAAAAV9yb/AAkM13P7L/o9owCwQAAAAAAAAAAAAAAAAAAAAAAAAAAAAAAAAAAAAAAAAAAAAAAAAAAAAAAAAAAAAAQBon+Kzy1cwFG9BswNGii4rjLPzA0b0E1AsEAAAAAAAAAAAAAAAAAAAAAAAAAAAAAAAVV0oeiQyoaVm1yNGX/p9djP5SmpDSlcyXCCCYymOLD62tjwVkMcfdjQU4MXxdSLcjA8Bs8HqSrPLlNoiqLy0Rd+g64oqmWKz5d7vleWTLe6W7rYxtI4FE8Iv70LiMCXMpHqLnNVVlTNZpnNzEUtR1Pbu67llExKTOarwfI1lUk0G/3OHurbnycQPezJ/k3y85CbFSfLllpoBvIKblndQYxbRd8vF3bpwrjwll1NzhRRf3oYdyGGGECWwAAAAAAAAAAAAAAAAAAAAAAAAAAAV9yb/CQzXc/sv+j2jALBAAAAAAAAAAAAAAAAAAAAAAAAAAAAAAAAAAAAAAAAAAAAAAAAAAAAAAAAAAAAABAGif4rPLVzAUb0GzA0aKLiuMs/MDRvQTUCwQAAAAAAAAAAAAAAAAAAAAAAAAAAAAAAAAr7pUeLmvTzdTP/AFIFggAAAAAAAAAAAAAAAAAAAAAAAAAAAAAFfcm/wkM13P7L/o9owCwQAAAAAAAAAAAAAAAAAAAAAAAAAAAAAAAAAAAAAAAAAAAAAAAAAAAAAAAAAAAAAQBon+Kzy1cwFG9BswNGii4rjLPzA0b0E1AsEAAAAAAAAAAAAAAAAAAAAAAAAAAAAAAAAKa6Um+suUy25iMtlQ06vLpi0y/TKr6Xe4vtxOeNEYFoH2y9zuma29drD8l+3+WBPttr+9c6+9e2pp2kccZLb/GXMpnU/VD3Fp04Q3yrL4EcINzHe7RRkoortO6d4J6u7BFiBJoAAAAAAAAAAAAAAAAAAAAAAAAAAAAFfcm/wkM13P7L/o9owCwQAAAAAAAAAAAAAAAAAAAAAAAAAAAAAAAAAAAAAAAAAAAAAAAAAAAAAAAAAAAAAQBon+Kzy1cwFG9BswNGii4rjLPzA0b0E1AsEAAAAAAAAAAAAAAAAAAAAAAAAAMAvpmXy+ZZaeSqq/l36fpNq8XxSl3VuYwIqPl/c7U3S3ddwp7uHAThii/vAQ5hpd8lCm7izf3UeQ4+5C4Y5da4cIqY/iqJSeKGL+aWHM91/DVbvkgc44LL7+jfH6tXZdslvyLw+LLXfmY+c03PuVbjltv8WjfB2XbJb8i8Piy135mHNNz7lW45bb/Fo3wdl2yW/IvD4std+ZhzTc+5VuOW2/xaN8HZdslvyLw+LLXfmYc03PuVbjltv8WjfCq2l7zO5as6uTyoqLsPMbqy247KSTOCi3rjLdXeCLpN8xWYPperj1Ihw2ThoutBDrbicK2DZbH3o9c1XPLPiTBGPt8/4tG+EtZO8/mUHLnYCUW+qyZXcmdVL4uJvXU6TyzV3j1Tnr1aJzMXP2Fw3IYnKympDj72nhAn8XA+Tarn0cSdxGPwPjUb4/VJ/ZdslvyLw+LLXfmY+c03PuVbjltv8WjfB2XbJb8i8Piy135mHNNz7lW45bb/ABaN8HZdslvyLw+LLXfmYc03PuVbjltv8WjfB2XbJb8i8Piy135mHNNz7lW45bb/ABaN8P1PS75HUIdeb1FcmTobvuvKisJWMsap/lOHMoTTg/nRDmq59yXqrG4KOnSxvj4JxtVeu0V9aJSuHZG5cjqyQrR4ppTenJqi8Qxjh7pPXSxiwwjh+ND3WG79YgJrLgAAAAAAAAAAAAAAAAAAAAAK+5N/hIZruf2X/R7RgFggAAAAAAAAAABF9/s5OV3K/vVrfa90hkD+YI68tkq7jFxMn0G7ufU7FHCNy493DH3tOICK4dLzkqi4UKt21MPu7HLZXKkH+l1FJ82W7ZZclncr4uFvqjOdNRvhudl2yW/IvD4std+ZhzTc+5VufeW2/wAWjfB2XbJb8i8Piy135mHNNz7lW45bb/Fo3wdl2yW/IvD4std+ZhzTc+5VuOW2/wAWjfB2XbJb8i8Piy135mHNNz7lW45bb/Fo3wdl2yW/IvD4std+ZhzTc+5VuOW2/wAWjfB2XbJb8i8Piy135mHNNz7lW45bb/Fo3wdl2yW/IvD4std+ZhzTc+5VuOW2/wAWjfB2XbJb8i8Piy135mHNNz7lW45bb/Fo3wdl2yW/IvD4std+ZhzTc+5VuOW2/wAWjfB2XbJb8i8Piy135mHNNz7lW45bb/Fo3w1o6XnIjA6wwqO4dX00hj7mMyrezdVSBjB+W7mMtRQg/nREfkFyy+yzTjcHH+JG9YKiq5oi5VJM65t1WErqCSTFDay6cSKYJvGrpP62skqjjFBHD9zdh/kMCS7sAAAAAAAAAAAAAAAAAAAAAAAAAAAAAAAAAIA0T/FZ5auYCjeg2YGjRRcVxln5gaN6CagWCAAAAAAAAAAAAAAAAAAAAAAAAIKzyZoZhlmtqwRt/JUJzXtZzPCSULJnmOOCGLzFONWN661OHvNqjBGurq+7FhBgnD2xWAkYHAzj7jFEIuOxsYLCTp56lTqEsbL6Yqh3datJstWNx5wj/wAILhTzhvnH+BS+Kzaw/EbI6qcPydbWiOw2q0W63xsjb58+dvLLhcbhj2bF+oAAAAAAAAAAAAAMCnNq51SFwVcwuWScMqNuUj79NN3cYVCnD/YU4bwfxtCL8L78j3SMUJr94sehuNP/ADL6337G4Cdv3S7uVDMbT+aqyUqvHKZQvKHisThlUUgf7m+JHM26uKLtkr/fTVTj3IvrKQaimHBjhOM9DrMbUoHllAAAAAAAAAAAAAAAAAAAAr7k3+Ehmu5/Zf8AR7RgFggAAAAAAAAACs+fDNNWtqVpBl7sK6QRuNXzdwojOnLfBwhSspb4wYOJsqj99U1loEGyUXBUWj1otZNFbAsLPgZvWliKehAuGNjAYXjSrva6x1CWl35M5IzXeT2crbSoauni+/JtPF/wzp3H21b8n3tPuU4YYeAdkwOB0Nvji0OT4/H43Hx+8swLRVMIvJf+1eX+WyaZXKdzNHGfzTqZJWclpp7N3T53sI1dikgxSWWi7UjHF3PxCFisZTh9tXncnUW6bhOUNihsxVoboSJafUXOJ28xaTtOUTOWK0hMkZlLXcepqQOmSraFy04McCuusnDDs49prbPhH3DY6nSU7PiaW2VaKcqv198bGfExBdHVVzKKoqoJDSVQzjYzKrJooxp5He8am+V4EFnMcHAg1YO1IxxcLVh/nETPLKJTHeEtDbDt21lLVZ27x7SijtVjzMpXWw6W5hLPT2gaPuXLKv2sir1wza0i83gv9XKOoI1kuBqayOtDB98hh1fjEWMbTsmOt7m3zTOUs4JiEAAAEfMpDVOViqXmYjKDJ8GT7BXfNaW+ZfU8srlv8eDZe9tpjq+8PIdWLW1E1tqiabeuDlNxpmqPv/Pn8232O/RgY/yXoFZy8VCZgbU07ei2M1xfSKpZU3mUtWxw2ceCasGvhBHD8RWH3YY08fdhiwxhi+scpdNZeAAAAAAAAAAAAAAAAAAAAAAAAAAAAAAAAIA0T/FZ5auYCjeg2YGjRRcVxln5gaN6CagWCAAAAAAAAAAAAAAAAAAAAAAAAKG5vJnFVOk0TkM1i7RQdkpY4kuGH1klZ7OZjA5j/wBGnWpvXAHDT+9VNM4XTlGg9bUdOc2AMNvpeqibD20eXNrfB8szRWQbMmUqb7R2+duF4EW7ZKDgw7RZWOBPDWihh+VFDDwyFisVTgYzqhMopm4dCLar0j9lLVS2cQX6puo7dziTzSUN3tP1crK4F9hMltk3eJLNny7NZDWgX2mqttE4Wi2smQpu2jif2kcX81nNty/u37VKLXMBYZ1cZa0TS+9ILVailvhak/XM06opo7Pba299faaux4Wtq9zwidON0OfFz2q3m64cXjZbOhh8hz65VqzvTTlibfX2pepZtUjJ+4luNOVMxeN8N67HWRj1FtbaxQraycMMMXBQWi+IRecLZnERMJMW+4zEyzKqb72KoKtWtva1vXR8nn0xWbt5bJJpVDRB24jV96hSSjj1oolPiww90SpxujicplGi3zOeTrXmaPL/AAVnhQEgunS05myc9xlk5lsqrCW7aUKYQLR9vSjcwqf2KvDqwwxKcD3vVhi1PMYynPLPa+c3zlFXVOxj9a59MplFWrq+6zTMFSFTS6ipXv2fIUpVzF4vBBF71BhBttWGJaPgpa0UO0iI1V5tu2eN59yXzZcpiMo6ej0+p2rHOFlxRkbus6ovXR8hkaT5Nsxn87reUwNX+MbVB5BGkrA5i+9L62qps1NXtmrs9SOP3OP0MRnnlDzFvx1U5R0u0n+Z7LTRcqkdQ1XmCoOTS2qEN9U29mtXMW6E2bww4RbdrHGtquINVTCLWT1jNON0GUZz09G32/BHm3Y+M846On0dTNWrpo6ab7aduRWJvSibMm6fXkA7vRoTGOn81d/7XNI9yWPJZSFZ7DH4r6YJzSVrY/zkpA0ORcM8PTF029e11TgnM82wuqao2gAAAAAAAAAAAAAAAAAAACvuTf4SGa7n9l/0e0YBYIAAAAAAAABFdic3Ficw8ymNK28rCNGqZNF/wioiopetK59KsO513DBzBCvAljFjuQL4Q7FT72pHgBUKspljWWkEv7Vk4U1lacmVP0Yx/wAEwbyJlOMf/wDIny50/gVh6Ytk7nO+FmcYyGQm8tHAK957F5tI6hstXsNIVFOJdTl2U3s59a1NPpus2adR5oltt7sUlF8IdqtBDwYfjlRcZy4k5da/ttPHq01Mdfs/NFNxKRuDee5lR39omz9XtKcnNf2+ZSZF3TTphMn0EtmK6zt/E1cwJrN0Id9bKFVwmn7xre96sRWznjpnSRHXSl1U/RTyWZ8T0ocrG1yNGZZLiymWWJmyTJRKmEpxUMVvJlSNQTF364W31E/iWWiQnkw7uKKaNODtO59+KqKYp0U7Pdl/X1rTSVVVYumJnq7c/wCnq9vWkehrU1NKrtymrLCZcKjkdtkbpO3tJUxhTbqQb2/4IPWzhbeqqSakrScPe1QxKJp6ynbIffdaK0piP8OPq7upV18eKssXOel9eaObQWMrWKCoa+a2TTohNhZxCoNulaWcUi39ckqmSEygRfOpq7UUmbpP3YYpgpintk41dWJTturV4Smc5n4Zf1Wumr41NNMzOz057uz1LrZT6cn8/wAvMVwZ/KFpbPrl78qaZs1u7bb9/i7aL8ZFpsEP+YNpwH8L9fn9Gq4/KLigS0bG4M2s7l9ystbI16yqm2k9YLV0rNaSdS+XMUJYydIxxpTBWGFo72iscGy3uspra+t3MMWpV4Wf7po8vs+haTTMU6fFT/io+l9jblNLB3IomxVnJg2dO5BK+rVQvrTTWn59M00prrvpfMUoneyqd5G031tXrJRPbcNOBT6ohIcYSri18X8vOfrTa68qsPNW3ZHXE7so2erqdlanKn69J5RUgqizzic24xvgvN1KZcWYdUtT7FGCnXUMcaUofO3ajdmo71Pfk20MTjXxTT4UMR9weAmcs+jjd3Lq7HzT3DKqY6c9Ht/axPX25e+N70MN0aU3AAGcaJOYxtLf3ctU2i/g6ir3TBvKkdz3pKZS2V1CrB/SJwucR4S4aMHeK487XY7DPGsuhn0LcFKuQAAAAAAAAAAAAAAAAAAAAAAAAAAAAAAAgDRP8Vnlq5gKN6DZgaNFFxXGWfmBo3oJqBYIAAAAAAAAAAAAAAAAAAAAAAAAoFmb40OveYegenKzOhf+H3/E+z8paFw7+xh/XPwc06M0AAj7NDRc2r6y8xpaUWhp2vElMW+MyoyosYNjN2O3g3wkltu1wOtX3iNTte21NaKGHhEDG5zRMZZ59vnsTrdOVUTnlMfn1KzzWwGZF/QtVNLe2XuBLqVRmdIPKYtzXVymk5nCjqXzhBy9WbuHMzdptkImkCMMCET7V2iEfa0/jUdGE0vFnZPqmc5/OfzbBp9Jgqq+mJ9MRlH5R+W9wnuXvOBVN+ZNP57bOcM6dlF057PMWbD1qs5Bgwdy6YN27xHe0PVRZ5Ftkd9ROFNXaRx6kKsPcfOR3SbtnPR7Mv1eZx9sptkZZe/P29Xnaz6xFhrv2gmuW1s6tWtvOjbSTCm6t3lMGP8AAb9WCVx9t+qO3JazZeHWb7bhanxeES8JhJpjCz2R8ELHY7+8f62B5jqAuVdfM/fa0ts7LYz+Y1ta6lJIhVeL9im3pnddP499OtstCvs4Nzbwb3TWU2jfue4iI2NiZutWUdMQlYCc7ZoYz8+fy6WUIZWbxSukpQzaUD9WJZh5/VUz/hBDtsscITRFu69++NtmvB98h+NCS+QT/wDsic4T/wBNh02yO3qa2BkNAUlapFGbNMqL+jHqKD9p9mlcWSkLLW23xooHfbdbY63xuGROR/2Z/wDj5e1J5fPOGX+ayyicuN5J3mGkV1K1tAvLJYndtxVESUzmDGNZm3io5CXQRxwIuVIdaF3hGn2uKL5XvfDJcYCZ0sTMdfwyR5uE04KYif8AD3q73opx9lRtRPrRXOo6nZjPrg2cmdLSCjPXfJoH8sX6tTRZvsmUSu3dpOd9IYwbyTWU2zSFOJOHuoKLHf2fGU9cL23ca4RNUbMq/j5/q9NqSaumtJyxq69+RYt0lv8AszeonJpsuzPSKAYllmtFcW72fu7eFAZsa+tjjLrRUDg8woZhT7jqnrTWr9XfHViVzDc2epwdjsvf49fX4GpyThzOVzj1OpcEv4dP+uVm/YcZkO+u39/QFvfRM1JtR7DjMh312/v6At76JgPYcZkO+u39/QFvfRMB7DjMh312/v6At76JgPYcZkO+u39/QFvfRMB7DjMh312/v6At76JgPYcZkO+u39/QFvfRMB7DjMh312/v6At76JgPYcZkO+u39/QFvfRMB7DjMh312/v6At76JgPYcZkO+u39/QFvfRMB7DjMh312/v6At76JgPYcZkO+u39/QFvfRMB7DjMh312/v6At76JgPYcZkO+u39/QFvfRMB7DjMh312/v6At76JgPYcZkO+u39/QFvfRMB7DjMh312/v6At76JgQjlTyp32ml9sy7VrpLr2y1SW3tYNXr1hIaGxUmSmNDUotvpxtqajhwVwgUgQ3EYUk9m3SxxTxUxVVUCbvYcZkO+u39/QFvfRMB7DjMh312/v6At76JgPYcZkO+u39/QFvfRMB7DjMh312/v6At76JgPYcZkO+u39/QFvfRMB7DjMh312/v6At76JgPYcZkO+u39/QFvfRMB7DjMh312/v6At76JgUzvnk4zP6ReOWSqzWaS+actkz7ayW+N1aQo6RqSiPd1YlpE3Z000nSyn+FhWlqSkEW6m4U+sBzbJUDVFq76ZgbfVpdSa1vOJLcySNXtXz3BFN5NFPWJSnb1tlDDD/9cKKOLhnT+BX8Mn1uecL/AO+x/t/GUom8tGAAGxNnTWUylabu/eWaCiv+geM0rKURw5q8n1zrfUh1y7jURLsK1YyycSCka+m0tQfR4L6izLdaLLRaym1g4Grrdsg4JV8utk/anLNMpt1xr6I9Lfp/PBldqB3cLBzemnpMlbOok5JVkznk+Yt0G68UEGruRbbgwRRR7Dtmr25BZP4h6jH6Hbn1efzObsfnll965V3b45M4qKl8rvxd+2jim6qZb+lrKqZ9Ld6TxCHGBWBZKBzHquIYeBFDFDrfKPmIxdsy+tMFOjuMxOzY6Oy2kFyx3ToGmLgObn0/R6NZKxwUfLKxqyTpu5rhDHse0QNny+tw1NTZ622hi4MacMR5puNrxkRnPT6Y2vc2u50TOUdHTsnZ6/V5zSS6vRaGU3HZ2Wm106eRq14z27Kk15+h1RdI7keO1gaa+0jh4EfC1fvZO41HH4ue1E4lfE4+WzPLPqz7PW0UFeSzFz5pNpXaq71L1I7kbvBCfM6enyDuOXLfgl4UY4tlF2tTgxfgzzo8Vo8XGVM55Fejr0WXGjLOM49Xb6mUExBANsMjcDGzPRO/ZrMnz9t/3HpM4xwo/jVbsHBj+A6D1LemvLwAAAAAAAAAAAAAAAAAAAAAAAAAAAAAAAIA0T/FZ5auYCjeg2YGjRRcVxln5gaN6CagWCAAAAAAAAAAAAAAAAAAAAAAAAKPaRGmobWZr6BzHuYccJBW0i63s/eYfWbTKFeN5JNf/BqRrzJDW/DLtk/vptnA/GclunFn+ZqvCvCfS27jeG4B1xy0AAAAAAAAAAAAAAAyrRQ0xjWSVyM4erj1MuLPGktotbHDd3zT8nTjQRc/krPV5kql8pGNFSHuzi/CXHcuuczDsVjwMYDAxC4xr66AAAAAAAAAAAAAAAAAAAAr7k3+Ehmu5/Zf9HtGAWCAAAAAAAAAAKA5mqa6xGkCnL6b7qMivfJGkzkrz7ilQSppvN81i/HUl8EtVS+VC1cfgjfeBeOiJ5C0vhXgomnlXY5x0tzcAAcGrGjqbU7M2jT31Ziokh/2ZH6kxR6V5HL8Y2HrGlJrZ9FaezLLbSFIytBd+xU2k2Zb9jcttfbasGzVjQi2nvethwYuAa9yCfo52fyruLhPLPR9I7G8GWbMvMbsT2tqYo2rGqEpvShVsteUlOKd39MGitMpyuLFlBNo1G23bq93C7TR7XwkVNY814DTzOcZ7Jz2Zbdnp+TLosfb4rjPLKaOvPKPXlt3ZslyrZSLmWrrmhaqn1v5kxby62VVtlsJzUEueOmL+ZTlq7gbRbxbtkdbU2n8XR2Ke7s4VIu6jlYDA8XLPz8EO43CZqnKMo9Hu6dqHK7yiZ4XViWFlZDaqYpYrWWkEjVhpdelU0XT5ri6jcM5u7fbR3HDDwN77zi2etHFrKJ++lZVgbt9n0ejzuWdGOtsUzM5fb9Puy7PSnfGzV65XXVxLfu8vsNQNa/rL1wSS4z+by7etOp9RUWcGOrrb7383jR1EoU0dnqqfxiHhlrlVxpjLp61bFMcXjZ9fRtz/TL2+x0WQLLReWz9yZXNrqUvWbL1n2sQpJJ9UFQU1Gxc6q8EezYIyhim5WbQ7DXgXfKJrQ741djrRRRmOzYKaas6s+zq92W3fuSrrj6Mo4uXsz3Tns3b1wjY2qAADg1BUFP0RT0zq2rZwgylssYqPpo9X7hqglBrxxx/iwwGOZiISuhMmiutnP6SyxLXQrSTry2cXWql7WjuWuMNRZq1dbNGXIqw4dwpDLWrGGOH4qmvD9w4ZeMby65zpHYrfgYwOCjQdizRXLAAAAAAAAAAAAAAAAAAAAAAAAAAAAAAAAIA0T/FZ5auYCjeg2YGjRRcVxln5gaN6CagWCAAAAAAAAAAAAAAAAAAAAAAAAMTu9aa397bbzm1F0qWbzmn5+wxazGXOoce2J444fWx7qCKHHcihjh3IoIsMIoeFhhiBSKt8uucfKu6ilEsoSaXqoRvFjhLKhkTlvBVLFDD4kwaOI0Un2MP9stItopucJtrcKPf7RwzmIyxzRLhwSif7qxSHMZKm8O9prl1v0irj78hjlsrFf8A7yMriTj/AJsRsetNon+ZRRwVvXhRvaPZFyD5g79+LLXPmga4WnvSaqXnwo3weyLkHzB378WWufNA1wtPek1UvPhRvg9kXIPmDv34stc+aBrhae9JqpefCjfB7IuQfMHfvxZa580DXC096TVS8+FG+D2Rcg+YO/fiy1z5oGuFp70mql58KN8Hsi5B8wd+/FlrnzQNcLT3pNVLz4Ub4PZFyD5g79+LLXPmga4WnvSaqXnwo3weyLkHzB378WWufNA1wtPek1UvPhRvg9kXIPmDv34stc+aBrhae9JqpefCjfB7IuQfMHfvxZa580DXC096TVS8+FG+GtDMJjMfqan8tN+3rvD3lCHL3VTDaf8AOv5cghB/OUhGtVo6qieCt5j/AAo3s5oLJlmTzZucGmZCkcLYWwVx3ZtSWE5gcVLUyf8AazhZnHEhLWan3yFFZZypD2vWamnXbhlOOo4uA6G2W3gtRg4/eJzXpk8nlFNShnTtOydBmxZoJt2TJkhgmigjBhhBDBBDBhqwwQwbm5D/APkac2x2QAAAAAAAAAAAAAAAAAAAAK+5N/hIZruf2X/R7RgFggAAAAAAAAACO8x2XS2+Z+2Tu09zpcviyWWgdS2aStxvd9J36X8XetFtztThOLuYv8cMUMacccJ7p03FnOHzJTGr7cZ1subjGVXSse+ujIUP4lcK2LdNR2qn9zqhJoo4V0V/lby3ynF3Xa/ejoGA4aUxGWM2NFx3BKP+FY17I2U/MFfrD+97GWuP/clGqX+tVnj+ZRarXnwo3weyLkHzB378WWufNA1wtPek1UvPhRvg9kXIPmDv34stc+aBrhae9JqpefCjfB7IuQfMHfvxZa580DXC096TVS8+FG+D2Rcg+YO/fiy1z5oGuFp70mql58KN8OHVGbu3FGytOaVVai9cnaKPWjFF7Nct9aN4FXbpeBs3R145T7qqzhZBKCHulFFIIYeFjgedabPnnxp9/ofY4KXuejRRvhzPZFyD5g79+LLXPmg9a4WnvS+aqXnwo3weyLkHzB378WWufNA1wtPek1UvPhRvg9kXIPmDv34stc+aBrhae9JqpefCjfB7IuQfMHfvxZa580DXC096TVS8+FG+D2Rcg+YO/fiy1z5oGuFp70mql58KN8N5vfebT1x1MonLFfydTH7yzVsTUEo2n/SJw0aNoP5ykI1rs+Web7qnfO1KFl8i16L81DLa2zrUzKqapCWvU30stIwmOEwXmbhLHWSjnriDtEaScXDhYttojFFqRKrKw9qNGvfCSq4fViMqW6WWx02+jjT94vCas2MAAAAAAAAAAAAAAAAAAAAAAAAAAAAAAAAEAaJ/is8tXMBRvQbMDRoouK4yz8wNG9BNQLBAAAAAAAAAAAAAAAAAAAAAAAAAAAAAAAAAAAAAAAAAAAAAAAAAAAAAAAAAAAAAAAAV9yb/AAkM13P7L/o9owCwQAAAAAAAAAAAAAAAAAAr9pJ/g7U5z+Wo+kKnQLAgAAAAAAAAAAAAAAAAAAAAAAAAAAAAAAAAAAAAAAAAAgDRP8Vnlq5gKN6DZgaNFFxXGWfmBo3oJqBYIAAAAAAAAAAAAAAAAAAAAAAAAAAAAAAAAAAAAAAAAAAAAAAAAAAAAAAAAAAAAAAACvuTf4SGa7n9l/0e0YBYIAAAAAAAAAAAAAAAAAAV+0k/wdqc5/LUfSFToFgQAAAAAAAAAAAAAAAAAAAAAAAAAAAAAAAAAAAAAAAAAQBon+Kzy1cwFG9BswNGii4rjLPzA0b0E1AsEAAAAAAAAAAAAAAAAAAAAAAAAAAAAAAAAAAAAAAAAAAAAAAAAAAAAAAAAAAAAAAABX3Jv8JDNdz+y/6PaMAsEAAAAAAAAAAAAAAAAAAK/aSf4O1Oc/lqPpCp0CwIAAAAAAAAAAAAAAAAAAAAAAAAAAAAAAAAAAAAAAAAAIA0T/FZ5auYCjeg2YGjRRcVxln5gaN6CagWCAAAAAAAAAAAAAAAAAAAAAAAANsCnlx9J9O6xn7yk8kdomVcNGS+LZ5cqqpxjL6awUg7reUSKSq801YvrxJwpt8fiuC/t/By5Y+nOIyUuOvmBwMfWlhkOZjSjuoN9R3lsMzx+63wsnPHGCf/ADvroT1/+zhL7/y+2f3rzva7HDuiI+4nz7Gn2SWlF+fiwvgDnnpWZdRY/E+6H3XrR/h53/I9klpRfn4sL4A556VjUWPxPug160f4ed/yPZJaUX5+LC+AOeelY1Fj8T7oNetH+Hnf8j2SWlF+fiwvgDnnpWNRY/E+6DXrR/h53/I9klpRfn4sL4A556VjUWPxPug160f4ed/yPZJaUX5+LC+AOeelY1Fj8T7oNetH+Hnf8j2SWlF+fiwvgDnnpWNRY/E+6DXrR/h53/I9klpRfn4sL4A556VjUWPxPug160f4ed/yPZJaUX5+LC+AOeelY1Fj8T7oNetH+Hnf8j2SWlF+fiwvgDnnpWNRY/E+6DXrR/h53/J+p5o9KRLMMHa1zbDTdPD+w8bRzmWYK/8ASPXE51P+xiMX/l/lH96z9j5PDrR9WgnelKxGkhRqWtJbZvNJaqK2tUzlxg1p2dITbqjTU8d/EbN5hqIxoulPitXKKMSncpRLms3axXK3R0Nlt96wNw6JWpKhbgAAAAAAAAAAAAAAAAAAAAK+5N/hIZruf2X/AEe0YBYIAAAAAAAAAAAAAAAAAAeeGmmpa+lkopDmoy4WgmleeuCtqBllbUVJcNxRy4k9Xy6cSh/DuYYww49ofMI4+6i3+z3eC3At3lIsTM8v1ipPbyq6iinNUqxuJvW1RfXwmk9erRuXzqDW4UKUThRTZJ4+9o4Ip/WgAlQAAAAAAAAAAAAAAAAAAAAAAAAAAAAAAAAAAAAAAAAIA0T/ABWeWrmAo3oNmBo0UXFcZZ+YGjegmoFggAAAAAAAAAAAAAAAAAAAAAAACnGk+uPP6xndIZI6TnK7JpXDJ5PLlPGWOzUwpppiijFL9buoN/OF4Eosfut0HcJf8HLfTj7lET1KW+Y6MDgZqYfKpVKpVKkZTKWaLNmzRTSZMkG+zgSTg7iCCD4kMJ2WIy2Q5O3zIigAAAAAAAAAAAAdNcK3tJ3LoiZ28uJTSEzk8zQ3s9ZL/fIP/ci+TFDwoYuFCRJinFQmTs2Ju0Z18a0uHaWfWbu/Ui85rG1VQ40/M54+x3V52xiQTcy6YR/4RRotAkrF8Zw3cRHEbxg6bdcpwbsFvx0Y7BRiVmyAsAAAAAAAAAAAAAAAAAAAAK+5N/hIZruf2X/R7RgFggAAAAAAAAAAAAAAAADoLh3Doa1NDTa59z6sYyKm5ExjfTicTRfBBBmgnhrxqqRx7mrDhhgB5v3gqy4GkynHrquR66aPs6yx/wDB7RjJ+6lE1nC+72qfzKJHVWbxQ90zad03/jCvb9SFvv1l4LZ08fHQ0W+cKo0dXJ8JtlNuSbOzXNNVzK8mGc+qMHdVO8FIbb3IjQgQQrtBKDX3svqdrbzhJLciVQh4LiH6oQ++pIa5ebNVbqspbFZ7xRcaM48/L+k+m6RSLgAAAAAAAAAAAAAAAAAAAAAAAAAAAAAAAAAAAAAAAEAaJ/is8tXMBRvQbMDRoouK4yz8wNG9BNQLBAAAAAAAAAAAAAAAAAAAAAAAAFBczEMDrSj1lG6+uzsNRODfH8HgrPKv2v8ApbBH/QN9/wDD7L9689rQ+HcRFGg9f6OUdLc/AAEP1rdSv5XnhoOzzWcbGnJxbufTKZyve8HbXbV1LIEo9fU2kGrCstwYYtXh8IqJmedYiJ6lxERzZM9aL6czi32bXDWs1TNq2VfT2c3GrBjJV5nUycjayxhKo2upAqqi0Wi7lfVhi2cUW01Nbgx60Eblt0zyyz6UiMBbONETLrqd0iE9m04nFbSCkV5kynNL0ZhRdCPVkGeyns3fTFmsiq71Iu1QxIQa6vbNWFDWgTiPnPHXl2EW6ONlM7HfVdpEp7SNIvV6pttQ1LVDJqwe03U6Vd3jbyWSNXSLWB2ji1frNIl32+G66ESUMLOH77ttlq8P5VeeLRtiM/TOXvy+DLorVGk0mUZzHojOcvTGezew2+OkXu3WuXGc1vlYtYkjMmdlmdbzmdTSfIYx0/1QgW3rAg3jbrJzFSHYrxR7TYp7ODg7SKPZGDFXiebc9HHVuZKLdRy6ZxM/z7POf6pTzmXMvvT2FqKUsnOEJN68q9Qlk/nO/kG7tNHeiznUSgcy56hwtipra0MMXa4IYdXX2sFhjuc4mmKe1Ft823PT5ogo3SRVFQ1HzG6ly5rE+lC9BUapT7Gp5qxYopTWaPpi3jWezBFokkkhuIIxqqbHVThT4COtwYq6b1xYzlL0dsmuuKdvsjOVhcn+ayQZtbbzSqZXDJsHlP1G4kc0wpipkJ3LlV0tSPbNXqMCe+EFEl4ItbZpxfFih4BZ4DG04+ONH5qy42/m6qYS4W6obYZG4GNGVCZ8MrGj4zWXtuFmfu4zpxhM7bW+xljNWHdcTN7FMasSx2UH5CaEMSkWqmnwNpFBCck4ZZc6ex1LgnETbpz78pwsBpmsnlykZlVl5M2mXe38sXxQxpiRuMw0gmE5xT4e1jmELdxvZspubPVSQWcfXx1lPimpNqSX2V3Rcd8wsD4ZJF5SA7K7ouO+YWB8Mki8pAdld0XHfMLA+GSReUgOyu6LjvmFgfDJIvKQHZXdFx3zCwPhkkXlIDsrui475hYHwySLykB2V3Rcd8wsD4ZJF5SA7K7ouO+YWB8Mki8pAdld0XHfMLA+GSReUgOyu6LjvmFgfDJIvKQHZXdFx3zCwPhkkXlIDsrui475hYHwySLykB2V3Rcd8wsD4ZJF5SA7K7ouO+YWB8Mki8pAdld0XHfMLA+GSReUgOyu6LjvmFgfDJIvKQHZXdFx3zCwPhkkXlIEH5UtJXo4aevvmWnNQ6QOyTJpPr2sH0kePbqyZNOYtIaHpRriuhFG57cnvhq4S14N2HaIKw7utBjuBOHZXdFx3zCwPhkkXlIDsrui475hYHwySLykB2V3Rcd8wsD4ZJF5SA7K7ouO+YWB8Mki8pAdld0XHfMLA+GSReUgOyu6LjvmFgfDJIvKQHZXdFx3zCwPhkkXlIDsrui475hYHwySLykB2V3Rcd8wsD4ZJF5SA7K7ouO+YWB8Mki8pAdld0XHfMLA+GSReUgOyu6LjvmFgfDJIvKQHZXdFx3zCwPhkkXlIDsrui475hYHwySLykDaU0smi52eOMGkhsUrjhh7iTe7kmUUjw/FhgcYxRRfiw8ICqNa3HrPSOVtLbqXFkryTWck7uCY22t7NO1r1AtDw28/m6X/AOIzYxe87m+FfqjUhb9D4N8G+LTGMxkeqPPU0W/X+YnkuFnbKRTornrGbs2mt/e+37y31wZPvyXPNRRBdBeNuuxXSj10nLdWDtjZdFXtsCifCTi4UJE0uip0lMxMJmBx3IWVZb9JLDl7gc5edIzcxgwdSWSOH1J3bew7BlWEsb++4OdTgtpsjDh21GHdhce+oe7tEEeO3qy1W6rKejz587Or2e76O40caOnz58xmtVp48k19LiNHtI5jbM0zbVDa4vKsuPeWUyebTPHUx2W8ZNitE5gS1scNeJ/vRSHVx3EY+6wpFymrsrui675LYHwySPykDX2VjRbd8msF4YJH5SA7K9oue+R2E8MEl8pA1dlW0YXfILCeF+S+UgOyraMLvkFhPC/JfKQHZVtGF3yCwnhfkvlIGrsqmjB749YXwwSXykD97Kjoxe+M2I8Lsm8pAdlH0YffFrE+F2TeUgauyj6M3vitifC9JvKQNXZSNGZ3xWxHhdk3lIEp27ufbO8NGNLg2luHI6pp6YbuDKd05N0XjNxqxYwRbJZGKKCPhYavuRfXAyMAAAAAAAAAAAAAAAAAAAAAAAAgDRP8Vnlq5gKN6DZgaNFFxXGWfmBo3oJqBYIAAAAAAAAAAAAAAAAAAAAAAAAoJmjTwlmlIqdZ3huJzew1I4s/8LgynNUb4/0d/Nf9M33/AMP8o5V6cmh8Op/Z6CPTLlnS3P22GRuBjR3eXL7J7vVJIK7ltxaooqqaZ3wlLKlpbFrtk0HGpvhtGk+buWyySmohHwkYooYk4IoYoSBicHGl2xOXqy+a20dwporiqYzy6pz+ExPvRPPtHk5aV3QT62l56npxvTSNSOZ3VbJ+1jnszmU1jaxKuYt8NFmkevqL68OxhhT4GyTh1YdSumzRMbJ/VLi55aTjTTEx2bcvdlPvZHDo8cvbOl3dK0pNahk6XUWQS2WLSubwbeURyd0u5ZPG8USMWsvtV9aPbbRNT7qfda8ibRT0TnHyRablFNWeTYbaPO3krmsvqun703EZ1cm+mjmc1kjMZd1SnfVPe2+4XWuxiQghxgatUod7ooxIwoQakUJH5npyzzSoue2dkbfXs9/V6XBnujIs9NKAa20ld3rhyGUp0E3o2dJSSbtNpUEqb4x4t4HUSzOLHWS149xRHBGKLXjhj1oeCOZqZiNpFyyidkbfPq9yXLg2RpW5jqjXNQPXyOFG1GnOJZgx1O2rwNF22orwIuDqrx9zq8ItpiJnNU5Ixk+jksnTtK4U9K6vrBNVCSySWyycxTBDfctUk67pyxeN/qbV28MTqPW2kMSKncxJ6utrw+QRtiEqnH8XLrSnaK1Ti1tLryBe6dU1g6ev3D95P6xmELh1HGr/ACQJQpotkoe5hSRRTTh+Tra5JwtMYWnizOaPpJiuqZiMs+rb7s82Wk1CbYZG4GN1GVOxlp8xubK+9MXitpK6sp2G31vWUTOeMYF00pig9qh3rpfgV04HzZWFSHVUT2mtDufXOUcMtl0j1Op8E5jm2IW5sDYKdZfkJlTrO91Y1VTK298afk1ZTDqgvIsIdfXRSfRwb7cJRbsH8bUXUh1ffNXgmnNpScAAAAAAAAAAAAAAAAAAAFfcm/wkM13P7L/o9owCwQAAAAAAAAAAAAAAADiPWTSbtFWT1pAsktBimsithuwxw/Jiw/5QPOS/9gJxoy5wrXVCtV32XF8v9WssMMVFLWqR493B92ORxY4//wBP/wCK/wAU3Tg1wljRRyLG9H5fJqF+sMY6OU4b7X5/Pz09OYtHbV41RdtXm2RW7aishj76dR6XNOhiN5LyU/Z2n2eGEnez+ez971NpGkZJjtJlUMyi7ls3h/70akWqminBGpHFCnDFEVuOx1Nvp41S0t9v5wTtkw0fy9EuZjmBzdQSuq7qVXKlGL5DV3zKaVlK3dyOXQq7usl/bDmKHaPFOFFqpwpJJccxt2quFWeex1jB4KnBU5RHnz562e2pyV0bl+uG0qPL3XdSUbSEOKvVS1LFymvTS2vBjqxtGy0MUUq1I8cItmyiRRi4WsjFraxXpybAADeqPyAPzejb+18ANO9W39qYf9QDeTX+1Uf+oD86mM/7SR/0QPzqXLv7QQ/7DAB1Ll39oIf9hgBo6kyj+5SP9HwAdSZR/cpH+j4AQTo2ftE1Xz+XP/fmdgWCAAAAAAAAAAAAAAAAAAAAAAAAIA0T/FZ5auYCjeg2YGjRRcVxln5gaN6CagWCAAAAAAAAAAAAAAAAAAAAAAAAKraSGxFaVKjSuaSzdNOJzVNtYnac6p1hD9Vzymnez6oNkIPvrpONs1dIQffImsaMP8YLexXaLdcoVF6t/OGBmEP29uFRFy6TltxLeVMhM5PM0Noyese4U/8A3Q9zFD3UMXBiOzRMYqlybPLodyS0MAAAAAAAAAAAADG7n3PpS01KeuyrMF1tsumxlcrlKG+H84fq+9MmqXdLLqR8GBKH/wBUgYzGUYCjjVefPnamYDAc4LJ6PjLnWmX+zDyaXi2OFwK+nalS12kycbRBk6VggRbsEo8O6gatEGrbW92FSJCNT76cSx2P5x0s4urrdlwOCpwWEjDx1LAkNLAAAAAAAAAAAAAAAAAAAAr7k3+Ehmu5/Zf9HtGAWCAAAAAAAAAAAAAAAAAOI9ZNJu0VZPWkCyS0GKayK2G7DHD8mLD/AJQPO+9eVa8+QSfLKZWLQVFcm0M5ijwktv6WxgUmtDzKPuGzXbRwwxydaPgw60X8Hxf+a/xTbLLwknAR9HpIzhq97sVNwy0+g2T58+ds75HMjk8tPPFszmZx4wn1458w3v8AUfDl1Hy6Lh9RpVr/AFofw7ngqOlINaLVTgSSSo8djqsdVnPQucFgqcHTlC0hXp4AAAAAAAAAAAAACv8Ao4PtGVZz+XO/fmdgWAAAAAAAAAAAAAAAAAAAAAAAAAIA0T/FZ5auYCjeg2YGjRRcVxln5gaN6CagWCAAAAAAAAAAAAAAAAAAAAAAAAAFZL46M60tw60mV37N15UNqqxnK+LmeTOkIkFGM7X/AAj6XOYFGyyn191dOFJxFu+6sT8HeLlbqf3OVfjrfgsdH7zCPYNHfnybcFtnltXEn/K+y9zGNbH8qJGqE4f9GGE2OeGd1nqhSRwUtuXTXvaux8Z/eXJZ3xc5p6WDXO69kbn3VO2dte/5HY+M/vLks74uc09LBrndeyNxqnbO2vf8jsfGf3lyWd8XOaelg1zuvZG41TtnbXv+R2PjP7y5LO+LnNPSwa53Xsjcap2ztr3/ACR9mwyz5+MseVq5OZb2WdnZ91vKCnFS4SXGwk1b7+6nsVnO9tt66FNltNjq6+rFq/JiMWvN1iNnFfdUbbPXXvSD2PjP7y5LO+LnNPSwy653Xsjc+ap2ztr3/I7Hxn95clnfFzmnpYNc7r2RuNU7Z217/kdj4z+8uSzvi5zT0sGud17I3Gqds7a9/wAjsfGf3lyWd8XOaelg1zuvZG41TtnbXv8Akdj4z+8uSzvi5zT0sGud17I3Gqds7a9/yakdHZnfd4bynmea2rdr99ip2wDtB1/Nic1E5S/0kYjDPDO7Z5vWqdsy2QljLno+LMZf6068U0m87r64OCKjZKu63cwOHTJCP3I0GTdGBNqxgi93W3uinEpDj2yJQ1/H47S3H62LnNe4LA4TBU5YeMlgSGlgAAAAAAAAAAAAAAAAAAAAK+5N/hIZruf2X/R7RgFggAAAAAAAAAAAAAAAAAAAAAAAAAAAAAAAAAAAK/6OD7RlWc/lzv35nYFgAAAAAAAAAAAAAAAAAAAAAAAACANE/wAVnlq5gKN6DZgaNFFxXGWfmBo3oJqBYIAAAAAAAAAAAAAAAAAAAAAAAAAAAAAAAAQBpXuK5zJcwlYdCuwJ7a+84AbgAAAAAAAAAAAAAAAAAAAAAAAAAAAAFfcm/wAJDNdz+y/6PaMAsEAAAAAAAAAAAAAAAAAAAAAAAAAAAAAAAAAAABX/AEcH2jKs5/LnfvzOwLAAAAAAAAAAAAAAAAAAAAAAAAAEAaJ/is8tXMBRvQbMDRoouK4yz8wNG9BNQLBAAAAAAAAAAAAAAAAAAAAAAAAAAAAAAAACAtKtxYWZDmErDoV2BOzL+KpfmcAN8AAAAAAAAAAAAAAAAAAAAACiOby5+Z+aZ96hstbXN7WFvabkdo6VniMrpCn6cX3y+fzSpEXCyqs1lb1T3qVtYYYIYoYe64O7EbFwcs+jvfGznZGSgvt409rp0UxGecz8GMbudfvn94f1RoT0aNu1JtfbU1rW/G9mj3z+pu51++f3h/VGhPRoak2vtqNb8b2aPfP6m7nX75/eH9UaE9GhqTa+2o1vxvZo98/qbudfvn94f1RoT0aGpNr7ajW/G9mj3z+pu51++f3h/VGhPRoak2vtqNb8b2aPfP6ugo21eZWg59VVV0ppI7wM5lXFQJzqqF+oNDqb+fQS5nLoFuHTvafqWXtUtVPVh7Rrd1HHGfNSrbn01efY+6346erR75/V3+7nX75/eH9UaE9Gj7qTa+2p81vxvZo98/qbudfvn94f1RoT0aGpNr7ajW/G9mj3z+pu51++f3h/VGhPRoak2vtqNb8b2aPfP6pI0ddy8xMzzP3YsxeHM5UVyZRIKDo6dyRWp5NJGjhiu/fVI3dQQ4yuXMoY4YoZW09xSGPV3ItWLhGj8I7VzZp40cbdmbb7Lj4uGDjSZRHqXNKdagAAAAxK6t1bc2JtzOLt3bq9CSU/JEMXE0mj2LHCFKHdwhhwwhhw1o4ootyCBODCKJSKOGGGGKKICm9YZzM72YJzvu0bSVWXpBXd3kvPpRBOapfJ448FaNHX3nK/zSkLtTD4+yi4Bu+B4GTP9+aZjeFdOX7rtY9h7Nn7ulDu3jj/ACo0fQ2p+7kRdalWvLplXRwux0Rl+zfu7nX75/eH9UaE9Gj5qTa+2o1vxvZo98/qbudfvn94f1RoT0aGpNr7ajW/G9mj3z+pu51++f3h/VGhPRoak2vtqNb8b2aPfP6m7nX75/eH9UaE9GhqTa+2o1vxvZo98/qbudfvn94f1RoT0aGpNr7ajW/G9mj3z+pu51++f3h/VGhPRoak2vtqNb8b2aPfP6m7nX75/eH9UaE9GhqTa+2o1vxvZo98/qbudfvn94f1RoT0aGpNr7ajW/G9mj3z+pu51++f3h/VGhPRoak2vtqNb8b2aPfP6m7nX75/eH9UaE9GhqTa+2o1vxvZo98/q/UZ7nukbmGaU3pH6vmqsP8AYdbUBSrxjj+XDLpXL1/9FaE+akWvtfZ4X42eimIS/l70hVYR17K7H5xaEllMzyfL4sqSrynHKkVPVE7/ALV1Ft1WVvIviILRKJqdym4VU7UaTeLJpLLO3obXb71hLjH1ZW1KZcAAAAAAAK/6OD7RlWc/lzv35nYFgAAAAAAAAAAAAAAAAAAAAAAAACANE/xWeWrmAo3oNmBo0UXFcZZ+YGjegmoFggAAAAAAAAAAAAAAAAAAAAAAAAAAAAAAABAulR4sXMZzEVd0M6AnGV/Y5v8AmIP2AckAAAAAAAAAAAAAAAAAAAAACgeZLjRa85haB6crM6FwF6MT7PyaJw6+7w/rn4OYdGc+AAAAAAAAAHa6Pj4ft8uZ23PSlZnKeGf8Vj1Q6lwT/hk/65+C7ZpragAAAAUKzmVg5zBZ3kbRu8NrSFl5Uzmi7LdxxTfVTMYI9jGrD/5ix1FU/wCRSZbTukYDd+BmBznlzTOFeNji8l7W6dRc2AAAAAAAAAAAAAAdFc239J3VoiZ27rlpvyWzljvZ6j98/Lgj+IrDHwoIoeFDFwoSJVh6cTG3oTM8liNGvfCr715Y2bS6c36pVhQ06eUjV0y93Xeu5epqJPY/xnTXFq8ih+LE7xh+4cLxuE5DpuJLsuBxdONwsaaOtYUjJYAAAAAFf9HB9oyrOfy5378zsCwAAAAAAAAAAAAAAAAAAAAAAAABAGif4rPLVzAUb0GzA0aKLiuMs/MDRvQTUCwQAAAAAAAAAAAAAAAAAAAAAAAAAAAAAAAAhTSJ0ZUtxNH3fS31FU88m89n1n6nlsllbJHaOHztaVOoEkEoPjxxRx4Qww/dxxA6GWaSXLs1laMONuL+e4l9zKlcH/2SIDkdkny7fNxfzxUbg+YgHZJ8u3zcX88VG4PmIB2SfLt83F/PFRuD5iAdkny7fNxfzxUbg+YgHZJ8u3zcX88VG4PmIB2SfLt83F/PFRuD5iAdkny7fNxfzxUbg+YgHZJ8u3zcX88VG4PmIB2SfLt83F/PFRuD5iAdkny7fNxfzxUbg+YgHZJ8u3zcX88VG4PmIB2SfLt83F/PFRuD5iAdkny7fNxfzxUbg+YgHZJ8u3zcX88VG4PmIB2SfLt83F/PFRuD5iAdkny7fNxfzxUbg+YgHZJ8u3zcX88VG4PmIB2SfLt83F/PFRuD5iArndbSMVtlynFQ3mt5Nrv19ROCzmZzShLm5XK6kziToY7scfUyco0/s4EIN2LcQmCKn3Id9oJgRxbjN7bbPnm1n2ZqztO1RLZFPrA0FEzZ1VIY2DtPHCc1lu8Dd1VYPd99RiUTi93Vi9zE6DwBqyqxXrjz5lofDuP2eH9c/BMh0dz8AAU1m6E/uPn1urRVQUTeyqpRLcKYSlcdvLxLyGXU/vhhhtY1G8M8l8UWt75js0Vou1/K4Jqtcca71RMVT6py+MNu0U8W26Kc9FHrjPP1bJ+DG7o5t63sxfutK1wazSYy6g4K3j9bCVQvlE5vvWVU6q320K6y/C11o/e4dWHXjihT2kcev9quHIpmezNhpt30leXnq9idMnOYC9V56jqqkrxUYrghJ28vcySrsLXT6kmj7fCce2bb1nWspEq3jg91RNSKFSFeDgwk+346quJz/KY/NguluiirZGz1xP5J6LprwAAxXLfmStxl4z+Xaxr+na+mWE4s7QO88KHtVUFUbPZTWr9fb9R2Lne3vmGrttXacPZ62pGck4ZfxXb2OpcE4/syf9crM9kny7fNxfzxUbg+YjUm1HZJ8u3zcX88VG4PmIB2SfLt83F/PFRuD5iAdkny7fNxfzxUbg+YgKrV/pWajyESF1cOuH137s2rl25E9XrjLXV1NVNJ0PrcGYrSVtKplD3MMMLneSnu60bhWIDqLJXepa/99swV5qVZzNnLahuPJHbJGo5SswdpN46EpePUVbq6sUH/AKsXdQ68Me6dP4FfwvL0/o53wujLGx/t/FKJvLR3AqGaupVT0zm7RntlmTFRVFD8LHAn3B4nZ0JSsOXOj5tVNhrbZuqhzSVCzqiqk2E4qBea1a5Xkcz6oY468pbypVzC0ad3Akgoimm4hUgg1trrKwq0eAp6NLx9vr+C3uGkmaOSfQRl6oz39PvRnaHPHmLsdlvpms7xM5LWMveWYnFUyZNLF1jOdvLVGsGo6drLLb73zvqCLWhRTiR7nt/dEPDY254XQ/W2xlmkVYC214yIiNv0ns+TOqSzw5j0aXnsqqygMFZsvPKck9FVm8tNUVNSlRear72j2rKadvW3pH23HZuNVaFRGHtER9i86WY2/lMe5k0lrwOjq2dHriffHubF48wuY7L9mHpGRXKm0jdTacURM2MLuSpPkKbaxrTmVtmk2mDSNVSJvs4FtXZ7ZThR6sK0MMcSsH3E426UaSIlj5vts4OZjZHn1Z+vJm+eJC9Ux6zlFSC6aMoSnNw2jCrVpV1Vl8cyxhYuld1JVhMWy7dLtPvW0U+87utDBFCtKuEVfUiJ6/PQj26aY+nzjqnz0T560E0JnjurQVNK3Abb9mTuoKEoNrJZXjHOZ80lj6ZPpokq83risu+d6sEGtimmptlthBDtPjFXzhVEZ/6fSsqLfE1RE9H7Try98rI2KvRfS82X6sprVkl9b9USZ/NJbJKgeUJOJI1maUKGu3mUMtmMabtFPh6kSe298Qj1Vi8wOLrx2gnbt9Xn81NcKI0dwyno9cTs9cdfnJEWWrNnmDkFmbfWwr6bSSpavrKiqQc0ROXDB3ipM9+qakw33tnakTlVq3g28asKkO01+5h1yuwOO0vFiJ9Cdj8Bgep2NGZ5b8ShaW3Nuwwolai5xX1VUszk0kYOk5slhKsJgsk8iXWcRJx7SGXxpRo7GHVijgU2n3o+xj7p0zll+jDNvt0Rl1+er45sgyR5v76ZgK1QaXLtsqjIJ/Q6dQS2at7XT6QoShxEpB/BKruaQbCaRbJaCJNy32cKmwW7Tq6hnt9wquPT+U/F9udvpt+U0x74nb7Oj3+taA2BrgBmOiiwwwmmZLDDDd2d+2/ufyf8B6Tix/7xxjhNtvNbsVgz5m0PqW/NeXQAAAAAFf8ARwfaMqzn8ud+/M7AsAAAAAAAAAAAAAAAAAAAAAAAAAQBon+Kzy1cwFG9BswNGii4rjLPzA0b0E1AsEAAAAAAAAAAAAAAAAAAAAAAAAAAAAAAAAAAAAAAAAAAAAAAAAAAAAAAACBprkWtpcm5jq5eZapJ3dHFObYvKXpisYoPW9T2GvjElA3liUELdZVPdg1XTuFdxDFhuwKQdyBX3Mfxodef/wAv9BdOVkdB4DdOJ9n5S0Phz93oPXPwcs6O5+AAMfp+1FEUnW1TXQp6T7Gf1bvP1xPd8R/VW9E9i24EcerBqwfJhh1vjEWI25pcRETmxp1lPy8TSq5lVc2tsi8eTjqp1a384XcIOeqCDVs7giSjj2eqokyQh1dX4nB7uMxci0Wefnz59cnl2Nb1mMuln7F4zJ5bOTzPB5OcG/VSZzqpX03fOU26eokjvp8qsvsk/iJ62zh149WHhn3C4GnAxlHxYa7lNynOf0/Jn5OQQAB2uj4+H7fLmdtz0pWZynhn/FY9UOpcE/4ZP+ufgu2aa2oAAAIIt/kVttKa1a3mvlUs7uzXjFffEsqe4GKa6coj9z7GS5KCFnLdXcwhwUQRhcRQ447RZUCsU9RcyPPdmPpuaJ6qs1q+QVIz/vsXFKyiXQqf0iTuof5h0/gR/C5c84XznjaY7IZIby0YAiuQZKsuFLV2jXcroF3vplNXEzlcsWqSYxyaWv1dfauWsticbyaLxa8fbEUYYuHH8qIqot+h42cfH8lxzlj+JxdmXqjPf0ue1ynZeGsgk9KYW3RVl0gpZ5TUrZPnC7hBKUu9jvhtFCtHFtoVNhB75rRGfkWhyhj5djXVSLJDlkkVHT6jYqAmTxOpN59U3k7qyaP5j9SfxTZTBw4Udt9790hs1IdjFwoNWIj80YeIyj8/P5sk3PHVV8aYjP1R1ejobkjyY5Y5HLl5a3trg8xfSSYS2aLTObPn68zQmCkCzvfSrhVRRwqpGhB29SKJTgausZowGhp8+fe8VXDHVTnLL5rZy3tQNKaaVFJl3nrMfJvqdWXmC6ijVeBCNtBHHHr6y0WyXj981tbuouEZunJGyhiLPJLlkZUs8olnbXBGXO5JLJR7s3fYxpoS9ddZjsldttG6iSq8asC6cUK0MXC2nBhI04HRZZZM8Y/HUznDJLXWMtRZmjXtF2+plVFq+fOH81WeTV0/dPnDj35Zw6cRKLuFYvlKKRRavB7kzYXCxg4yp872GuudJVM/ls/Jg1GZMqAoK69EVZTzz/g5bKnXktoWnVd9O3TKN7qb4jjmDxyupGlsoIEkkODCnDr91wYYY0YDbGX8vQkzcP8AquPYHInZ+xU9d1o9xXqCpFZ3O5kg+fP3W9W3VJ0sqrspfG4VbJL7GPe8blNOFRSHuu71TzhrTo9Htnz8H2q5TVGU+fPV2MrtDlRsLYaoHdWWzo5ZnMlWPUxFZ7Pnz/eLDaa+82ULxVSFi21/vDfZp9xweBAZMLgNFoZ2PNVwxuOSOWiqAM00Sjdw7lV965whx3hUV+3KksVx++7yp+Ryhx/ou5a6h/mHE+E0/wBr1Ox2HLmbQ+pbwo1yAAAAABX/AEcH2jKs5/LnfvzOwLAAAAAAAAAAAAAAAAAAAAAAAAAEAaJ/is8tXMBRvQbMDRoouK4yz8wNG9BNQLBAAAAAAAAAAAAAAAAAAAAAAAAAAAAAAAAAAAAAAAAAAAAAAAAAAAAAAAAAUDzJcaLXnMLQPTlZnQuAvRifZ+TROHX3eH9c/BzDoznwAAAAAAAAA7XR8fD9vlzO256UrM5Twz/iseqHUuCf8Mn/AFz8F2zTW1AAAAAqVpCsvdex1hIs4lj6XXn08pmWKSivKSlmO47qKnsVNtBvb5bxktjGukl98TXdpw9sVSLmyXibLpM+pT3q3xccJNKJ7f3Noi6tJo1zbupmM5lrz3l6x/CfHgi+NArD3MSUXChi4MR2TD1Riac+pyedjvSWhgAAAAAAAAAAAAYLWlaVVUlVI5ecvLNCoLlT9D6iZd2hTqEX/wB7TL8CzT/0nEXaUeEa/er1TbafSvrDYYx0f5S9GWWxFLZYbEUzYakXizxpT7HZLzR979MncceKzp6r7uPbV3Ciy8f+EUjOLuvJCAAAAAABX/RwfaMqzn8ud+/M7AsAAAAAAAAAAAAAAAAAAAAAAAAAQBon+Kzy1cwFG9BswNGii4rjLPzA0b0E1AsEAAAAAAAAAAAAAAAAAAAAAAAAAAAAAAAAAAAAAAAAAAAAAAAAAAAAAAAABWvMXo65Rf6/TjMXJc0lz7fTt3SMspuYs6K6gRtHjRg6mDlupHBNJS9ihVhjmjrDdTihhihxg4PubpNwF0uVuznQzlM9KFjMFgsdEU4inOPaxbsTs675Lfv9H0P6MlprReu+gasWHwIOxOzrvkt+/wBH0P6MjWi9d81YsPgQdidnXfJb9/o+h/Rka0XrvmrFh8CDsTs675Lfv9H0P6MjWi9d81YsPgQdidnXfJb9/o+h/Rka0XrvmrFh8CEXWDyFXFujdW9dC1BpF72JNbbXPaU5JVmcoovCNy0VpaQzfGNxjHTkWEam+JovDwdSHZppcHWwxji+603jP7ZqxYuj6CEo9idnXfJb9/o+h/Rk+a0XrvmrFh8CDsTs675Lfv8AR9D+jI1ovXfNWLD4EHYnZ13yW/f6Pof0ZGtF675qxYfAhn2UnIpIcrFfVddNPMDXtfzusZJKJS9d1t1GhwbNZatMFm6aEMqlzKHDhzR1rRKYRxdx9bVKnF4+4XKrjYyc5WWDwmDwVHFw8ZR0+dyfyIlAAAAAAV6vho1ssd66vd3TaSidUNWEy+yVXW6nKkndvY93u3aUH1M/i/kidorRQ/F3CThMbpcDtoRMXgcLjactNGbBcNFFNMMNzDSR37T3frfwfQ/uf8sVM6xcazXmZ+2gcwWbP7mGrsTs675Lfv8AR9D+jI1ovXfedWLD4EHYnZ13yW/f6Pof0ZGtF675qxYfAg7E7Ou+S37/AEfQ/oyNaL13zViw+BB2J2dd8lv3+j6H9GRrReu+asWHwIRhm3yFXEsNauUVxSekUvW4dPboUTTiqMxlNF4p70nFVSuUOI8MIKdh7ZC3fLRwe7q7TCDWhjh4GLWi8TH2/wAnzVixeBCT+xOzrvkt+/0fQ/oyNaL1333Viw+BB2J2dd8lv3+j6H9GRrReu+asWHwIOxOzrvkt+/0fQ/oyNaL13zViw+BB2J2dd8lv3+j6H9GRrReu+asWHwIOxOzrvkt+/wBH0P6MjWi9d81YsPgQ/W+iUlTtxhhXOe2/dRMN3tssVmVPyva/9IlEnZuYf5q0JinhNd+898w2bL7mE9WIyy2Iyw0stSNhrZsafaPFt8zRdDXUdzJb3e3OnS2MS7tX3ce2rKRKfjFGuUhAAAAAAAAV/wBHB9oyrOfy5378zsCwAAAAAAAAAAAAAAAAAAAAAAAABAGif4rPLVzAUb0GzA0aKLiuMs/MDRvQTUCwQAAAAAAAAAAAAAAAAAAAAAAAAAAAAAAAAAAAAAAAAAAAAAAAAAAAAAAAAAAAAAAAFfcm/wAJDNdz+y/6PaMAsEAAAAAAAAAAAAAAAAAAK/aSf4O1Oc/lqPpCp0CwIAAAAAAAAAAAAAAACv8Ao4PtGVZz+XO/fmdgWAAAAAAAAAAAAAAAAAAAAAAAAAIA0T/FZ5auYCjeg2YGjRRcVxln5gaN6CagWCAAAAAAAAAAAAAAAAAAAAAAAAAAAAAAAAAAAAAAAAAAAAAAAAAAAAAAAAAAAAAAAAr7k3+Ehmu5/Zf9HtGAWCAAAAAAAAAAAAAAAAAAFftJP8HanOfy1H0hU6BYEAAAAAAAAAAAAAAABX/RwfaMqzn8ud+/M7AsAAAAAAAAAAAAAAAAAAAAAAAAAQBon+Kzy1cwFG9BswNGii4rjLPzA0b0E1AsEAAAAAAAAAAAAAAAAAAAAAAAAAAAAAAAAAAAAAAAAAAAAAAAAAAAAAAAAAAAAAAABX3Jv8JDNdz+y/6PaMAsEAAAAAAAAAAAAAAAAAAKi6RG+lJzSXtstuLR6wqOT3Zs3PkcXrfDBvMmDi48kR2jWLX3VNksjjArDuQ4p7RH8LDiBPlh77UrmKoxe5lvm7/CSYTx/LZc8eNsE8JnvR3G2jdN+FjrtlI0Y8UlPc2ieGCm5qxQgZ8AAAAAAAAAAAAAABX/AEcH2jKs5/LnfvzOwLAAAAAAAAAAAAAAAAAAAAAAAAAEAaJ/is8tXMBRvQbMDRoouK4yz8wNG9BNQLBAAAAAAAAAAAAAAAAAAAAAAAAEa5o8x9E5VLPTK7NbNnj3ZYptpLT8sw2j+eTJXHUby9rB8dVSPD8mGHCNSPGFOCOI96Gmatj5OxR+sJZmEzVLY1VmzunNWjN77zaKiKhXYSKWJ/gXCzbZrzhX5cTmLe8UUHa26R0q18DrdhKM8XGc+5zu4cLMbV/dIYtDo9MhUOH1RkztW8Vw+/PbdS1xGp+VHGlrRmxzZ7XP/DQ12LjcY/4jSNXY+sgvIXs94MpV5Oe+Z7X3Ieuc7n4+kOx9ZBeQvZ7wZSryccz2vuQc53Px9Idj6yC8hez3gylXk45ntfcg5zufj6Q7H1kF5C9nvBlKvJxzPa+5Bznc/H0h2PrILyF7PeDKVeTjme19yDnO5+PpDsfWQXkL2e8GUq8nHM9r7kHOdz8fSHY+sgvIXs94MpV5OOZ7X3IOc7n4+kOx9ZBeQvZ7wZSryccz2vuQc53Px9Idj6yC8hez3gylXk45ntfcg5zufj6Q7H1kF5C9nvBlKvJxzPa+5Bznc/H0jWlkByQsYd8STKPbyRut3tMzp6kmssdp/kOGcKakH82I+czWyP5IKrpc6tlWnzZpQl7sxWSNf1wSasajuTaxl/4w0VUUwjmk+k7f+2ZS+W7e72cO5usXUSkSkOHaVIIu1RajeeBuzPA+fPtbRZeFkVR+9r928uHRN16ClNzbaVOynMhn8rQmUlnDFbXQeNVYMI0loYvkxQ7mP/Kc7b678AAAAAAAAAAAAAAAAAAAAFfcm/wkM13P7L/o9owCwQAAAAAAAAAAAAAAAAAA85fVBNMWUrK2ttpFNrv1VSlx2lXs5lT61upEpNJ71CavmT6aR72S3YsGyMbFk82v9tMGacOtErqxSMLhpx1WUI9VcYWF4sunWUxsPR8GXF3K17fJ0wyTopWRL4KMupkCEELfYRw/XT2WEG5/iI6QzgAAAAAAAAAAAAAACv8Ao4PtGVZz+XO/fmdgWAAAAAAAAAAAAAAAAAAAAAAAAAIA0T/FZ5auYCjeg2YGjRRcVxln5gaN6CagWCAAAAAAAAAAAAAAAAAAAAAAAAKH50JxjdXSDSihZrjgtJrR26bzxkjh3HVmdO3rPbY/yqoMpcunD+LMlTduBeB/a8fLoabwtxsRg5w8dYdSc1YBmiwlfsca86q3Ue0Q09a7/bVbKm6ii8jg2Ef1ZDseF2nuuDq/lQkLG7NBt2bOlMt/9/Uqq1tMcj8iqB1SduqFt9WiNiJ9Mafn9on6fUapcGGLXUmU0lTljDsl09vBEhHtnXv7hOJaL4+s/WtufRE5dTaZ4lxmnpn6/wDidXojp/KPUyq42afMzZpKobY0/d6Y3CdPIaIUaVOxlEoQdSjq45XbuEm2tA2l/uwoQRNd+9zE7h2sS5JxWO09ETETnu6/d6s0bR4DAV6SIyiIj1+/pnb6Pc7K1mYLNDcWppPl4rW8U2oxyrUlUJ+vnD1rPJ3ihLW7JZJk6SZ79lqLn6uj2uqnDFs2mts0tYRi9PVH0czluz+MPkxbqdJOJjKqPbl8J2MGuRI/ZF3XlNJ1BeCST+Rr3wpxFaaU7SEjjltS69I7436rC4bO989tg7VrKKbNNTgxcFKKCNP9oz0/zfBniebp6P8ADWHyXX0uzeuoHcgq6o8VcLdyJOn663Zegnv+qIXEcDiPuOBqpIQKQww6sOq+7nuC7wOLnG9PUq8fRNEbUc1BmGv3Kb0VhVkWYLay6nL/AMooeVW4Sp9jsHLB+1Z7XaK7235t4N9RuYIoVNXVb8OGKHuK7l+l42efRVkl834KKdsdOj/Xo8z0dW1G83zA5l6Xy/UZfea3qwntbT6y1b1Izmc0pCTfwQslDL97otdkxTigS+NHDFFFtIu64OrDBF5Vpvo88+pImMBy6Iy/nd5f5a+82im9h7iZmqgnOEmru2c2llQdQJO3dN8ZhNMUVW/AY7CNNNVHfCWsnr+5qqKKwknFxpuia+72buhHzwE5ZYfxP6/HsaacudmLqZrjRdtL6w0I0ZU3ceoVladpGTbjp9L6jxRaa0CrRRPV1Y49rqwwqLbmtra3CI86e59PR9/7p2PVPNsTtjP7rzs3/nm5c0zY5kK2k+N1cMwfrUxk1U2+knrMRp+XKNZunN05es7cxROUlHOstv1ZNLZqQwwwtIuDFFwoJPL9LO3PuvPIMFMcWI8Tz+vq9ed8zaWrAGW6KmeQ0w6uzlm93qbR1YpTqlkMcMPqGUzlDF1vbD8WGYJzXGD4sKccCcPcHEuEmC5BdJdjseN5dgIqXDKRcgAAAAAAAAAAAAAAAAAAAV9yb/CQzXc/sv8Ao9owCwQAAAAAAPO7OvmgvvIM7txbKUbmSvnSzSQWZlM9oun7PWLQquB/OnS80giwfxYyCYRIwRYtWsMO0XaQ932zuooAyyhtKpelzf6Q5eKryX1TMnkuXkcjujUNNyifu0JHPnctQduMUt7SheW7xbxukIFVVpmisnuxxbGOGCCNUMUb6Z3MBMrbye58myNU+sjOrT1BciBpHeGODFORSdRsi4wj/gf3HccaymySw1k4oYINoslr47IO5q3SaXxmzr1q4WQhpSqGNZQMpYyRrtB2xmTZ3SEwnjGN+tHKIokv4vhCsg297Uww2bldPgKhDOXbTEZyKTplKq8x1Byus4p3aO2K9IyanMXy672fT6CYRquV0pbIlHMEKkDWNVRJs3d7HYQQopq7WLGAJSvDpbMxE+y+VCjZTKRNKauPLLQVTV0/RrZw/kmFPNJepi0bvmCU1lCa002yvb0U3LdlDEmnuK7OLHUAvTa6bzKf2vp6oJq4wVdvpEzcuFvwikaMEcWP/LiBkQACv+djOxIsqkil1K0rT2FYXRrDBVOhKERc6mLzGH3x46U4W9JchrwYrOcYfuwJwQqKqpJRZ8Hg6sfVERDBisVThKc58+fPXKqlqLUVDTdQzi8V4qwwrC5lYYJ4VbVuCGpr6vvTBklwt6S5DX7Uh+UpHEqsqqrF2G0WiLZGUe2XK7nc+cdkdHnz8mxQNfVno7qzmN0bXU6+ntoZ6+if3ItvKEsVl5Iupjuqz+SpYf6TpjD7i2Hb0O368DjWeEvBqKo5bgmw2G/RMclxXS9E7eXDoa61DSm59sKsYz2m56xgfSecStfBdB4gphrwKpxwbutDjhic9b078ABTbOrmszAZfc89pafoqaJq24woKo6huhT0TFDFRxL2juVtt+JOMcNqlEzgerOtlB78mnGnq4xauMAYjbfSW3y61KKlLW4llz6lweXCqJ8/e1QhImidLSKoF2cG942zNffDnFLFqkklFCmmpqRRKuIfjBIej4zg3gzSVrfWpK0aM/WdIawlfW5QRX+qEZW4p+Xv9ReHeyfDi3zCrFjtFtVReNPDtaUEcYRbhpsa0pe0shutdjJrFKMK+oJjUtsJVTtYuJ46mMbmZspbvV6k0le2a/VExaxw71SeqRo4xY7PbYb3AyOmtKzeypIaIpaLJG+k1S1M4qXCZs6wm05kDVs0kybNyq8ZdVJE3ePElW7vtWKjNt25PFKLch7aBjlMaZm/k2oqUXBm+ReRs5PMqHpGtV1cLwa67en57MN4QY7HqVw36SvD3trbGJP+yoVO1ARJmy0n2fWjo65cWBVlqEtp2190Jmk4qicNVHaT6S1OjLEnUMCMl2eMKCXvDeP3zb6rhSOJLarBO9OaYCpEbzzSg6ryjVctR1JuX8sq+4EhkNQP0JY/YS/Fy8X2uEjTlu8YVYI0IVOqGDjWxhxiapQ47mAZVkqze5l8xOaOYSu79uJXR1LzWyVN1jTFMyup05xhh1QeTDty7jFm2Vgc7FFGCNvhtEYNTtaim7ugXAAr/o4PtGVZz+XO/fmdgWAAAAAAAAAAAAAAAAAAAAAAAAAIA0T/ABWeWrmAo3oNmBo0UXFcZZ+YGjegmoFggAGAZmb0I5bct1wswS9PxTeCg6JmlQRytJfZxPIGTRRzssI9yLVxiwTxh1tXHc3d3cAjhtczSjOm6bmDJtYPcUw+7mVnmH//ABoG71x9KVyNrBeMtPPQ0B1x9KVyNrBeMtPPQ0B1x9KVyNrBeMtPPQ0B1x9KVyNrBeMtPPQ0B1x9KVyNrBeMtPPQ0B1x9KVyNrBeMtPPQ0B1x9KVyNrBeMtPPQ0B1x9KVyNrBeMtPPQ0B1x9KVyNrBeMtPPQ0B1x9KVyNrBeMtPPQ0B1x9KVyNrBeMtPPQ0B1x9KVyNrBeMtPPQ0B1x9KVyNrBeMtPPQ0B1x9KVyNrBeMtPPQ0B1x9KVyNrBeMtPPQ0B1x9KVyNrBeMtPPQ0B1x9KVyNrBeMtPPQ0Cqa80vlP8/92nWYK3NIU5PvWHSGyllIVs6nbXYa871Y98OZcwi1/wATY/zjovAaYimufV+bROGGWehZ6dDc+bYEVzrJblfWtVV9p6CsvS9BtK8kccsn72gaZYyx24Ti1/jpI8KKHXj1daGIq+acPETERktKrncK4jjTnkyGnsuli6KoKY2spOxFIM6Ynuv1fkLKmmqbGZRqJ6ika7eCDZqxRwfX1oeEZacDbeLMZR59jDFxuUVRVntj4dDZmuWPLVNLdtLMzTLlQbyjZa432zpVakWKkubOOH2xJrsdnBH2yPhQw/fIz1yHDzTxZjZ2ZbCLlcYr48Tt7et3nWotPjNcJq1tpI0Xm/U3yL3qOhtN9pIb2SW19T32Fv2qGL4qfB7k9cniHnPOXXWfs9T1kpBM5TKJxNZy8nM8cTidTuebDfczdq/HV2KKSXBgggShhTThhhTggGHw8Uxk+TOTpqJyoWFt7dOf329YsreVdOZ4pNPXNNZQ0UfMdq0RbRIt3Gx2iKGqj3Ot98jI8YDRRVnklcvxsN+QU9lauBK5bSVP01b+fy1Clv4LlbFuwXQSkrrgdqRg/sNbYfF7WpqfiGSYt9UZRl589m9F/f4d9VFlbPV63mUtrS1VLTdOcoIJTpKaSBBeB8m3j128CuvB26FGLhQa3c/FPc4amY2w9RVMTnHS1trO2olf2KtRTiXaHjXtEnQT+p3ce2dwdx3KyvbY4fvkXCiPURD50owr/IDZ+5V4pDdqrJo82NNRS+CS00xkMkbtWqDKPat2sDqCXdUthC4ggV2G/NjrY9zs+AQpt9M18b3bP6+9Ni55aKaMuvPPb+uXuz9Kci3UwBX6pbk6SC1V5L0zbR2WUp+sZurTtEY1OvM3+o7ljHazjtzJtsot8q6m3+KrFDqQard1r6pyPhnturqfBP8Ah0JxyFXdzhT+jJ3OLJUTa2403VfJ4109rnNpUik6avtTHVRdyxai0Ooquru/UibRpD7mGOz+6am2lP8A1x9KVyNrBeMtPPQ0B1x9KVyNrBeMtPPQ0B1x9KVyNrBeMtPPQ0B1x9KVyNrBeMtPPQ0B1x9KVyNrBeMtPPQ0B1x9KVyNrBeMtPPQ0B1x9KVyNrBeMtPPQ0B1x9KVyNrBeMtPPQ0B1x9KVyNrBeMtPPQ0B1x9KVyNrBeMtPPQ0B1x9KVyNrBeMtPPQ0B1x9KVyNrBeMtPPQ0B1x9KVyNrBeMtPPQ0B1x9KVyNrBeMtPPQ0B1x9KVyNrBeMtPPQ0B1x9KVyNrBeMtPPQ0B1x9KVyNrBeMtPPQ0CDsqlfaRxrfjMv638q9k3bxa9rHGdIPcwc4QTau/WLSm4ihHhSim+U9hggptI4UYtooqns8YUsFlQnHrj6UrkbWC8ZaeehoDrj6UrkbWC8ZaeehoDrj6UrkbWC8ZaeehoDrj6UrkbWC8ZaeehoDrj6UrkbWC8ZaeehoDrj6UrkbWC8ZaeehoGISqms/kivDOr9SbI5YNKqagkjCUTmaRZnagx3wyaKLrN0dl60NnBqxuluFDDrRa/ugYTUOVXNJVF94cxs90etilqp3+zfr/AP2uarTlr160TxSaPHUshpbeLt4jD7iTpZGNZPUg1Y8NnDjgHHY5OMxcopeXUSy0cFhsJbLreTShmaHss6q4EhmUcCr1nretTW7ZGjBjtN3aQ/FihA7N5ljzUzKq8KzfaOzL+rMoJi0fYrYZrKn9/bSpaUoxanrT1eCycLJav1otprRbsXCAwtpo6LtS2mcKUaaOCzKTVGnpRI2cWGdSucV2rWVO43MsxQX9bW1bOGqqkewdpxQuE4cdnCps+CBu1po8rx13QEttrUWjgsnjLZYzmjLFRpnMrZu7mbeZKbaYozB2jTMLmaQuVe2q77UW2inbIuEBP8pqvSY07T8ukVPZNrCwt2TKBGBCLMnPO14QQ6sEEMWNIRYx7kOEPCi3P/aByuuPpSuRtYLxlp56GgcObXH0qsTBbFhk3sJgvsMcUtzMZOVcccfyI6RSwi/J2kH1u6h+uBTHKC+iuCrVN4bsTaZzG88ymm8bs4VCw3m+kT5LuJNC31lN6MUNf6nTTiUTUTj3xtF4nES8XXuDWHtlFsjkXt8+f15bwhrx03DLE9EdHnt87E1m1NVAI2yj1VmJtdmuq21Gj3pCSVhR+91Jlc2kqpn60npulahXjgVg3lMWzR7G2eOUo413EvTaqJ+5CvHvVRfWccg4U4W2Rcp+j6fPnJ1XgtVcqrdE4vp8+fd1LcdcfSlcjawXjLTz0NNWbOdcfSlcjawXjLTz0NAxCb05n6qK8MnvvOMiOX9eq5BI38plUz9k7UG4ixeRoRuEcUsKRwTj2kbVHhRQ4xYanufGwxCI3Ojyu5Ha6Q2elmjWsXJqbpuKaQyZlTmcSspZjA3ma+Lh8yiVaUwmoqxXV91RkpFE3i3Ie18GHcCRre2mzyWkntX1PajIbYORvK9ibR1HChmjqTFqpG3awNEYkmkVI7BtjC3gTT7SmnrYQQa2tqgQPlu0WeY+ymXdpYa4eSWyNfPo6Pa0/OKinWbKsdzFBBffP8HJK04t1D+qIIF/qGNHGFaBJTW2kEEQEq0dlIzM0A8lk1pzR32MimMnhnOynU0zd1c/fOsZqmnA/Vdu3NLqLv1VIEUYNq4iUUThThhgighAN8oeZBGjErep6OGwnUhtR0kpRFpjmyqvgyiUuN8y5tretTW7Srw9pu7SL48UQHV1pkTvhcDB23q3Ru2JWTmMrqSWvsUM4dYN98tZ+631NUY9jS8Otgs47bh+Bi952QHKkmTHMdILo4Xea6O2xS08gX31jA/zdVe7l6z7eO8OqCsuWpeNmq/iadojfRI4ulIccdZTHWA52XLKpmlymVI9quxOQKyksmcxkbSSKLTTODV00xSljWOONuyQ3/S6+9mqW1j1EUdVNPd1YYdX3AJk64+lK5G1gvGWnnoaB3uSKz9z7KWOcUreTGRpVHN69qqpZizpybLTBkzxnFQP5rC2ScLNmyi2CMDvBLaYopa2MGMWqBMgAAAAAAAAAAAAAAAAAAAAAAABAGif4rPLVzAUb0GzA0aKLiuMs/MDRvQTUCwQACCdKRxZmYrmIq/oZ2BNUp+xDX8yn+zADmAAAAAAAAAAAAAAAAAAABQzNfK16B0lEU2mcGODO5dpmHUVbH+35I+fYO4MMPlYt5wxihh7rVQVi+LEb5wLxEZ1UtM4W0/dNZ0xzYAAVs0kNaN6Lpe2WE8u/PKIp2Z3UZsasnMjn8csxxlsTF7tYFXCMcOyQ+WprQ7P3yGKGKHWKW8TEU0zOyM1/bYqmrTRHSiCw04uJdG9lGyhtd6vZlSMnllczKhd2tJin65WrWcS+CVOXSqKutMUNVSPUUW2kKyOHu7XWKjA/WmNuz6ybj6qqapiY2/s+r4dXnJFql/bgt7EVPP7U5lq8nFRYZeplNrx/wDCZ0+XpGq4XCOygSSVj/gh1rdUUt5Iwow7NpB2vga5EjG5Wucqp6Nqwqwc1Y+ONoY2V/U2Zflln652siuLeurpSymjTL3fibVVZ7CsaW9c1dVFdmYoNW66rR71Qa+uJLfLmWIbWCVbXY8Fuo72faNrESKsVsn6Ofq+v49TDRTM6SmMV97s6IifVs2Z9XT0sky/NrgXzrm3tJ3AzC1FOabxpCtXss9aFzKgwQmSDeay9GX4KzDYy9aZ7FJeNKFzFDFC4hw2mspraxJwETjZoiZ7etjuM8SrT7PD6svd0R8OpFttrq3NovKxKJTY66k1VlDSzVFeuDBWvX2wlECtQOkpxHv2DfKkr1EoIklV009ZmnBwdXZcGuzmLX9Tsj80mImbh+89/wA+fzZm2u9PesWhNapzZUxjR6V0ZonIMOv9VEvl0ya7w+x/r16nILud7u9sql78mt7ztIt78CTE1c3Z8b/9p/76LNNHLvuv+n/8OfnsXry/T93P7D0bUDuKo8VndOM1N2q9TqljrIQfxrU1Ydv8vg90bRhvrU7WtVbGZEtDAAGSaLOVeum4t9L8s48cJdMqrl1IytXHDHDBzBJ2m44Whx/khevnrb8tpGcb4ZYqJuvQ61wWo/s6FwoWLNs4WdNWSMKq2HbVdzu/yjW2xOUAAAAAAAAAAAAAAAAAAAFfcm/wkM13P7L/AKPaMAsEAAAAAAAAAAAAAAAAAVbzx5HJ5dieI5nMsbxhIbxyFhvf6s4EurCXQ8PqNNdT68P4BzwlGqketDrJxqpK2GBx1WBqzjoQMbgqcZTlKALN3kp+8VPvMMZO9kE9kD3qbV1IzvHZzKnplD3TZxD/AN6BSHWTWTjgUgiiTihiOx4HHU3CnjUuUXC383uuhhupmwuo8yxZYpxhLcJbgn1zrnYN9ohR6EfD3m11+1uJwsl3CfCTbpqb4X+9JONe4R8I+bv3PB/bXVgsEY+OV4v7vqhfXLzl3tXlgtTK7N2apbCVySVw47LCLcUXcrR4YRKunKsXbHDhVXdUVWUxxUjUxxiiOWumM/AAAAAAAAAAAAAAAAAAAAAAAAAAAAAAAAAAAAAAAEAaJ/is8tXMBRvQbMDRoouK4yz8wNG9BNQLBAAIJ0pHFmZiuYir+hnYE1Sn7ENfzKf7MAOYAAAAAAAAAAAAAAAAAAAEMZyMq7bNXaqCnZZUmFP1dIH2E2oGrsUNvjJJrAnHBCpjBwdsgokoo3XS3e2IrKw60MW5EZ8HpZwU5wjYvCU4unKVLY77K2dnyVqs4koRtdWvupo9VltyRT2P8JKpnHqoO9buthwXSf3xGE61geE1suDmWOsOOwMbEgNHbR01320ebZFb7+gbN0tbck+vLo6rtlRNwXUgm1Wyffi1MzzqxJPqhRPezvYRo6/Aj4fBXjh1YtaEi8XOc5TJjN3hKQ3RXMt9RF1qImVsLiSfqnJ5yx3tNGW+FE9pBF8TXgjhig/mxEXi04qn0JcxlG13JKRG4AAAAAHBqGq6epSVLTarqmYyxmj789fOIG6aX8+MjzlG1MYTRs4uZnaX63uTXBdeRO8dlO71Yt/4Bk6Hx+p8UfBm7z5EKOs3Ti4Syn3qLTr1wpjAxEYLbLYrLwUjGU54xf6w9kKBy4WikFkLVSjFnIaZlkDJgksvtF1PuxrKqxYayqqke6pGpFwlFI4oovdxOYOnM2AAAAAAAAAAAAAAAAAAAABX3Jv8JDNdz+y/6PaMAsEAAAAAAAAAAAAAAAAAAKy5xtHNTeZitWt4LX3enNqbhJMupMzrOlWCKyk3lOO7jvR2ir2taJLGLFRuvFwm6n1tZOJVJWdgsdpcBOdCJjcFhcbTlp4zS3l4y8Wqyw2qlVmrNUthK5JK8MccMMccFF3S8eGsq6cqxdscOFVN1RVZTHFSNTHGKIgpbPwAAAAAAAAAAAAAAAAAAAAAAAAAAAAAAAAAAAAAAAAgDRP8Vnlq5gKN6DZgaNFFxXGWfmBo3oJqBYIABBOlI4szMVzEVf0M7AmqU/Yhr+ZT/ZgBzAAAAAAAAAAAAAAAAAAAAAdXUVO09W1PrU9VtNsZrLnsOo7Yv28DhBSD8aCPgxYAQm70VmjEmLtR3MtHBYVVVX31Ve0MljjU/v8A8W3QNPYotFx3s+wPgbkXkwDsUWi472fYHwNyLyYB2KLRcd7PsD4G5F5MA7FFouO9n2B8Dci8mAdii0XHez7A+BuReTAOxRaLjvZ9gfA3IvJgHYotFx3s+wPgbkXkwDsUWi472fYHwNyLyYB2KLRcd7PsD4G5F5MA7FFouO9n2B8Dci8mA59M6MzRv0NNE55RmQCyEnmKXvL6V2ok6C6f5McDbWAmxu3gawQtWsGCaSeHuYfygb4AAAAAAAAAAAAAAAAAAAAAFfcm/wAJDNdz+y/6PaMAsEAAAAAAAAAAAAAAAAAAAAAAAAAAAAAAAAAAAAAAAAAAAAAAAAAAAAAAAAAAAAAEAaJ/is8tXMBRvQbMDRoouK4yz8wNG9BNQLBAAIJ0pHFmZiuYir+hnYE1Sn7ENfzKf7MAOYAAAAAAAAAAAAAAAAAAAAAAAAAAAAAAAAAAAAAAAAAAAAAAAAAAAAAAAAAAAV9yb/CQzXc/sv8Ao9owCwQAAAAAAAAAAAAAAAAAAAAAAAAAAAAAAAAAAAAAAAAAAAAAAAAAAAAAAAAAAAAAQBon+Kzy1cwFG9BswNGii4rjLPzA0b0E1AsEAAgnSkcWZmK5iKv6GdgTVKfsQ1/Mp/swA5gAAAAAAAAAAAAAAAAAAAAAAAAAAAAAAAAAAAAAAAAAAAAAAAAAAAAAAAAAABX3Jv8ACQzXc/sv+j2jALBAAAAAAAAAAAAAAAAAAAAAAAAAAAAAAAAAAAAAAAAAAAAAAAAAAAAAAAAAAAAABAGif4rPLVzAUb0GzA0aKLiuMs/MDRvQTUCwQACCdKRxZmYrmIq/oZ2BNUp+xDX8yn+zADmAAAAAAAAAAAAAAAAAAAAAAAAAAAAAAAAAAAAAAAAAAAAAAAAAAAAAAAAAAAFfcm/wkM13P7L/AKPaMAsEAAAAAAAAAAAAAAAAAAAAAAAAAAAAAAAAAAAAAAAAAAAAAAAAAAAAAAAAAAAAAEAaJ/is8tXMBRvQbMDRoouK4yz8wNG9BNQLBAAIJ0pHFmZiuYir+hnYE1Sn7ENfzKf7MAOYAAAAAAAAAAAAAAAAAAAAAAAAAAAAAAAAAAAAAAAAAAAAAR7d7Ndley8bODMHmVoCh4lcO1YVhWDGV7T/ABb5Vh3QI/7K7ouO+YWB8Mki8pAdld0XHfMLA+GSReUgOyu6LjvmFgfDJIvKQHZXdFx3zCwPhkkXlIDsrui475hYHwySLykB2V3Rcd8wsD4ZJF5SA7K7ouO+YWB8Mki8pAdld0XHfMLA+GSReUgSPaDMzlyzCMlpjYK/1EVukhh29aj6paTSBP8Ax4tlIgM7AAV9yb/CQzXc/sv+j2jALBAAAAAAAAAAAAAAAAAAAAAAAAAAAAAAAAAAAAAAAAAAAAAAAAAAAAAAAAAAAAABAGif4rPLVzAUb0GzA0aKLiuMs/MDRvQTUCwQACCdKRxZmYrmIq/oZ2BNUp+xDX8yn+zADmAAAHi56pK03GevReZraFtPlZnVMtpPUdv8JvMkZ3TybyPfW/nSOOMMWMUOOHATg9z+8B6XaNW+9wczmQK0GYK7DxuvUda0FLpvOlmTbYJYrro68WMEGHcQ/wAgE6gAAAAAAAAAAAAAAAAAAAAARTnTvTUWW/JxdrMdRUqZu5tQNtZ9UsrZzPWxQcuGMvXcpQK4QRQxbOKJPDW1YoYtX624B5m6AH1Qrm20smcqocud97R26kMok1tnlRovaQYPk11HCUxl7aGCLfLtWHZ6juP60OtrYQf3wPYgAAAAAAAAAAAAAFG82Waq6d/Loz7LJlkrx7RtL0c83jci5Eqww3+5f93HJpVHFwUYk4P4y77pPX2KOqtrRpbRwdsfOM51fZa5fL3Tb6co+2j+2uXmzdptq6t7bWVM5k77ZM51i33xMn0f4Z0+W1l3Cv8AhFFIojpeGwVuwH2Yc7nH3DHs0LVVAAAAAAAAGCXDy3Wcue5RqCd0CgjPWeO7LKukWvL51LFPltZg21XLeL82pCVWLwFux/3i0wOPuGB/uyXsnWbO5NCXRl2U3NNV2NQY1Bgphau462zTWnESUGKy0pmGpqp4v00oFFU1k4YYXKKCvBhUS7dy/hFZObqomPsuj2O9UXGjKfvFzTXGwq+5N/hIZruf2X/R7RgFggAAAAAAAAAAAAAAAAAAAAAAAAAAAAAAAAAAAAAAAAAAAAAAAAAAAAAAAAAAAAAgDRP8Vnlq5gKN6DZgaNFFxXGWfmBo3oJqBYIABBOlI4szMVzEVf0M7AmqU/Yhr+ZT/ZgBzAAAD5pPVs3w9rT80WHSjwD250KHFF5dOaGS/wBVgAtEAAAAAAAAAAAAAAAAAAAAABX3Su8VxmY5gay6CdAeAnqKzjSa+5gZp05IwPp9AAAAAAAAAAAG2BhWY66zeweXyvb6OGmC8FG0dNJ5ihj993o0Ucan/LswKHZZKAc2wsHSlKTZ5i8mKMqTc1DM18e2PZk4+qXzyP8AGWdxrqxfjRndMFhIwOi4suMY6eX41nRaKoAxW6F77MWZliM+vRd2mKQl7xbe7J3VE+QYIKL93qQROY4YY4tT4pCxeLowNMTVOSdotFXc54tETM+hkbR21mrVGbSl4gszWQ2iKyPbE1E4+4jhj+SSomJhjb57RWJSG+Viqpr91ailbw0tMqpl6yiUxp9lP2jh83jg7uBRvBHtYdX42tCRYxVMzMZps0TERMx09DLSUhAAABF2b5tM08uFT1rSmO5UdDsvXfSK/wBfZTaVfV7ThfJiVQ2Ufyk1I4e5jKe94eNNbK4mF5YZ5Fj9C9LqWqJlV1Oyuq5RFutJmxSdI7v19mrBhHDj/wCk4e7AhDJv8JDNdz+y/wCj2jALBAAAAAAAAAAAAAAAAAAAAAAAAAAAAAAAAAAAAAAAAAAAAAAAAAAAAAAAAAAAAABAGif4rPLVzAUb0GzA0aKLiuMs/MDRvQTUCwQACCdKRxZmYrmIq/oZ2BNUp+xDX8yn+zADmAAAHzSerZvh7Wn5osOlHgHtzoUOKLy6c0Ml/qsAFogAAABjdy7oW+s5Qc0ubdisJZIafkyO+JpOJs5wboNk93c3Yoov8eEOGHxscdXc3cdwCq1SaVC4VXxb8yvZMZ5UEmxx+pKouNUPrUaPYPloo72dzDV/PNUTY8FwXueNjZsa5juFNvwEfWlweyD5/eQ3Z3xjJp6Jk/Uy69sb2DWy2dle75nZB8/vIbs74xk09ExqZde2N5rZbOyvd8zsg+f3kN2d8YyaeiY1MuvbG81stnZXu+Z2QfP7yG7O+MZNPRMamXXtjea2Wzsr3fM7IPn95DdnfGMmnomNTLr2xvNbLZ2V7vmdkHz+8huzvjGTT0TGpl17Y3mtls7K93zcqW6TnMJSmO+r7ZDXOEs3Mdu+tVX6dSKNoPlxNnjOWrxw/iowqKfJhiIM8DrrEM+tVu7VmLFZgbOZlbfoXOshXrafyhyvG2iWQ101GziDu27hBXCFVsun8dFSGFSH40PumttjZyAAAAAFfdK7xXGZjmBrLoJ0B863qR6oL0UrpI61eWHtTJ6xnHWSmaa8snlXxyVBJv1Yk+uttoGjnGPHCLBOHZ7P3dpra2Gp7ofRX14tJHyILXeMA59HwNHXZ0mvIhtD4w770ZA19czSf8jCyXjGzX0TA/OuTpSOR7YPxj516IAPX5pSuSdYLxhZ56Jgfnry0pvJmsD4dZ76Mgfvrs0p3J+sB4Xp36PgPXRpSPmVsB4T535lA/PXBpTPmsy/fr9O/NYDCa6UtTDcwoPL/h/jq2dxf/6AHU1470jrikZn6+6cy7pSLGVuOrO/59O8Ud6bPHa7TdbQ8DU3d0DzxuE50oTvKtez2P8AjKlcu3WfqbGfLV8vOY5fvTqU82vrajmcEM3ji/B741pZs9XYcEC1FO/+LrL/AIgn/wCofofqcNc4+ooBWe41x7XWNz8vLqZmatllOU7NLaNJbQlTVQ+gaS1s7gfLLTNnC4V1Ukl1Yd5K6utrLJo8H3qI16qqnA3PjVzlExslsVNNdyt3FwkZofvLciyEgk9GNUbhVvaKzru39TzOjF2U+fSHF7Pd9Qb1xSihj2sWCiUay7OXxRbNZOP+L4bLUhi4uqnOImeLhvPnJK0VNc0VTTH0um6+uYj9PT1bIzjPb0lP1LmGn0pnd9brXgryT1pTVbWyZL0+lUzpoxbKPUJL1TRVl8Cu9ottvqPXSUTi2cXcasWuR8tLO2en6rNTXgopmnZ/iec2M1W9rWy9uK6lNqbp1tJ8FE7vONrhW0xXjTWaPmsDdaHauYtVVPusI4fjRxxd1FER8ss//wAhJmc/+izrMJSNb0U5ua1pTMHdGWpW8tZSEyprHG4s1U2cycTKYb4cq7ZypvvabPGHYONojq44w7PgQEjHU5cbbOzLrR8BXt0UZRt9HnL2LDZPEJvTFcXftVHXtRTiUUpXzdtJfXTPXUzdNkFZNLnMcG+HcSi8UO1Wji1YouDr8Hgl9gPq8aFFcJmqrQzP6J5LVUgGAZpfgxXG/wAwJx/UVyJjvuKky3/37QL+5e/tA0L/AJnSz+qJnAncEX5N/hIZruf2X/R7RgFggAAAAAAAAAAAAAAAAAAAAAAAAAAAAAAAAAAAAAAAAAAAAAAAAAAAAAAAAAAAAAgDRP8AFZ5auYCjeg2YGjRRcVxln5gaN6CagWCAAQTpSOLMzFcxFX9DOwJqlP2Ia/mU/wBmAHMAAAPmk9WzfD2tPzRYdKPAPbnQocUXl05oZL/VYALRAAAADzqulXrrObmKnFe1FDi7t9baql5RbaR+5sH02ZRxtphPVYfvyqbrbtWv4NNBZaHhOOD0TgdaaYjl0tD4W4/ZyVkp0Rz8AAAAAAAAj2pqtmeT64mOdO3u6k0l2DdK8krb9xPaaS99cxI/HesUu3oK91Emmq37lXgaZwztFFxtvHy2x5/q27gljowWNnCPSlm8aPmiTxm6wVSVw10lUsfcUwOVOnOSAAAAK+6V3iuMzHMDWXQToDwE9RWcaTX3MDNOnJGB9PoAAAAAAAAAAA2wMKzHWpb38y+V7Ytw7wQgrKjppI8V8fvW+2ijfX/5NoBQ7LJX7m59g6UqubM8WcxWlSbaoZYvh2xlMm/1M+Zx/jIu4F0ovxoDumCxcY7RcaXGMdHIMazotFUAAAAAAAAAAEXZvnMzUy4VPRVKYbtR1wy9aFIofW2s2mv1A04PyYVV9rH8lNOOLuYCnveIjQ2yuZleWGOW4/QvS6lqdZUjTsrpSUQ7jSWMUmqO79fZpQYQQ4f+g4e7AhDJv8JDNdz+y/6PaMAsEAAAAAAAAAAAAAAAAAAAAAAAAAAAAAAAAAAAAAAAAAAAAAAAAAAAAAAAAAAAAAEAaJ/is8tXMBRvQbMDRoouK4yz8wNG9BNQLBAAIJ0pHFmZiuYir+hnYE1Sn7ENfzKf7MAOYAAAfNJ6tm+Htafmiw6UeAe3OhQ4ovLpzQyX+qwAWiAAAIJm2eq1ttLkuLY5j6fndsFYptiypyoazbJwSGocNfVRjbzRGNRqkophq7jZyog51scNVGL64FItH+rA/wAj9pZ24/jc3trKJu8W/CO3TWBy4j/nKrxxHcLNtteG9XwcbuccW54mExlwp2KXtrebWyshWVw6eZoLPKfpSYTNki+97UUboRrQa/c8HgEXEzPEzS88ozVTs3pI54uyp6rarvha26EtfW/f1DV9P2kkUcEypCBow359VRxzl2lq6/1LqqQt9ZSODhd3CUFN5rz2zFX+n+q+m30TRExGk0X+5KQJppGKfpVH101VaGtmjJam5A/ldM4U+xjmyvVWarsWse2RmqiHbOB2iKFOJOHuotbtUEiLvTG3Lz52o3N05tua6QCdOq1oen6TsFU0tRmtypnS1wGdR4S9N3IVGsuWebmEcEw2UXAxgcbVKJxDE3wW++akGPybxEzT9X0dWz3+rteptlMTMRVE79vq2fnk53ZM7PesSeXHqC19eS2Uy+gl6yp9V7J2uHrokaSmzjeMNV3F8tDtbre62quj2s+xeaaYmcp89nmDmv68U5xt93rTjQFVTStKMaVXNKEmlNqu0dphJp3vXfbf++rvNVdD8fgqRF7TMzEbMvWqZjKqYic3eGRDcCoKflVWU88p2bNNszmbFRs9R/CwRwakZ5yzjKUrqWA0a1ZQzvRsZe6sqqcIb/mdj6TevFl1sMNospJmscUX+lun55dyS+5ulbdrhuOrgSJD8/N0MP8A3wOsdZhbCM8Pqy+dJI/najaYf++B1TrN7lPl0P1Zmit6j+erRj/tQOrcZ8Mjctw3XedG1Sf5648tw/asBSLSxaWuwEryj3+s5hcS2lWSCtLQz+T0bUVv7uyaZv03zqTLIQozCWYrJrp4b4jxhhVab7w1cYMY4UwPLv1FZxpNfcwM06ckYH0+gAAAAAAAAAAAAAo3myyq3TsHdGfZm8slBvaypesXm/rkW3lWOG/2z/uI5zKoIuCtEpB/GWndKam2R1ltaBXaODt85unKr7LXL5ZKbhTnH20f21zDWbuztWtvblSp5Mmna5nJcXG95kxj/AumK2qu3V/waicMR0vDY23Y/wCzLnc4C4YBmhaqoAAAAAAAAwS4eZGzlsHKNPzuvkFp68x3JZSMi15hOpmp8hrL22s5cRfm04iqxePt2A+8WmBwFwx392S9k6ymXJru6MuzZZpqRxp/Gn8FMbV24W2ai0niVgxRWm0w1NZPB+olGokminFFC2RXV4USivaeX8Ir3zjVER9l0ex2Wi3UZz94uaa42FX3Jv8ACQzXc/sv+j2jALBAAAAAAAAAAAAAAAAAAAAAAAAAAAAAAAAAAAAAAAAAAAAAAAAAAAAAAAAAAAAABAGif4rPLVzAUb0GzA0aKLiuMs/MDRvQTUCwQACCdKRxZmYrmIq/oZ2BNUp+xDX8yn+zADmAAAHzSerZvh7Wn5osOlHgHqZohtH1lFuJoxLC1/WNsnr6ZTS18pdPVsKvmsKaikbaDX3EYHOEEH5EMOEIFjsNF7kMxw+qsvrJT/jE5fqf+suB+9i00e+ruuMqNLK/nklFP/XjA04aK7Rvf2VkjtrH+fplBT/14QITn2glydXhuatPrw2VtcyoqWzTa07RFubdNZMo6hgx1k1JlNINZ45j3Mfem6jZDV4MaaoEN6PWKFDIXZlvhjuqtLVyBsru/e10paiirB/Njg1TuFmiJteGie7Hn83GblOdxxE/5iYi4VLHbrUT1zLT1LbDqxvP1wU48lm/dhtN674QjR19Tg6+rr9zrEfERnEpMRnsYxNLDdVMqSuV/Csdjirbn1q9Wt4f+Y723zstf+dq7T+cR+R/2b9D6Evl39ocpYVXuSHCv62Z1x11957ylNKNdh1H2m06iTXqlr6+2+/e9f4PuuF3BixOA420px23NsT7JDNJpWsVby26yKWC92nFXqsnsgjXgUaOJN1KcS/gOE+FstpFAv8AFi+8xHycDPa+xj4iZmWBURonZBQ1vqnt5KqnoWWpTGiVKWk0zpizktlsx2Uan8amL2BWJeYOdSBPW2cTVGLhxRI62pqVlNhy2bNvo85rbScIePl0+2c9vo7FvWv1I0NomM5arGxun18bDp00lLRabu8diiihtVlv8HAeZySul3Wjs0duRitNHxYKubq5HLTTqqXtjKQxnc5ntuJY7fOV4ZGygx2qyyMSkcXB1eFF9w/PLuSeEdHho/WEO61yLWeR/MWwlWH7G4HZoZIsl8vh+o8oVsUvzNAS7D9iIHaNsrGWVj/FcutBp/m6PZ4fsTA7NvZCzDLD6ktJTKOP+Cp9vh/7gFP9L/kypatslGYS69a19P1pRT9jamf0rQcojTlUqYPm8jdR4OnGLOFNeZRbXDXhTcqKN0/c1UdbhgeNvqKzjSa+5gZp05IwPp9AAAAAAAAAAAAAAAj272VHK9mH2ceYPLVQFcRJYdqxrCj2M02f+LfKUW4BH/YotFx3s+wPgbkXkwDsUWi472fYHwNyLyYB2KLRcd7PsD4G5F5MBFWd7RkaNSkMlF4KqpXR8WMlc0llragdyuaS60cnbrtV0pavHAslHA21oIoYsMIoYoe53AM3tpor9GPMLa0/MJho47DOF3EiZqrrL2hk2KiqmKEGO7jji2A77sUWi472fYHwNyLyYB2KLRcd7PsD4G5F5MA7FFouO9n2B8Dci8mAke0GWbLll7ZLS6wVgaIohJfDt6NH0s0lcCn+PBsnCBnYACvuTf4SGa7n9l/0e0YBYIAAAAAAAAAAAAAAAAAAAAAAAAAAAAAAAAAAAAAAAAAAAAAAAAAAAAAAAAAAAAAIA0T/ABWeWrmAo3oNmBo0UXFcZZ+YGjegmoFggAEE6UjizMxXMRV/QzsCapT9iGv5lP8AZgBzAAAD5pPVs3w9rT80WHSjwD250KHFF5dOaGS/1WAC0QAAAA82VaCc5U8wdR5X6hh3lJ5vO39TWierYdrmctdr75dy+D6/bZe4Wjh2Xdb1jbqfK1OmcDrtTOi5FPU51wst0zi4xbNjfGkAAAAAAAAEc3sk09vxMGeS+2btf1yXFRwbTp6yw3Y6dpruJhNo/kaqXakNb3x0ulD8rU1XhLdabdbJnrls9gwHLsfm9I6fp2TUrTzGm5AyhZy2WMk2zNmj7kCSEEGEEEH82HDA5C6q7MAAAAV90rvFcZmOYGsugnQHgJ6is40mvuYGadOSMD6fQAAAAAAAAAAAAAAAAAAAh7SBfAKvjzR1J0U4Az+0n2raZ/zfZf1eADIgAAAAAAV9yb/CQzXc/sv+j2jALBAAAAAAAAAAAAAAAAAAAAAAAAAAAAAAAAAAAAAAAAAAAAAAAAAAAAAAAAAAAAABAGif4rPLVzAUb0GzA0aKLiuMs/MDRvQTUCwQACCdKRxZmYrmIq/oZ2BNUp+xDX8yn+zADmAAAHzSerZvh7Wn5osOlHgHtzoUOKLy6c0Ml/qsAFogAAABHuYXLtarM9b1W2d2KWweNMV4HbN63cRt30sdwe9vGjhLtjdwn8VVOLCL68PcxYgVZn2RDPla2LFlZq8NA3Pk+GP1Ijc7BxIJskn/AId9LWzlBzF+NCzQNzwfDXTU0xx9rU8XwUwdX3MZOr9jbpRfmHsL4fJ56KE/XqPw3vhA1F0f4id3zPY26UX5h7C+Hyeeig16j8N74NRdH+Ind8z2NulF+Yewvh8nnooNeo/De+DUXR/iJ3fM9jbpRfmHsL4fJ56KDXqPw3vg1F0f4id3zPY26UX5h7C+Hyeeig16j8N74NRdH+Ind8z2NulF+Yewvh8nnooNeo/De+DUXR/iJ3fNzJVkv0jdwYt5VrW9pbaM8cO3PqWfzKq3+r/gt+NJaklF/JEomvDD+DiME8NNN1UJGqOD8WVlcsWUO0WVen3jKi05nNZzOF4HNT1lUr7fk2ni8OG5BG4casPBgw9xNBOFNFHdx2acO7iaXiMTXjquNM5tspppwsJbMDOAAAACvuld4rjMxzA1l0E6A8BPUVnGk19zAzTpyRgfT6AAAAAAAAAAAAAAAAAAAEPaQL4BV8eaOpOinAGf2k+1bTP+b7L+rwAZEAAAAAACvuTf4SGa7n9l/wBHtGAWCAAAAAAAAAAAAAAAAAAAAAAAAAAAAAAAAAAAAAAAAAAAAAAAAAAAAAAAAAAAAACANE/xWeWrmAo3oNmBo0UXFcZZ+YGjegmoFggAEE6UjizMxXMRV/QzsCapT9iGv5lP9mAHMAAAPmk9WzfD2tPzRYdKPAPbnQocUXl05oZL/VYALRAAAAAAA2wNwAAAAAAAAAAAAAFfdK7xXGZjmBrLoJ0B4CeorONJr7mBmnTkjA+n0AAAAAAAAAAAAAAAAAAAIe0gXwCr480dSdFOAM/tJ9q2mf8AN9l/V4AMiAAAAAABX3Jv8JDNdz+y/wCj2jALBAAAAAAAAAAAAAAAAAAAAAAAAAAAAAAAAAAAAAAAAAAAAAAAAAAAAAAAAAAAAABAGif4rPLVzAUb0GzA0aKLiuMs/MDRvQTUCwQACCdKRxZmYrmIq/oZ2BNUp+xDX8yn+zADmAAAHzSerZvh7Wn5osOlHgHtzoUOKLy6c0Ml/qsAFogAAABAmdHOFHluZya3luKdb1Lcysdv60qcXX1EEkEtXfEyex90kzQ2kGtq8NRSNJFPhR7uE/A4KrHaXiwgY7GRgsNNUqhVNYCZXw/4Q5x7lTy6kyVx3VpZNV42dPNcfkN5MjHvaCH8ZaFZb5S0R1LA8GbZgPS5xjr/AI/HR4Tpex75AuRRZ3wZSrycsOZrZ+Gjcr+crl+I0j97H1kF5C9nvBlKvJz1zPa+5D7znc/H0h2PrILyF7PeDKVeTjme19yDnO5+PpDsfWQXkL2e8GUq8nHM9r7kHOdz8fSHY+sgvIXs94MpV5OOZ7X3IOc7n4+kOx9ZBeQvZ7wZSryccz2vuQc53Px9I5uOSrK3LHeE2t/ZmV0RMkEU0286tzipTb5LVg1EtR3LY0FODDwYeER5sVrmMppZ+fcf4yVbF5v7vZZKqk1usz9eq1vbefTVOWyW5M0wgTmdNO1YtRu2m2xghTctVI+1QPtWFRNTV3xtdffBoF74Nzb/AK9HQ3SyX3l8zoNPG1e81NtQAAAAK+6V3iuMzHMDWXQToDwE9RWcaTX3MDNOnJGB9PoAAAAAAAAAAAAAAAAAAAQ9pAvgFXx5o6k6KcAZ/aT7VtM/5vsv6vABkQAAAAAAK+5N/hIZruf2X/R7RgFggAAAAAAAAAAAAAAAAAAAAAAAAAAAAAAAAAAAAAAAAAAAAAAAAAAAAAAAAAAAAAgDRP8AFZ5auYCjeg2YGjRRcVxln5gaN6CagWCAAQTpSOLMzFcxFX9DOwJqlP2Ia/mU/wBmAHMAAAPmk9WzfD2tPzRYdKPAPbnQocUXl05oZL/VYALRAAAADzgYTt1d/NLeG+c13VlvXw4ound3H+IymSfUcSMH5Uy6ouIvy4PkHUeBmDpotX0kuZ8LcfnjowyldT5YJrmCzJ5lWMgyx2eqOYrVAwljKvq+fxpzWm1I6cl+qszSgla8Uey19vBqum3bPk90e5wPLrpivqx7fMvUY6nAW7QZ6fSR7On17YZRcjM1fK31+ZPTtKXXrKdSWT3Wpugp1u0/TreQqLLoNN8IrxuFopw5faq+327eFNvDuQw6vBUjJU46v6fpnL2Zfqw8ioi2TGUZ5+nPq9m9js1zj5maWlEkvs0vRhN1qlZXBfRWqWlEu2EsjkqDrejZNVJLffa4kYN8bRRTWU7nZw8E+8v00Tnn3vqvNWBwMxEZbY+j/advn0ObQuYTOvM5BOqVXr2cYu5pI6YmUneVROKFb1Apv11FA7QlSTF2o01XCUH1Fv8AT4SmKsOKih5pxl16PV3fPqz7Hqq326IiYj/vZe/4TuS9Nqsqi6ujpuJjNbkVQvNmVMVQxezKdyeXM5q2Xb4uoY2riBttGUaiepso1W0OxU7pPVJu2bRPqQJmmLns2x7cv1+KF6nzB35tTbGZ+tTMOrLEbQ2bpOdsZNNZRKlPXmu922MaLz6n2myi2MDVLeu94topwtqVvKtLlsr+zCZMYGmJn6D73SJkzrNp/P72ZdpDILir0S7nFev2/Vlkgg4dNv4EeRxwIQOEVENpF3EO0TUh93uSyvMVZ0Rmj2zKJ005Z+ev0bvWr3Nc8Wcyr5Fi1oyp5vgtR9AP5vDVcsb0szY1E4azmYMIHsz6tOG0KMvxSZQRK9TtWKHfWttE4dkVFWPu2Wz4e/P4LbRW+2zVMTEerb19mXX690r6TGRSK9Nn1KWuXTrJ1L6rpzBvOZbDjBGipA4Q7ajwNaGOHh/FiNqyiunKehqtNVVNUVROUwspoxbo1XdTJNRr64M1UmNQSBWZ0pUE0X98fPZLMnUnVcx/jLRMtr/zhwnGaDLSTTLs+DnPDRKwRgSAAAAr7pXeK4zMcwNZdBOgPAT1FZxpNfcwM06ckYH0+gAAAAAAAAAAAAAAAAAABD2kC+AVfHmjqTopwBn9pPtW0z/m+y/q8AGRAAAAAAAr7k3+Ehmu5/Zf9HtGAWCAAAAAAAAAAAAAAAAAAAAAAAAAAAAAAAAAAAAAAAAAAAAAAAAAAAAAAAAAAAAACANE/wAVnlq5gKN6DZgaNFFxXGWfmBo3oJqBYIABBOlI4szMVzEVf0M7AmqU/Yhr+ZT/AGYAcwAAA+aT1bN8Pa0/NFh0o8A9S9ETX2kUZ6MWw7W3mVqy00kCNr5T1Gmc8v5NZe7ct97Q6karZGlXMCMf8sEK6m58qICx/XH0pXI2sF4y089DQHXH0pXI2sF4y089DQHXH0pXI2sF4y089DQKR3Jv7pNKLzRPJHkKtvQlTVkvVGHXQtvJL9Tis6almMcae+I3cb+nWSMhdQp460LVGYttbd195OQO+yrTStZ/S1ZzS5rJBGfdeeu+qjJB/G8QbOIanmMGxSVjghijST7mCLVh4MHcwnYeDH8Hpycovv8AG9Kz2VUtSsgmsyqGnqbZM3c4WTczp6xYQJxvl4YIEYI1Y4PfYoUoIIdaL4sGqbFEZZ7OmVLnLHZrl+y9zWvlbqTaw1HvaoVxQxWqZemGij5TFvHBGljE41Np2uJCCKDhcGKCDV7gj8i0M1Z5Rm+84Y7i8XqYPbnIraihMwT/ADOOp/M57UbnBwphvyUyNpBBG44EcccUtlzZd3FCl2uCJ0o4ihTxj+NHERabfFOmnSTO3z6I96bXcorwMYWIiMoy6/jM+vZl0sipawGT6KQ1TZ+iLFW0xlTl6nhWdMSqmpbsHC+pAtBg9bwQ6sSurqRQ7SHW7iI+8htnFyiIeecrlMxOfR7mSSGQ2go2VtbDyKVU7KGsUrcYy2i2SCCEGLGHUgW2TSD7xDt4IYtWHV7Z+OS44kRxYRaqqqpmqZzmXWYZbcusOFMOcMv9FYK0ZhuUfhhSTX+APd2n1H2n6k7Z7va9X3TzyHDzMbI2dHRs9T7zlcZz2zt6fT625VNGWEzBSx3S1a0hR9fNZK+UYvJZNGDSaQMHepwkYoY9bYq6sfCh7rVjPtX0GOjblk8xOOt85w/aoy/ZfK9ayKVVpYekJuzpXCDCmUZpTLRdOUYQ6mrvWCOD6n1dSD3vV97gFWB0MxGcPtNxx9PRLNCYhOv0dtf6QLrDT1rafL5aeqqdRu/XScsnVX3zmsrfqwQ1NMoNSNqjTT2FKFP3U4NVxF2tODue5w4PfNl1xPrl2qyzHN2hn0J/64+lK5G1gvGWnnoaV6yOuPpSuRtYLxlp56GgfjivtJ3uYYIZP7CKYcH3Vcxs5T4XxvrUdF8b/rAdcnSlcjSwfjKzz0NA8yNJ/e/PzIbVX+onLbSFITJKaURU+F9aQpS+M4rWRU60VYuOqbmPF/TrJKSvoEY11YGaUxR2kXC3kv8AWAp36is40mvuYGadOSMD6fQAAAAAAAAAAAAAAAAAAAh3SFfAGvhzPVL0U6AkC0n2raZ/zfZf1eADIgAAAAAAV9yb/CQzXc/sv+j2jALBAAAAAAAAAAAAAAAAAAAAAAAAAAAAAAAAAAAAAAAAAAAAAAAAAAAAAAAAAAAAABAGif4rPLVzAUb0GzA0aKLiuMs/MDRvQTUCwQACCdKRxZmYrmIq/oZ2BNUp+xDX8yn+zADmAAAHzSerZvh7Wn5osOlHgHtzoUOKLy6c0Ml/qsAFogAADhtGDOW4RYNGKKW2cRqrYpYfXUi92KL8rEDzhoSn4rcX6vdZJ62wSeye7czqFLcw/jLCex9WEXMP4u1dOkNb8I0WOscDcRFVqycy4W05Y6GdG4NQdFc506a28qB21ebFZGRPFUVkPfEo9hGeJjYlPNCk7wVdU1h6chslmtuJPVZ7bWmcboTrCvnzxanqhcT2WIpQbu2/gtzGktMYY2yez2iaEEUUPxzRYxWei2Vz6W41UzGNynQ9H2P6pgqqW1XNc0DTLy1vbcRnSyN45fKVkWNxZrvpSWw0bG83tv3fO+dRRxBtIotptIouFraxaZZ3X6Pb09v/ACq2apnA8r/5Oz/N7Oj2dCMJnUdzJG0pa4dLXTqeZXJl1nrlymgHszq18u4mTuWzmBFDcb6+rMXMLTaKxYRJqKKbCBRSFWJGAq8pjo+1lUsqp405z919Jo/Ox3dD3buBhZquXNN5kE31uk6ipBOoZxSN3p5VqlPMVVtScLYT19LkIm+s12ESqaK0UTHty24hrQkiMXPFnbs2fzZ+/L+jxVo548ZRtnt0UR7ond29krD6NPCgsJDdlzaurXtSU6reJ6pJ5+9m0b9R8jFLpfw99LcJ3D8heKKLaQ8LaK90W1lyyry6FPc4qirQ57JWZL9r7iTWbSmnpUtNps8QZs2aCir1dfuEk4O7jiPEzERmlJh0TVIzKl8idK1DN5Kqxd1xNJ3W0TRVDZqJpzycPZq3gUh+5FA3doQRbvCw1OF7pwLHYrlVyqmXacFTlgtGs0R0kAAAK56U2VSyU6K7Ms2lTJBvBjYqtlYoUcMIe2Ryd6pHF7nxoo92LEDwO9RWcaTX3MDNOnJGB9PoAAAAAAAAAAAAAAAAAAAUv01Tq5ls8ptVX6od/Nnshl9BVBT1waWQcY4t3MpmjFRtBMNl3OCrN3vRWJTusGuLvDdAz3RvTa5lxrH45jrhTqZ71r/Fs9oWnHGMe95PTqLdNtL44Ud3gKuk4N/q/G+q8E/vQFkwAAAAAAV9yb/CQzXc/sv+j2jALBAAAAAAAAAAAAAAAAAAABtgU8uPpPp3WM/eUnkjtEyrhoyXxbPLlVVOMZfTWCkHdbyiRSVXmmrF9eJOFNvj8VwX9v4OXLH05xGSlx18wOBj60sMhzMaUd1BvqO8thmeP3W+Fk544wT/AOd9dCev/wBnCX3/AJfbP7153tdjh3REfcT59jT7JLSi/PxYXwBzz0rMuosfifdD7r1o/wAPO/5HsktKL8/FhfAHPPSsaix+J90GvWj/AA87/keyS0ovz8WF8Ac89KxqLH4n3Qa9aP8ADzv+R7JLSi/PxYXwBzz0rGosfifdBr1o/wAPO/5HsktKL8/FhfAHPPSsaix+J90GvWj/AA87/keyS0ovz8WF8Ac89KxqLH4n3Qa9aP8ADzv+R7JLSi/PxYXwBzz0rGosfifdBr1o/wAPO/5HsktKL8/FhfAHPPSsaix+J90GvWj/AA87/keyS0ovz8WF8Ac89KxqLH4n3Qa9aP8ADzv+T89k3pQ/n6sP4BJ56Vj/AMvv/qfdH6vOvdH4ed/yd5TWkRzX2shwc5j7ByKtpBhj9WT+zm3gmTbD5fUR5GrEsn/LsXai3yEVSpxnA+6YXbT9ZZ4ThXbtL9r9mtraa71t722/ld0rUVkwn9PzlvgvLpixixxTU933cPrbsEUMW7DFDFuRQRYYwxYYRYY4GptqZYAAAAAAAAAAAAAAAAAAAAAAAAQBon+Kzy1cwFG9BswNGii4rjLPzA0b0E1AsEAAgnSkcWZmK5iKv6GdgTVKfsQ1/Mp/swA5gAAB80nq2b4e1p+aLDpR4B7c6FDii8unNDJf6rABaIAAAAVlzy5Ra1udPJdmYy9by65NNStSWrSp842DSq5Lipto5Yur95VTW7a2X+9qa8MXa3Cu5cWi61W7S5x0K64YKnG4biq003mathOZ/wBbKrXi1DVqj/HaErnDqXNkvyUo/wCMJfJXbRKIxfFUiOpYO8W24dEuZY633DARsZzNZS1m0pWlM27czeoKJLI/4OMu+mVW4NE0TT9s6Jk1vKHZ4s5PT8qbsZWyxcKKbNBJPUhg149aKPVg+VwjBERHU9RGUZO1JSGAAAGOV9dS1NoJDhP7sXIklNS9LHcwdzycIM4Mcf58ZExGJpozmdiZTTMy49qbGVppCHyEtnFBzan7FYrYRVO+qJgozd18nBjh/B7VqrqqoyxT7+5Uhh3wn2tGGJNXFU57wl4SUYqJwVEN+sNinR1cq0/S9FsMMEMMG7eH/wDQ0RuTdAAAAFfdK7xXGZjmBrLoJ0B4CeorONJr7mBmnTkjA+n0AAAAAAAAAAAAAAAAAAAKJZ080U4zRTSfZOsuU13pSaG3lF27kNOFqe5im4kEs3eDE6iwx1HLnuWsOOKcP1Rj9T7Jwc4OcvjOfstevl8i3RlH3jvMl2b2p7Y1PJsmmaucYLOlccGVsLg44JwIVMhBBhs5Y71OCjM04fyU3ScG0T4W1Shx3qy126rOOiWWzXqm40/W+8XRNfXgBENnc4lo713CuNbSn1nrN3bOaYNpy8micDdq9T4cCjprHrxbRBNwg7bRxxauqs0V9zV1YsQ14Z6skmNo0b/ezMtbjQq016mJVrhX8t6kqPtzd3rvvbbHa7n3vW1gO9d5k8u8ruvLbEzS/dEo11OmO/JPRitTtIJs+a7kceCyLTX2yqerBHwoYcYeBEBGl4dKTkMsvaCqrzOsztE1BLqKQl6lQMaTrGWvnjbB7HBA11oN8w4QbXX3YNpFDrQ4a2H1gO/xqLKplAmNb3vuXmEpulWl2KoTqh3M6xq5izYxrISOVyv6kjV2eGKW9ZW2ViwxiU4akcWtq4wQwhza3zrZYKMWbSLC99HTKeu0Ze5YU8yrqUJP3TR2uhAk6TgcvEcI0NxaCPW1u2QdxgpFFDBGGN3f0mORu0NvbgXEdZnKJnittqfcTaqafpqsJa8mjZBGPY6m98HGGqpE4x2EOCmrhto8E/cxxA5uOkNydS+lFq3rzMTQFGyPfuyZTOq6/krdB/BsGq22SigeRbkO49a8FTZqdsgx1NVVKKMMsqnNZlhoStpTbauMytByaop8im4p6n5rV7Fu+maCsexSUboqLYKLQxq8GGKHDhRcECSAAAAAAAAAAAAAAAKcaT648/rGd0hkjpOcrsmlcMnk8uU8ZY7NTCmmmKKMUv1u6g384XgSix+63Qdwl/wct9OPuURPUpb5jowOBmph8qlUqlUqRlMpZos2bNFNJkyQb7OBJODuIIIPiQwnZYjLZDk7fMiKg6srsX/uVfWprIZeHVHyFKh5U0c1BUFcUy7me/X73XjRZoJNnbTZbNKDaxrxRKe/wQwp90VOd0437PqW8TbMp5V593u8zhtZ6QO4FmLiLSi92XCdIMpbathVVSs6X3q/cU/jvt0i9WVcROU0nDVLYwasKMMTiLutn3cEEabjMdMJNNuiqqYz2enz8vSzh1nltRjdL1gNKSqh5KPXWzpl7XKMvR6jMZy4Q2yTBX6o3zrRa6EG03vsYVF4E4lNYlRcPr5ZbO1FnARxc8/Z52e/P0MauZn6hZ2wntxLX2gqHGXNNT1vVnUcng6hTuDqsgwcbONs426Pv/a98Qttt75BtYSJicflE5Qlxb4yic/Zt2e7Lcligb60nciiJxc6QU3NfW3LMFOps5W2GwniCUHDcsu3a0aHxYFVIU9pu7RPWTjhVjtKcTExM+fPnoVk0ZI5tfpC7fXQkPV6WWTuZLYndEQVVSbB7IEVHlUy2JSBPWZJNnK8WtDEshDjCtsdXbwKe99tK6m8UV9MefPb+SXXbJo6ens7PR2bpmG/Fnro/CTTJKa2OrtpV0trFnSvW6W6lqTV8/cNIHiOyVRfRMtlvXt8SsTqGFOFOPW4Rli7xEZ8WfVs/XLrJtlH0nF48Zdu3L8s/c6tnpIrYzalms0pixdyptOFYZ4rM6SZyhjjMpa0lTnej1y4gVdpp6uDjgQpJqKLKfETiPM3inpylmi259M5eejZn8uvJlFJ5z6HuDXjWlrZ2vq+pZSrjL8HlYyOXtep0tjmDSBy3xcQxOIXvCSjQiiVTbxJp7ftikPC1PfLomrKInL3efYwRbqZomrjR6tuf5Ze9MZbqcA6bLrW7rKvnHkUslEcTehL1TRSWVDLIY9xBjVMLdRw0mcHycXSTWNmt+EU3nF3Wtr824Z2iInl0Og8Erhs5K9CTQG9gAAAAAAAAAAAAAAAAAAAAAACANE/xWeWrmAo3oNmBo0UXFcZZ+YGjegmoFggAEE6UjizMxXMRV/QzsCapT9iGv5lP9mAHMAAAPmk9WzfD2tPzRYdKPAPbnQocUXl05oZL/VYALRAAAAABitzLOWgvZT3rVvHaam6rlX18JZVNPoTBDDH80tBFCBE/YotFx3s+wPgbkXkwDsUWi472fYHwNyLyYB2KLRcd7PsD4G5F5MA7FFouO9n2B8Dci8mAdii0XHez7A+BuReTAOxRaLjvZ9gfA3IvJgMotxkcyWWhqdGs7T5PbWUrOUNnA3mtO0BLmbpOFKHVg1VUUYY9yGHg4e7wQJaAAAAAABX3Su8VxmY5gay6CdAeAnqKzjSa+5gZp05IwPp9AAAAAAAAAAAAAAAAAAFGs3mbyqswFVTnKxlYrJaTyKTrRsLqXUlK/Dax/fZHJ1f7c+K4dw/xT3uD6p/i+w8GuDUXCI2fu/5+fblm16+Xym205R96xui6LpS2lKS23tvabRk0nkyO9pZLGXAgTghOw6DQU0U+hy+qqZlsXNtlRF3KIeW8uHJt+S5578j72ompDw4Fko4OEiqnHwoFYeEnFwoTHVTGkh9mIwUZSkXJznGrOhqzlmULN7Uu+5o7+prbXJfdrTqpOH/AO73vxUpsnBufiuoe2J8PapQ8cvVlm3T/wArqtmvNFwpyn7a2FXOKmhpWZY0LixxnG8F8JX1UcYpt8Hep2rbRQwxxQwa+5rasMWO5u+4Ui7UKmmihvinbVGjF89z2olajtTP6IuJ68JdKIGLLCZIRuo3kvglstaLudWaYYxaj1xHjsV3HbNp3YZBP8uObqbVLTOYh1bjLMzrOk5m8RRoRlUr9OUzho6kiMs3y+nHUvarOU8U+AlvDVhbY732n30DDae0a1YU5mcRuVUNT2yfU86qqmqpeLyS5tVSRrTz6VSpqzxZy+lGbzCWOE9dknvZdw41m6a+KaiLqFKDCMIctFkXzK5g8jVJyeqWtpLaO6atA/p2lJbMKgdtn83dO59LplFHN0Y2EPUz7F/e9+xKKO41uD3AFms9Fwp5XGZrL7UWXSWW0r2e0RV1QpVQznlXxpyinl3FOcDfb5szdxMVNV0jsto27ZCvBDwNrrARjZ/RwzC1Fpaot27zG2rXeTuS21bIPUagxQgSUp+Zb8fwampFqocPVbQ8Ld9zX2QHDrPR4TGocv69qmmYizqM3jpe7stxe+unDU29VTTfkux1tjr6sMPuL/dhi7jagd/ReUtw0v2jeG4N/rK7JVxVrl9LEK5wcbOObU3JZZDBBFG2T19VWXOsVIuD2pSDch4cUEAQDX0jjsvW1IZUqeqqja4eVKvaCOqKhxRnODenVKZWbYON7zPqd1KjZ7JrGvDio/bOE41Fod7qqKwwgetHsn8t3KIob9bGf+0A2fZa5WOUzb39cmP+2A2/ZeZUOVJbv9c2H+1A2vZj5QuVfbb9eWH+2A2vZu5LuV9a/wDX+W/7YDZ9nNkl5Y1q/CFLP9sBsez7yKctG0fhJln+3A2uyB5B+W7Z3wkSrygDb7Ito/OXRZzwnynykDZ7JVo6+XtZfwoSnygDb7Jlo3u+EWR8K8m8oA2eykaMzvitiPC7JvKQIdvvps8n9k6raVFIsyFkq+oPBlj1ZWpK+sixqGWO9oprRwy5Zwmm8bamz96X3xDw9VFUCH1M0mX7OjngqW+WXC6TCsKWWsLRUMtmTDBTDYqKzmq8VoI0o8IVElO0oaySkMMXcf3jfuAE7a4aFw6pyo0M+mUkHSmgAEOV1l7ujDeGc3vy+3sktHTeppEhLKtY1DRUc7aPcWmvvR6lCk+aRJOk4I40taKJRNSHU7XwCnxOCrjbgpiJ8+fzW+jx9ETPLYmfb8pdDP8AIy6n8irGn3N7ZpMlqrtFBQ606njDfjvX2j2OOYKx66cK0UW+veIYU4YdTg8Ex8g7Z6snyrH5xOXiMeY6M2jZRfpK9DOY0KqzWqNnUMzWmlpJbMJ/vpJCCDFBrOHMUW920UaECurveJZOLX2ayWvwMHM8TcuPH5dfn5JvOsxa+LnO/Zl6m69yDV46s5MMtUwzJtFLb+6nIKaxoJDFeBDqmi8wgfuI3EW+9nBBsINim0h1Y+2wqHuLNP3ef1fV5zeJuNPFjExH7br85fGUn0TYl3ai2Nc27pKcb8k8zWmDmlpJvfZ9R99p8NlCtr8NLfGvFBwYdnCps+5gLHk1MRkhxMq/0Do3Lt1tlzk1G5gr7pN59LLPs6Rk7JhTXaJOhtGzp2jMfq5SGbbSJqg3V2cTdNRHXw1e26xSxZpnRZTPn4raLlTy6Jy9e309XZ7+30Pya5Cqyy8Uk6riy0slsxqzC4kvqinpbbS2krlkqk7mCXYsV8MZe8m7RKNqs318Mdx5viFRfW2kR4iz830Z07Z9XX0dGfxZIudFy0kRVsp9c9Hryn1bI9jrab0YtaXMtfI6su+rQiNwMVajUmaVwbZsaqaN0ZpNY30GMLfFwmgk+R4HbE1FkfdWT7fDqxH3mKaqYz6fTGZHCGnR1TETOXonLb2+cvYlf2Cm5dqkK+64FMdT6PTlcEnW62TBnUbJuxT1N5NZqwiQhbsVvvrbesXBXWThihTighgmczZ1+r0bd6FFyiNHxYzzz7dm7L35+xYov2vAEYZr59KKMpGiK3qOapS5pJb5W6dLTN4thBA2Q9eMogcRxR49xDso49b8U1jhVlzPU2XgrGd60UeiUlSzT25KLnXUbUTY/MFZ9vTUrnWDerq7uhduW02hgjBHhviCXMV49/Pl9zWwwiUQbNd3hQrqdycedXTn2V3Rcd8wsD4ZJF5SA7K7ouu+S2B8Mkj8pA19lY0W3fJrBeGCR+UgOyvaLnvkdhPDBJfKQHZXtFz3yOwnhgkvlIGrsq2jC75BYTwvyXykB2VbRhd8gsJ4X5L5SA7Ktowu+QWE8L8l8pAdlW0YXfILCeF+S+UgauyqaMHvj1hfDBJfKQP3sqOjF74zYjwuybykB2VHRi98ZsR4XZN5SA7KPow++LWJ8Lsm8pA1dlH0ZvfFbE+F6TeUgOyj6M3vitifC9JvKQNXZSNGZ3xWxHhdk3lIGa2YzPZaMyEcwgy95h6IrzGWYwYzPCjauZzTeet3O13srHqa2rjua398CQQAACANE/xWeWrmAo3oNmBo0UXFcZZ+YGjegmoFggAEE6UjizMxXMRV/QzsCapT9iGv5lP9mAHMAAAPmk9WzfD2tPzRYdKPAPbnQocUXl05oZL/AFWAC0QAAAAAAAAAAAAAAAAAAAAAFfdK7xXGZjmBrLoJ0B4CeorONJr7mBmnTkjA+n0AAAAAAAAAAAAAAAAAAeeeZHLtNtH5PZjdy1soVeWKmTxd9VEkb4a69vHaqm1VmDf40cpUVj2q6fdM4sNpD9T68CO58HOEk6P6mOanfbFOM/b4fpdo0dtJq0Rm0peIPGbxDaIrIdsgVgi7iOCP5J1GJiYc5bFQVBT9EU+8q2rZwhLJbLEFHL16+cbNBshBw444o4+4hhEzEQemWjLrk4hz3Omd6c1NC7lokMd80XbKoWH/AI14/Xgms4bq7v1L8ZsxU+vu7ZeHW1EkuT8I+EfL/wBno/sukWGwzgZ5RiPvVhexU6MLvb9hPBBJfJjU21N/sXOjN73XYnwRSbyYDX2M3Rr970sf4J5N5OBvdjY0cvIDst4KpT5MBu9jm0enINsv4L5T5MBB+U7IzkpnN/MzMpm+T21q7eS3xl7WUIr2/lqkDFDGg6UX2CWGKPa4ds4XV1YdzDWUji+vGBPfsBMinIutH4NpZ/sAN/2CWSLkb2q8Hkt/2IGv2EeS7khWv8H8t/2IG97C3JzyT7bfqKw/2IG97D/KXyW7c/qQw/2IG77ErKxyZre/qax/2IG57FjLNydqD/U9n/swN72NuXj5gKL/AFVZ/wDyAb3se7B/MZSX6ttP/kA3OsVY75m6U/V1v/8AIBv9ZaznzUUz+hG//wAgG71pLW/NnT/6Gb//ACAbvW4t9/5ASP8ARyX/AMgG76w6I/8AI6U/o9P/APIDc9aVI/8Ak0x/o0AG/wBQZN/ctv8A9hgBFN9MpErzE1Wz64116rSohGX4JvreU7MepbCcONfGLavXLbVeLJ6vB3rCtC3ih19qmrrAVNvBba31lNIlOqDtpQcqpqnlcv8ASKFPySRMIGbRJNlOao3xAkkjqQwau/mvc/LN94AZTyr2ND4dfY0Hrlkp0tz8AAAKk5Us7N8J9Q9HYX5tHviKq5JPHNM1AxnzTfU3dSzXjjRcNNiggx2qW0iRV3xFDqp9t2Gua7grvNcZVw2G4W2mI2TnPnz+rpJVpJ6tuw7hpKhnNCsZjLqxojfszt7cNpVzFRjNJrvZZkq43ojsnUMKMetDDDF3cESahHovPLNke7al6e1Tocss/bGXr7fPY7qPShtmdc1bRzm31Fu1ZHR9STxGW09dxpN5o26j6m42mjVs21Zcotre5qrONXhwxcIkc+U8aYyjZ6fz7EWrg7lRFUZ7fRs9GU9fu9rtpbpBa4lWD6QXKy4s5RUjhjS7mjZUyrXfaMyxnrtZs0RdK70T3iomqj2/VTcQww9xip3J6i8Ttzj39P6PlVu0cRExPr2dHvymPb7I2Z8S+ukfn+XZSVUjdS01GU5WjuWTSbupbVF42kslSzBqpqYbwmCrT6rXc6/akFEW/wAfX2fx/mPvHN8ZVRGfXt/Kf6PVvtlNxmcs8urZuz27M/XOXpWNtVcmQ3etrTd1qWgXwl9SyRpMpZgv75gg4ggWh1/xuGW9ExVTn2qmYmJyl35KQgABHWYRHqhjbSQNsdq7md+re4IJfhN61VK36v8Aot2q8X8w1nhVP9kVQ2TgrOV60c+iVvJVkVttbS5ja5eW2pZ1a2KObYPanpijok8KdqKDXwiVTcStaCJsiqphr7rlpAg4iix1o1I+5OOusJ1AAAG9UfkAN6o/IA/N6Nv7XwA071bf2ph/1AN5Nf7VR/6gG8mv9qo/9QDeTX+1Uf8AqA09SpV/aSX+iA6ly7+0EP8AsMAHUuXf2gh/2GAGjqTKP7lI/wBHwAdSZR/cpH+j4AOpMo/uUj/R8AIFt40atdKTdXBs2wT/APAFQHu4f5crMCwwAABAGif4rPLVzAUb0GzA0aKLiuMs/MDRvQTUCwQACCdKRxZmYrmIq/oZ2BNUp+xDX8yn+zADmAAAHzSerZvh7Wn5osOlHgHtzoUOKLy6c0Ml/qsAFogAAABWjNLnwcWwrZWwmXqhG9c3GRQTWnSK0w3pKaVQWw7StMnGEKkW0j7pNmjDEspDwotknFgsWOCtOluFWxAxuPwuBjagWY1hpA6xixnFWZ+plTiuP9g2zoCn2bBP8nqw0mi+P/aG/YfgVbMtsz7Gl6242J+zEtvdzr98/vD+qNCejR91JtfbU+a343s0e+f1N3Ov3z+8P6o0J6NDUm19tRrfjezR75/U3c6/fP7w/qjQno0NSbX21Gt+N7NHvn9Tdzr98/vD+qNCejQ1JtfbUa343s0e+f1N3Ov3z+8P6o0J6NDUm19tRrfjezR75/U3c6/fP7w/qjQno0NSbX21Gt+N7NHvn9SOLOy2x1mek3uopj9xF7SND7P+dq06nF/3oT5HAq1ZZ5yTwux3Zo98slo3P1mly8L4Oc1FOSu4VBo4YYTOtaHkC7KeyaD8O6leEa8MxSh7qNRpEmpDD3LVU1y7cDq8FHG0c8aFzb+FuDxsft/2a6lEV1SNyqRllxaCqNlN5DOWKb2TTWWL4LoPUFINeBZOODuoYocTU21u8AAAAFfdK7xXGZjmBrLoJ0B4CeorONJr7mBmnTkjA+n0AAAAAAAAAAAAAAAAAAbWOGC+GLdxD/8AqB57Zk8uzvR4und3bWyhd7YRdZR1UNOscNdS3CkfdvWkHx5N8ZVvD/E/fE/qfXgR3Hgzwn5DHI8ZPS1O+2Llv7xh+l2mVXK9M86M0k+ZTMBTqzK1zRZOZW+oaaoYJqVMpDwkZzNUv7X++tWcX193fC3u7JJKNwl4Tc4ROj0c/sHuw2HkX7ziPvl+jV20gAAAAAV9yb/CQzXc/sv+j2jALBAAAAAAAAAAAAAAAAAAABVbSQ2IrSpUaVzSWbppxOaptrE7TnVOsIfqueU072fVBshB99dJxtmrpCD75E1jRh/jBb2K7RbrlCovVv5wwMwh+3twqIuXSctuJbypkJnJ5mhtGT1j3Cn/AO6HuYoe6hi4MR2aJjFUuTZ5dDuSWhgACutK6MexMqpRSiJ/XdbVJI29PTiSSWTTx+01JGhNfshGhE2bJqbVX5S0Smzh4KWzhKDmeiOmWwc57OhypLo+7do1D67apvTXtUTbDGQY4O50vLdzBOTvo3jGDZNGKKcEGtHqx6uEOtD/AIThmeLRFPTM+3LqRq7lFczlER6vnnO+XAlujStRLZTDTy93riOpOypWd01T8seP5bsJRLZru74SQ2TOGKLV1INRRbbKfKUihI1Nnpz6Z8+fWlVXLOMoiI8+n+jK69ySWpr126mruo6iaTFSSSOWMpkzfoa8tjk7tZ4xeN9dGKHbwqrcLaQqIxdzinq6xLnAxPaiRj8qs5jNwJpkdYzVJrOmuZy68sq5NGYNnlcMZwy6ozFo7U11WsUKzGJo2Shigg2W9G6Ox2fatXWi1/nN+yPrzn2+Y+D1FyiJmeTx79nv/VMlPSlrT1PM6daPXyyLJBNsis+mCjhdXU/CrLayq0XyoootaIs8phBiMtjnmRFAAHEyZUE5zZ5k5RmQaQ4q2wthg8wpKbY+91NUqsEbNZy3/DM2beN2hCr3Kjl1Hs/4oco4ZXajHTyCnodQ4LW2MHROI7V+zTm2AAAAAAAAAAAAAAAAAAAr9b/jSrq8wVA9OVmBYEAAAgDRP8Vnlq5gKN6DZgaNFFxXGWfmBo3oJqBYIABBOlI4szMVzEVf0M7AmqU/Yhr+ZT/ZgBzAAAD5pPVs3w9rT80WHSjwD250KHFF5dOaGS/1WAC0QAABFecq/wDhlfyuVvfVrK0ZjMZDIlMZLLVscdR7MldxFi2i3PuLOlEEv+cPcRtFAJ+69hxlGqq4DnH11z6QSR/UtTzR97/UM6xg2rhyrH/hlf8As09ROHgwQna8NhosNsnLq+LkFVUX7HsUnM5zG5cJpbqtq+v+8rxnWNUtJHV1PPZDLmjWWrvoI9itK97JJroppuNSHZulnUUSKndbSDWMcRptDMTM55+dnmWWurAY/ZTTlv8Af8ohiVK6TydNqIb3XvVlvxpumZpbacVlIHcrq3f7pyhLVEYFUV0ImjaFKJTbQRJRQqKQxQ93szxF97Y2et81fpmmMp29mX5dvu9rvrE6Taw9zFKpTu/dC1VH405hK9rOZLdpjN5G6geprbKDqhFC21HMMSK8MaESfxNaGKKGMYK+aGqPr5b324cHcdNWVGc5+j+rlVhm7r+WXwmVPWqlTOsYJzUUrpWi5M8mybBipMupq84mL1V7A3WU2ELKNDV2aamtFBqwp/GPU4+Yn6vqeabfE1fWzy3/AKMOspnlzFOrbSin47QMq2uArDWU4nTJ7U6EoQZSqVTxZnA2hVbNFN8OfeEEu1wpqakUUa0JFi86XLbtlK5ut89Ozz5/Rm8g0iUhrSgZzcylLarLS5lUVISyV79mGwjdIT2CXRwrRQ7GLYxI9Ufe+FrandQ65Mi4RlnEdiFyBhlo87l/MJJi2uxQyPUqf1vWdP0xXWE2Q31g+l60xWbwxy+FvCnA22DWNLBbbRKRKIdsT4WseMLj6+uNm3zkyVYDR8Xp2+7f05+z2scofS1yGn5fRdGXDcUzNJlDKqUb1o+mleNZZPHT6btWq2KzCT7L6uQT30hErFtEdXh6kKmyIkcJaImNkeexKo4OZ6OZnPOPRs9OfZ71u7b3xszebqh1obvUvVXUlTBCcet2fIP95LY/WhU2UcWyi/FiNgproqzymJUdejroy40TGcZxn1x2x6Gb6NqrV7O5haxyhYuf+Cs+kcdeW9luGHAlce+4G07ZJQ/EQ3w6YuoYfwkyc/F1TlfDDB04G5caP5nSOC2P5db/APRsXhNWbKAAAFfdK7xXGZjmBrLoJ0B4CeorONJr7mBmnTkjA+n0AAAAAAAAAAAAAAAAAAAId0hXwBr4cz1S9FOgJAtJ9q2mf832X9XgAyIAAAAAAFfcm/wkM13P7L/o9owCwQAAAAAAAAAAAAAAAAAAAAKyXx0Z1pbh1pMrv2bryobVVjOV8XM8mdIRIKMZ2v8AhH0ucwKNllPr7q6cKTiLd91Yn4O8XK3U/ucq/HW/BY6P3mEewaO/Pk24LbPLauJP+V9l7mMa2P5USNUJw/6MMJsc8M7rPVCkjgpbcumve1dj4z+8uSzvi5zT0sGud17I3Puqds7a9/yOx8Z/eXJZ3xc5p6WDXO69kbjVO2dte/5HY+M/vLks74uc09LBrndeyNxqnbO2vf8AI7Hxn95clnfFzmnpYNc7r2RuNU7Z217/AJI+uDlsz+0Ne+3dl483dnnvr/xm+HVSGws0T3hvJpgt3Hro7dtN3V7qHV/vmLXK69WT1qnbe2vekHsfGf3lyWd8XOaelhl1zuvZG551TtnbXv8Akdj4z+8uSzvi5zT0sGud17I3Gqds7a9/yOx8Z/eXJZ3xc5p6WDXO69kbjVO2dte/5HY+M/vLks74uc09LBrndeyNxqnbO2vf8n52PbP7y5bReLpNPSw+65XTspedVLZ2173bUxooUqyxw9mHmRnlxZZu4baipJKE6bp9zu/ccIoRqu3MP+BUdxIxdzGnGVmO4S3PHbJlZYGx4HARshbSTyeUU1KGdO07J0GbFmgm3ZMmSGCaKCMGGEEMEEMGGrDBDBubkP8A+Rr66dkAAAAAAAAAAAAAAAAAAAFfrf8AGlXV5gqB6crMCwIAABAGif4rPLVzAUb0GzA0aKLiuMs/MDRvQTUCwQACCdKRxZmYrmIq/oZ2BNUp+xDX8yn+zADmAAAHzSerZvh7Wn5osOlHgHqZojc+9jaA0X9iKKqChL1rPZZa6Utl1pHluriZtI44W0GG6i7ZyhVBzB/IokpFDF8WICx3ZJ8u3zcX88VG4PmIB2SfLt83F/PFRuD5iAxe6mkRoWfUFMZTZ1leeQVTjhBjK5tOsmtw5i0SjhUwjxhWbwShGJVOKHdgx1VE4sNfWwiw9wCn+YrS30vmutpO8m9cWeq6m7jU5ci2bqarYUVPGsmdNYq4kfD/AIVYtHjKJT3e1OW0Kf1oIFl8cfdsbTGd0p9avx/9w03+hNdWU9T1b09M6Sq2ToPZbM2KjaaMl/e3SCsGpHBH+VAdvyiYcfmImMpRXR+T2nKZqqn5rVl568rCXUltPWZT9UP2sbSSKamx14YkW6bl2qmlHsk1HizhSHutbacMg4XARRtmc0zS3KK4jZET6M9vvy3RDhYZArFQ0TTVvJo9nkzk9M0DNKQRRXfJ/VLF7vXaxqxowQxbX6lg1Ik9nqn2MBTMQxxjsoyZnZ6yEytJHMXk8vjXdcuplC2w31WswbY4NkUU9SFJu3at27ZHd+Mpsdsp8dSLVhM2Ews6KNtUz6/0iI/Vj02lp0k5xTFPqz+Mz+jH6lyi0RO6XRlkrrqqJHN2dcPKrllWSxw16pMpk4jX2urvhuohGlsl42uyURU7Twe64RinARVTslmouEU1ZzGfr+WTF4dHRbJnRUopOlr03KkTuXN541WqeVzZrhMpkxmrrfb1s4jcM1E9XFXhQqQpwrJ6nAUh4RDmz0d5Li55ROcZ+enzs7cya6N2yjuaJYUpXVX03TqS9OOV6Nkj9rjLlXclwRwZLdubKrcFJFBOOGFaFNSGDhQ7ThjmenPZm+c5Tl0e3zs92bkUZo/bT0xPOqcVx62nMuZzSdzeS0zNH7XBjLJjNYlsHbxLUbwrbXUcrJwQqKKJpwx+97ThkjmminbM+fPuR6rnxo2xt8+z3Ztykcg1EW8cSmG3t6rhyGUtUJOlOpBJJ+i3RqCOWIQIt1nSsDbfMEWyRQhV3usimtCnqxwxQnrkEZxtmPOx8ouMUUzGUTn19nw3xPoyTwWyoYI0vNRdhdIFays61k9XvGi1vqzY7Cj6DnFRuuEtIY/4rKm7lfZcD33Z6vccI5xw3n9nhpj0uhcEf8darsk+Xb5uL+eKjcHzEc+b0dkny7fNxfzxUbg+YgHZJ8u3zcX88VG4PmIB2SfLt83F/PFRuD5iApTpedJhWFPZRr5yymqQq+e29re106kCLOqsutd0s+plw7larPBbqi8lG8XiMSsevs1t6Yp7sXblNyGHAPNn1FZxpNfcwM06ckYH0+gAAAAAAAAAAAAAAAAAABDukK+ANfDmeqXop0BIFpPtW0z/AJvsv6vABkQAAAAAAK+5N/hIZruf2X/R7RgFggAAAAAAAAAAAAAAAAAAAAAAAAAAAV+zDfDry6f46u6LTAsCAAAAAAAAAAAAAAAAAAAAAAAAAAACv1v+NKurzBUD05WYFgQAACANE/xWeWrmAo3oNmBo0UXFcZZ+YGjegmoFggAEE6UjizMxXMRV/QzsCapT9iGv5lP9mAHMAAAPmk9WzfD2tPzRYdKPAPbnQocUXl05oZL/AFWAC0QADFLs2ylV36BmNtZ5OJ5LZdM4IE3q9Nz1xLHmMGvhHFBA6bRQrJa+5qxRJxQxascXC90CsOkVsZarLzo3J5T1krayemqcpSt6RqmZMpJL4EE9hL6qlUyeuVMcO7U2LZZSNWLhRbmtFETrVP8AalE+etFx85YLSeqWMHenDQABAOb++19bMVVKsaJhkcnpuGTOHcyqipKMnE6Y78gUT+ol1ZXH/AyGy11Y37iFRFP5PAKjH4+cHll1+ifh0euVxbbfFeecdEdsR+fT6o27mAs8zl9qqvrUGX2zvrVaTGZ1xPdyoajimU0aJS2XymTrYQJJb8h1FFlpjBubJRNFOHXU2MURH5dVNWUMsYD60+er9fOc5ortRn/zMUlZejaLpKm5lWU8pq1Ehnc/3xQlRVK/qp27UW1maT+W60MrU2LWPVcvYVNpFH73DDBGVMXe5xTFOWfsmc/PpXPNlvrmqqMt8R7v0SPem/mYu4FdoOqJqGW0zQ1KX6pilXktQRfN5zM9aNks4ijcbWFPYRb62e9Njwoe2bb70TMVjtNNWzozQ4wFv4nRt4nsy9Xz9i5JtLVQABw8vTZxP9JtRTRrhrY0/aGqn8zV3Pe98P5Ig3h/n6jrV/MRnNOG2XFwvt/J0Lgj/jr+GhN6AAAClulrykWKn2TLMfmSrikI6mqlnYOrOoEdSTBZ+1p3FKQOYdpLWi0eKDBSLc4a6CcK0evwlNX6weKnqKzjSa+5gZp05IwPp9AAAAAAAAAAAAAAAAAAACG9IX8Aa9/M7UvRLoCQrSfatpn/ADfZf1eADIgAAAAAAV9yb/CQzXc/sv8Ao9owCwQAAAAAAAAAAAAAAAAAAAAAAAAAAAK/Zhvh15dP8dXdFpgWBAAAAAAAAAAAAAAAAAAAAAAAAAAABX63/GlXV5gqB6crMCwIAABAGif4rPLVzAUb0GzA0aKLiuMs/MDRvQTUCwQACCdKRxZmYrmIq/oZ2BNUp+xDX8yn+zADmAAAHzSerZvh7Wn5osOlHgHtzoUOKLy6c0Ml/qsAFogAADpK6omkbk0ROLZ11KEJhI6glTiWTiXL4cBy1XTxSVRi3PixQR4w/wDKB50yBnVOVmqmeUHMPN1sJqzw3tb2tHuPaK5liXvMcEfc9UUUuA6bd1rduTh2Kp1bg1e6bjGVX2nMr9Y+RR/lJBNyagAR9d7LVZS+c/a1Vcymna7trL+p+PUypZiwgfM9pr7zewtFU4XzbX+8uNon3fB4cZBqwNNUx/ROpuU0ZxGW3Z0RP59Hr6XBrPJ1l4r7beuCgHiKr2olKgXeSuppkwd7+jaQM1o4HDZympBCo3g2UaEMWzUh7qEwzgNCzxj8bG11MyyBZR5lIJJIHdq8E5fI5GhKGktaVNMWjVzLUFNskzepJOIYZi2Tj7lF1tk4dePg8OI8TaMP0ZdHnzm9xdLhGc9OfblP5/m7OqcmWW+tbpI3gqCgVVZ6lNmc03UJ8+btd/tP4u8iZQKwto3KcEGy20Se02fa9bZ8EkTgdDNXGeOcMdxeL8Iz39KUieqgDGLoXaoqzlKeuyt3e7tlt7SuVsUI3D+Zu4/emzVvB21yup8VJOHWIONxlODpzlMwGA5envR6ZbK4tjJKjzB32lEMuuDcnFoo9kmK8KnrZlDXBTqfJtrBwY409suuvFDwcXDtbCHWThgxOL3bHTcNNx5dgt+CjA4SNBCzhWrAAAAK+6V3iuMzHMDWXQToDwE9RWcaTX3MDNOnJGB9PoAAAAAAAAAAAAAAAAAAAQ3pC/gDXv5nal6JdASFaT7VtM/5vsv6vABkQAAAAAAK+5N/hIZruf2X/R7RgFggAAAAAAAAAAAAAAAAAAAAAAAAAAAV+zDfDry6f46u6LTAsCAAAAAAAAAAAAAAAAAAAAAAAAAAACv1v+NKurzBUD05WYFgQAACANE/xWeWrmAo3oNmBo0UXFcZZ+YGjegmoFggAEE6UjizMxXMRV/QzsCapT9iGv5lP9mAHMAAAPmk9WzfD2tPzRYdKPAPbnQocUXl05oZL/VYALRAAAADELw2UtRmEoJ1bC9NvJVUsiexYbaXTuXwOE8I4ccdVaDCPuFYfrwKQ7kUOPChxwArtMdEnb9pHi2tVm5vdRUu+8yllUEtnaSX96BWoZdMF/8A8QusNwlvGDjZX8VNNhstXToYbXYnZ13yW/f6Pof0ZM+tF677xqxYfAg7E7Ou+S37/R9D+jI1ovXfNWLD4EHYnZ13yW/f6Pof0ZGtF675qxYfAg7E7Ou+S37/AEfQ/oyNaL13zViw+BB2J2dd8lv3+j6H9GRrReu+asWHwIOxOzrvkt+/0fQ/oyNaL13zViw+BDTDooZmpBhg60jN/VUsfvW9qLS/7yNOQxYfzYj5rPee+9cwWWI+5hJmXvR85ZsuVVdc2m6Pez6tsG8bf191nN15xNU04t3XSQWcxRYM04vjJNoUU4vklRisXpMdOdcrHRYTC4OP2MZJzIySAAAACvuld4rjMxzA1l0E6A8BPUVnGk19zAzTpyRgfT6AAAAAAAAAAAAAAAAAAAEN6Qv4A17+Z2peiXQEhWk+1bTP+b7L+rwAZEAAAAAACvuTf4SGa7n9l/0e0YBYIAAAAAAAAAAAAAAAAAAAAAAAAAAAFfsw3w68un+Orui0wLAgAAAAAAAAAAAAAAAAAAAAAAAAAAAr9b/jSrq8wVA9OVmBYEAAAgDRP8Vnlq5gKN6DZgaNFFxXGWfmBo3oJqBYIABBOlI4szMVzEVf0M7AmqU/Yhr+ZT/ZgBzAAAD5pPVs3w9rT80WHSjwD250KHFF5dOaGS/1WAC0QAAAA6ar60pS39KTCuK5qWXyeUytnG5mM1m76Bu1aow91GorHuQwQ4fKiAqfUmlXntZOMcMqeUye1jLYse01dW04wpaSvfc+u22yK75aH7uCm8oU1MOEnFGbDgeDVyx0ZxGSlx18wOB6Zdf2QXPnyJLQ+MZNfRMnamXT0KzWq3dle5p7IPn95DdnfGMmnome9TLr2xve9bLZ2V7vmdkHz+8huzvjGTT0TGpl17Y3mtls7K93zOyD5/eQ3Z3xjJp6JjUy69sbzWy2dle75nZB8/vIbs74xk09ExqZde2N5rZbOyvd8zsg+f3kN2d8YyaeiY1MuvbG81stnZXu+bca6SXOTJosHVd5C6WeM8e6RoK92/3/APNSmUolqH+k4hMOpl2fZ4WW3qlOuWXOvYnNZDMZRb2cPpZVMnRTUqGhKpYYy+dSjCPc1I1W0e7jElF7mounioip8RSI1rE4TSYKZiqGw6LFUYmPqpiMCQAAAACvuld4rjMxzA1l0E6A8BPUVnGk19zAzTpyRgfT6AAAAAAAAAAAAAAAAAAAEN6Qv4A17+Z2peiXQEhWk+1bTP8Am+y/q8AGRAAAAAAAr7k3+Ehmu5/Zf9HtGAWCAAAAAAAAAAAAAAAAAAAAAAAAAAABX7MN8OvLp/jq7otMCwIAAAAAAAAAAAAAAAAAAAAAAAAAAAK/W/40q6vMFQPTlZgWBAAAIA0T/FZ5auYCjeg2YGjRRcVxln5gaN6CagWCAAQTpSOLMzFcxFX9DOwJqlP2Ia/mU/2YAcwAAA+aT1bN8Pa0/NFh0o8A9udChxReXTmhkv8AVYALRAAAADzxzVVT7NHNBNKDqDHa2ss7PUGqUl3d1rU1WQwQKrOXEP31CX68CSSUXB31tlIsdZulq7twNssVTy6Wl8Kr1GijksdMu+OpObgAAAAAAAGDXlthUFSrS251pZwjTNzqN+qaKqj8HH8Zk4/CsHHvS6HxoeFDqqQpRQUN3tNNx0exfW+4cgxu1d/KrmClOaHL9Sd+pTKVpb64JXio+krjHXWlj5KPFF2yV1eDtEHCa6EX4yZxV15JQAAAAr7pXeK4zMcwNZdBOgPAT1FZxpNfcwM06ckYH0+gAAAAAAAAAAAAAAAAAABDekL+ANe/mdqXol0BIVpPtW0z/m+y/q8AGRAAAAAAAr7k3+Ehmu5/Zf8AR7RgFggAAAAAAAAAAAAAAAAAAAAAAAAAAAV+zDfDry6f46u6LTAsCAAAAAAAAAAAAAAAAAAAAAAAAAAACv1v+NKurzBUD05WYFgQAACANE/xWeWrmAo3oNmBo0UXFcZZ+YGjegmoFggAEE6UjizMxXMRV/QzsCapT9iGv5lP9mAHMAAAPmk9WzfD2tPzRYdKPAPbnQocUXl05oZL/VYALRAAAEFNM9trqcub1pcwdNTy083eTWNtTq9doooS2odyLHZbymKMarNVWOHci3titC4h3dzZ/dApzlQjifWneziLty85r2q5m9W/CruKgmKyv/ejOy8Gf4RS5Df/AOOaZwM6186py45XqwvdRMMkxmMgRbqIq1EhGoxT13aCMcasMCqcWrDBHre+Q/lFhd8TOAt019kI1tpi4XHJGln8608mFb1HKErl0Ze2TSelOqnVqxFMr44tn2LvYoy1WDqm/SjXcYcKDtyOzhQjiV7X20r6LrVNOUTGI/0x0ejrTa7fTsmInQ/7k5/CGROtIXSbd80pBfL9crGrndbx0tFQ+DeVKPcH0MuwmO7tYZjvTZRNcdbab41YfvmqZOeaY/l2+z+j5zZnVlExlHX52+5+THSRWcRpeXVVT9rq9n3/AAceVDU0skkoa76pVi0X3s7ifpLOE+Ek4gXS2bfbLRbBbUhihMk3ajpyn9PPtfKLbFc5ZxHno/rkzS2eaWk7xXpn9nqHoSoniVMsmbmZ1b9SpynHfbSBy3Rg+qd8xxKJR/gdWHU4UUPB15UY2JqyiEKMBExMsem2c6UOUq2Up20dbYymlEp6ljX2EmbPJVG/lice+EsUoH0Lj3I4I4O3QNk1Ik9WBbhwGLnCYqmMpyj1Zfqyc308TjRMZ9m3P9Pe04ZzV5XVtEUfUNga7WTrneaclqNjhJN5OddrvlV1vTqvE9Rbowe+xbKLZ/Ki4Gv85wmKoji9PXs/r7nrm2n6PjcaM+zbn+WXv97sLMZ2Le31rJlStPUNVEtaVBK3kyoyfzyXo7yqVi3XgRVctdi4UUh1ddCPVcJoqKJx60EMUIw2OprqyymPi+V26Ipic/Z2efRmmMt1Oz3RJY73tDcmn2mP1NLb4VBg2Sx+9b42DxX/AElnS0f5UZw7hNlzzivW7HYI/sbQepbMqFyAAAFINMbmpZW0yU5irT3QtBWUnls7slUzGkK9RlHVCSzN24kTnDBqoq22ikuV22OKX1WmiipwNmrFFFqgeMPqKzjSa+5gZp05IwPp9AAAAAAAAAAAAAAAAAAACG9IX8Aa9/M7UvRLoCQrWfaupj/ILL/UQAZEAAAAAACvuTf4SGa7n9l/0e0YBYIAAAAAAAAAAAAAAAAAAAAAAAAAAAFfsw3w68un+Orui0wLAgAAAAAAAAAAAAAAAAAAAAAAAAAAAr9b/jSrq8wVA9OVmBYEAAAgDRP8Vnlq5gKN6DZgaNFFxXGWfmBo3oJqBYIABBOlI4szMVzEVf0M7AmqU/Yhr+ZT/ZgBzAAGC09mBstUV4ZzYaV3JlmNbSFBJzM6XXW2T9NBVPCOFaFFTHCJVDcx99SwiT1uDra0MWAHzverZvh7Wn5osOlHgHqXojNHNkbuLow7CV1XeWKkpxOZza+Uupm/fMdoo5Xjawa8cX8oFjuxXaOfkW26/VpEB2KfRq4w7uGRe1v/ADlFtcf2wAfkWii0ZcOG7ho/7NY/nLcy7H/4IEItdAzkyuHc3G4WYaxFp3UslszUVpei7cWqZU7LEk9fHZKPVUcI3b5XV3N2Dbptfrw7CLugIqyYwuobHRtJs0QReM6tqds9RRX2kCS6VQTFGODW1Ie5ig+Sdo4OZ8yYZyC/fx3Tu2zNWJ9khYifWQ9cnUbqzvf+E+p++NlsnaC3ca8Ovramr3RaY2n6WjJXW/8AcZM0VisMxtjJvZ3GscZLhOMW+O/VWG+0VNkvAtsXTfWT3w2W1NkqhtIdonHHDrEfHYTl9PFSrdXzdVEqzyzR2XpszXlHzmw1W0TKY8blvKkmi8kt2gwkkiwip2OXbGGVJPk1FkFFfc1YVdpDFHrRKRFRFmqweX0c+7Z0eetbVXSnSVfvUbPXt6e3t6ujL0O1q7RN0rOZXInTStaLmM9RkUwY1BOrh2sa1NvlR0+WfqPWTdyrDCxX3w6danvyOrHBDGmpqkiqx59HV6M/j57HijhDxYnp9k5berqlPtk7BtbJ1XWNQyipd+s6sey9RBl1Pgb7wTaS1qw1O09q4Ww1uCmnDD3MMJaYTBxhJmI8/kqZx3GlGlW5CJpW12aouRUFy6ZRWn0knDJKZyu3abCeKwPmu9oG0yfouIYZozbwe9IRIpxdob6ykUSWtHXczZ1TOfuT5uccSKdu/Zuy+MuVbLKdf22l0cK1izBUVOmG8GEnRTnltHSkxYyZvBBBFL2jpGbJpo7SKCNWJTe8UW0j7ZtYUkj7GA03G6Y3fM5wtvF6Jz9ezdl8XAyqaOSl8q9xW9TyFWhYpbJZW8lsm6jWklssnLmBWP3I5jNdZRd8onBjstZOFvCp3SsKkR5t1mowFWcTHsjt7ZfbjdJuGjijbv2eyOr3rLGwtcY/o8ci+TjMZI7tXTzF5NbT1vOFr3Tpszn9U0FLpu7VaIINUdTbOG2thqqwLw7P3YYdw4jfc+dq3Y7HOVm0PqWO7FFouO9n2B8Dci8mKVcnYotFx3s+wPgbkXkwDsUWi472fYHwNyLyYB2KLRcd7PsD4G5F5MBTTSt6HDK5FlOvveKn7F2aoimqNtBP55SMmtvZKRy+buH7STLL4LPptGiorglC4g1oEmkLaLgYa6yutq4B5n+orONJr7mBmnTkjA+n0AAAAAAAAAAAAAAAAAAAIb0hfwBr38ztS9EugJCtZ9q6mP8AILL/AFEAGRAAAAAAAr7k3+Ehmu5/Zf8AR7RgFggAAAAAAAAAAAAAAAAAAAAAAAAAAAVOvJe61FQ5vbNVhKKzZYyyk31eS+qHy2OKGEsWYy2DfMCuvq6mzw4e78nHWh4MQFl6Jq6n7gUrK65pJ3ivK5ywQey5eJCNPFVBWDCOCPUjwhih3YcfjQ4Ygd0AAAAAAAAAAAAAAAAAAAAAAAAAAFfrf8aVdXmCoHpyswLAgAAEAaJ/is8tXMBRvQbMDRoouK4yz8wNG9BNQLBAAMTvVaqlL7WfqqyVet1lJHWNOP5HO0m62ooo0dIRt1cIIvixaimO5F9wCJochjpCHBthnjv7h/exrtDyMDc9gdM+XLf79eGvkYH57Ayccuq//wCujPyECs+Z7RY5jM2VxkbfRX5uDIqRpqYJuGNx65qhhNZtt9SDGJaRtGbdJRhF7mzxdqOUlIYv7HVTA8m/VgFvcbVZp7E2wjruoKmxkNjkGfrhqyY77mcx1Zm8h2zpbVh11Yu6ii1Yd0D3c0KHFF5dOaGS/wBVgAtEAAAAPOe7dNexNzgz+3U/hxZ0rdyonFTW4mkXvGE2Vg2s2lOv+HiW28xSh7pSF241f4vEdE4HXanLkNTROFlumY5XHUyg6I58AAAAAAAAYfee7TS0lN9UWsoWn8+mT1OWUjTDL+NzybK/xdml+V8aLuU09dRTtcERU3DF04C2/SLXA4Hl9w5MuDkoy9u8r2WOmbO1BOEZlPkEFplV00Z44wJvp09XUeTFzB8bZxul14oMIvrQakP3Dic7ZdhjoS+YWYAAAK+6V3iuMzHMDWXQToDwE9RWcaTX3MDNOnJGB9PoAAAAAAAAAAAAAAAAAAAQ3pC/gDXv5nal6JdASFaz7V1Mf5BZf6iADIgAAAAAAV9yb/CQzXc/sv8Ao9owCwQAAAAAAAAAAAAAAAAAAAAAAAAAAAPMLSQ5c6HqrStWdt+veOTSal70Yr4XUpF8/wBmo+3ogmjDjDDhj/8AfDdBCTq68UO0TaQQpaygHpyBuAAAAAAAAAAAAAAAAAAAAAAAAAABX63/ABpV1eYKgenKzAsCAAAQBon+Kzy1cwFG9BswNGii4rjLPzA0b0E1AsEAAAAAAAB80nq2b4e1p+aLDpR4B7c6FDii8unNDJf6rABaIAAAAYPfSwlpMy1uHlqr2Uaxn8ieRQRLMnGGOESa6cWskskrBuKILJxbkUCqcUMacXu4RboFUaj0fuc+1bnelgr80tcGQ4Y47zll1MF5ZNmuHyIpswRXgcw4dzDrsdp+EUVxNtwvDK5xH7T60NUxfBPAT/dv2fqdX7GbSifMNYXw+Tz0ULD/AMwZ/C/l+iu1G0fjzu+bT7G3Si/MPYXw+Tz0UMuvUfhvfD7qLo/xE7vmext0ovzD2F8Pk89FBr1H4b3wai6P8RO75nsbdKL8w9hfD5PPRQa9R+G98Gouj/ETu+Z7G3Si/MPYXw+Tz0UGvUfhvfBqLo/xE7vmext0ovzD2F8Pk89FBr1H4b3wai6P8RO75t9tlN0n1QRYNJlJbFUf7vuzlGt5zUeKeH/FOpUr1v6RCYJ4fTP2cL8UjVGM8/p5TZlc0f8AQdgqz6+NwKymdxLlqscWWNYT5CBJOWN4vciby1kl2pglF8fV1llPvqyurCapjbrprhOdbZMFb8JgYy0ELElengAAAAr7pXeK4zMcwNZdBOgPAT1FZxpNfcwM06ckYH0+gAAAAAAAAAAAAAAAAAABDekL+ANe/mdqXol0BIVrPtXUx/kFl/qIAMiAAAAAABX3Jv8ACQzXc/sv+j2jALBAAAAAAAAAAAAAA8g8pDXJdK851zKuu1mFyXSCrm+ZqpIm0ruBbmWqXDhi6pdoxaTVzOUlEYscccNhjvFTVxw+PugZ87z3ZkMaEnrmo82j2nJY0nlOSyTV1jS8mw37Qbib4ouLjbijaJCDafxXWih3k3hg35E22blEDFswGkVzZyOoKMp+xefSintOY0f1SpC4NXtOoCd0JlBOl2cbJJojTU0insUKSbSDZSXeCjjfe+G3a1UsEQ7+lNIBpCJvnFrylmNeUPMplIH1YM0MveE7UjnOLVgwWWlL2CWo07C8aQuMYGUe/nU3iZr7/wAU0k0lo0kYAzXRRXewvXm+ra4kWbLC8bx5YeiVZ3P+p0tb9TJhG9ncbmWfUCKKUOwjx94UgxcI7uqspHEB6JgAAAAAAr3nNzm4Ze8GlqLUSlGp7qVOjipTNMrRY4IMEN3Ujmsyjg91Fgnjh+cXU7SlwsccYLG1Wqu4VxTTGxAx2OpwVOcqoy3L5TM3pmpJZeFzhXE8rfDfNd1DPPf5wv8AE7j+LJI/2MknwW8Ops+Fwzq+CstuwFu+jy2dc+fPx5fjb5j8bjoxEdCZcoWb2qbW1TKMp2bGrlpnjM1t5WxudM/c6vbncSmZx/EmkOHuQK48F7D/AIfWhj5rfbFNtmaqY/Yt+sl7puFOU/ermlC2EAqrm2zw3Iy1Z1rS2fRo6VzG31VUvOplcKcY4LYvpMg3dy5o3epcPZbBNWYYRudaHgo66mt2rVjDHqX0pMcutonMq5slUdV1EvOq3Wcye2LBv/BlO0/O15erM19/vkd3GGHBDWSRUUcKKKdpb/chDNslueOb5ra9vSg7oTCWUhbysGTKkqhwwSxwm8tXkzN/vmLUcqRa0W+drD2tLtK6MOrtMFcIAj2ymnPyZZhXNRN7UoT+aw03K0Jw4xlU3kD9RSRYvMGy043u0miyzRBtrwLroPE27yFHHW3vFjBHDgGb4aTmin8wkbWistl2qp6uypeew405JZc4ib07A7wbIz2JLf21VauN2JRFJGFV4onBrb1AxRtpxchbi/1U2ImddxMVqURn+/J4vNZU4SUUk6aisxRwYNnqk0RxTgRX1YnDJBNbYRbJRTdS1w4Np9OhlLvpI1U7QUhUlR1bjUjCUSi31PTymZpM5tG9QWcoxouGc5Vl6MGyau41MHLxFRHese0Th1ktcJvyG5iKszVZZZZe6t6cRlEymk7njeKWpNo0N7JtJs7ZpYRQRxqYwKbJGDX4W5tMY9wCagAAAAAAAAAAAAAAK/W/40q6vMFQPTlZgWBAAAIA0T/FZ5auYCjeg2YGjRRcVxln5gaN6CagWCAAAAAAAA+aT1bN8Pa0/NFh0o8A9udChxReXTmhkv8AVYALRAAAAABCF6tIZk1sBVy1vLi3vYq1Q0hwUd0lTjB1PJy2gi7mKNjLUl3MEMX3NZPDWPugw84uPqxmx1VRSw7svGTL8Hd7xaa88yk/mm59yUTnDAeLRvg7Ltkt+ReHxZa78zHzmm59yrcctt/i0b4Oy7ZLfkXh8WWu/Mw5pufcq3HLbf4tG+Dsu2S35F4fFlrvzMOabn3Ktxy23+LRvg7Ltkt+ReHxZa78zDmm59yrcctt/i0b4Oy7ZLfkXh8WWu/Mw5pufcq3HLbf4tG+GpDS85CIMMMKiufU9KNvrdVK+tRU9OsYMfx3c0lyCEH86MwchuU7ZoZpxuCidukj81h6Rq2lq4pxlVlFVOwnMqmaOCrKZyp/A4buE/lpKwY6scPufXhI6S7cAAAAAK+6V3iuMzHMDWXQToDwE9RWcaTX3MDNOnJGB9PoAAAAAAAAAAAAAAAAAAAQ3pC/gDXv5nal6JdASFaz7V1Mf5BZf6iADIgAAAAAAV9yb/CQzXc/sv8Ao9owCwQAAAAAAK1yrPzX1cKTZ5Z3R43rrGSS2qZtIk6lks2o1u0fOpZMl5a7xSgf1E2c4QQuGq0OG0RTxiwg1tzVx3QOy9mPmQ71Ff39P299LAHsx8yHeor+/p+3vpYA9mPmQ71Ff39P299LAHsx8yHeor+/p+3vpYA9mPmQ71Ff39P299LAHsx8yHeor+/p+3vpYA9mPmQ71Ff39P299LAHsx8yHeor+/p+3vpYA9mPmQ71Ff39P299LAHsx8yHeor+/p+3vpYA9mPmQ71Ff39P299LAHsx8yHeor+/p+3vpYA9mPmQ71Ff39P299LAHsx8yHeor+/p+3vpYA9mPmQ71Ff39P299LAMJzDaQjMzaqzs/uDJ9GRdiUOJYwwiwnVXTelV5TKt2PVjevUpNPXr6NqhDjiurC2bqKbNPHucN2OAITtLR7CXy93cGYV768qjrLZzOqK8W1NeeqanaY4NTgotU4eCggn2tNPufjxx9ytOA0Vu0MRQ4xcMfjcfjf3lmhbKp01wbfUncqk3lvLhydCZyeZobN6yX++f/JFD3UMUPChi4UPCIdVNOKpnYmfZd3k+zuZlJS3qWyOOXS4uYFpQMyTljK5FHzCQoKY+5juyyZxziYy+BxMWuGCeCq7XbYRYKQbbBNbX1+M3rAUYC5TTTOx16zY7l+CipNvsyMxPeoL+/rDb70qKlZIxuBUlcXKvtKL71ropsxD13JqKnFK9RF5/btSWvmEzUbRucHCWNSYxR/xOCDDhaurHHuwxfcCE5VlFeUnaqn7UW2yO506Zxkcvn8qjn0rre2a8xmUmnT7fj6WOVnk6Wh2cSupqrpwpuk8E+C47vGIJXsCjU2WuoK9cWx0XuZbCTV44l67yl31Q28UYSzekuQl0GDX/AIQ4L6sTdqjhFgoorwoODq/WAwWirJV9Rtv1rMqZTs7s3oXeKMoldFTOurcYy2WyGBxto5NDAjOoInCCkOzQiXcRLPd7wbJNzDDErrh3FqLE0Nci8ktsI0kuZ2wFQSihJgpLIoqhpVHCYUh1WRj6gJOJUs/jaNmqy0ECESe93iKKmqk61QJzlmjRtO0mlUyh9d+5kxt/VWM8xd2jXqmCCn2y84w/hBaHYopvVcVIo11IU3DpZFFRwooimlFqagdb2MuVOqUlkrqLOde6bVHTM7l0yoqu5rOZUrMKZxZILNoIGiHU3qfjgo3XcpLqLtFlnEK/bVI9VLUCX8suXKlsq1mZbY+iqlnc5l0tev3EMxqRymu7Xjdu13auKsacCcMfbV1PigSMAAAAAAAAAAAAAABX63/GlXV5gqB6crMCwIAABAGif4rPLVzAUb0GzA0aKLiuMs/MDRvQTUCwQAAAAAAAHzSerZvh7Wn5osOlHgHtzoUOKLy6c0Ml/qsAFogAAABSbPlmKuVcu7quSvL3Xz6lGMmYt39261kWOzmTZNxw28ml6v8AYzpZLt67nu27eNHZ9scQqI7JwcssXGrOfsw16+Xum3U5R94wi2dq7Z2npT1p2ypBlIJb75sWKGz2q8XdLK/GWVi7qNWLhRRcKI6vo9BTgoyhzGaucGQE1CQ9Ps9GXOQ1JOaamk8qbHCmpp1NqGZo20n7iVSx3uwYajiZQMYmiUMOvBuqRLasMPdRFPzza4+rnt9U/wBPhmuotNzmjj7MvXGe7PP3JdLhStwAAAARu2aVpkkqp3mKyqyhbBjhjg6uBaOVYbOWVM0++rNW/vbebQw4a0C6erviLtK+vwVUtHvfBrnCOPgo+t+bb7HfuQRybFfdvRa2FyKJvBb2Q3ZtpUKE3p2p5ShM5JMmmO6m5aOE9qktD/eihiwOXumsiAAAAFfdK7xXGZjmBrLoJ0B4CeorONJr7mBmnTkjA+n0AAAAAAAAAAAAAAAAAAAIb0hfwBr38ztS9EugJCtZ9q6mP8gsv9RABkQAAAAAAK+5N/hIZruf2X/R7RgFggAAAAAAV+0ZnwaZvz3XP/f2fgWBAAAAAAAAAAAAAAAAAAFCMy2WmY5I5jMr02Wptd5Zp4uo9rWipWhrqUUpFwlZnL0oe7l0XdOWcP8AF/fke17VI2vg5wjjAR9HpPstWv1h5d+8Yf71tymbSmoZSzqGnpyg8ZvEE3LJ6xcbRNynH3EcMfx4YjrMTFUObMfoyjLgZzbgTKytlajeyClpA93tcm5LLHcjYR/Hk0qj+PMYvvq/csof8NqQGk8JeEvN/wBSht1hsPLv3nEr6WltLbyyVvJNam1NGs5DT0hZ4NpbLGMOrAjBh/6Y8Ysd2KKKLdiiix1ouEcxdEZOAAAAAFf53xplNcwE96blAFgAAAAAAAAAAAAAAAAAABX63/GlXV5gqB6crMCwIAABAGif4rPLVzAUb0GzA0aKLiuMs/MDRvQTUCwQAAAAAAAHzSerZvh7Wn5osOlHgHtzoUOKLy6c0Ml/qsAFogAAAB5k5Z3jiopTVl0ZnhtZjWd06nnD1bHH7vVV02aQf8yyQaofkoHYuDMf2PTLlF9/jmmSMbM1oAqJajKBWV1akvVJbnXMuFIKSqW7bxRWiGTGXt5dULHezLGKPfC0uie7JbU2UUSLhP3vg6pq/IZxlWLmZmM56Nnn3tki5U0UaCnixn27c/zy9HR+qN3duLkzTPdJ69p7L1HT8zlt33mMyqFC1k5cTHqT1KctmzlWo1ne9nDFXtP8Htkdm34EOOpqe7E4tXPGfp7P/cnxP9l5f8nn9kjNG1tW74ZW8s/aGoqWvWrYism9wJwvIV2DioJ5v+Wb4cwOVo0+qES3b9k7TU1dVxAnCtD8SLGFznKI/ecp+HnNLqqqyjjTnoeP0eej1MppewjfrYVTuUJPkaLWq+n3KNMssqc1aUvvtJovtVnFLLTVSYTFvFroQKxIppw76QbrdthSViJPIZynOP8A/P8ABDnHbYy/73/yrtZOpVNpXlvpWVTi2yNKYpMu1U+iiuhA2Q28ey1W7nWXaQqQ9thZqRazWFTY/ejYMDs0UdSix+fLtqTC0VQBImiQduZblwqW2W7hvOjLsVHK5LBhj70zVd7/AEkfyUoX2KUEP4NOA4de4iLnU7TZp/s/RZ9i1hULMAAAKoaUG9toqgyF5r7HSC40kXq6m8u9VuZzS0D6Df7JBaQOo0VYm+7rbKLDHDcU3NX4oHhj6is40mvuYGadOSMD6fQAAAAAAAAAAAAAAAAAAAhvSF/AGvfzO1L0S6AkW1f2sKe/yCz/ANRAB34AAAAAAK+5N/hIZruf2X/R7RgFggAAAAAAV+0ZnwaZvz3XP/f2fgWBAAAAAAAAAAAAAAAAAAACktz9F9XrW52Eiyz3hY0RaerHqjmtKfQQj6pU8p3avrdj96bQuse7gU4LWLWWb93sS5wPCK44G2cjUuMsWBxuNjFVRtWztLaW3lkreSa1NqaNZyGnpCzwbS2WMYdWBGDD/wBMeMWO7FFFFuxRRY60XCKZdMnAAAAAABX+d8aZTXMBPem5QBYAAAAAAAAAAAAAAAAAAAV+t/xpV1eYKgenKzAsCAAAQBon+Kzy1cwFG9BswNGii4rjLPzA0b0E1AsEAAAAAAAB80nq2b4e1p+aLDpR4B6l6ImvtIoz0Yth2tvMrVlppIEbXynqNM55fyay925b72h1I1WyNKuYEY/5YIV1Nz5UQFj+uPpSuRtYLxlp56GgOuPpSuRtYLxlp56GgOuPpSuRtYLxlp56GgUry63+0lcqzLSe3uR23FFV9azq3veuW0d85xVlPUyn7u13hP38gZKYKw48GJmk5mex7neqAHOyXum00sHA6a7bt1TVH783jTj+zj74kerFAdo4OTlZcN6v1cgv/wDHdOkybTaU09KXlQ1DOUGbNmgo5evXzjZptk4O7jij+JDCXkzFMKxhOOarK7DblK7sWYigsKTVfb1Rqz13Mepyi8Hdo742uz1+BHwdYjRjdDMcbj7HubdcIq4v0G1oWzWWHklK41tX13qXpWXKVC4kkseVFV8tgQfOkY44NVJWBzFDrRamts9bbQ/fE4YjzON0FMbdiRTbrhV0Rnk7Cf5gMvlL180tVVV+KIltUTFdNs0pl7U7RN84Uj7iCFvHHtIooteDVh1fjnucboYnKZ2o3N2PmM4jZCI7BXz0Z9uZBWdyLVObTW5aS2rnFNVVOE8JNJ4HT1DXxgxUVRjh18Iu2RpbThRcPglXhsXaNs05U9vQttJo7pGUVRpNL2er0MtqzPbYCnbjYWtbVxLJlNMaQaVIxgY1NKk0nTJ06wSSwSjcvEoN3cxwV3O5iTx4OtFHqEjl9sirixMZ+fP9EPm65cXjZbGb9e+zGFxHlpMbvUv665a0xdvKb6vNeqLZthhtNqqhr7SBPcU7qKHVJnKtFx5pz29mfvR/oq+Jx8tmeWfVn05Z9rbtxmCsReZeYSyz966PqpWU4QYzFKlqnazCNlgr7kO02McWrrY/W1u6PmH0+ixcTlO18qwGOpiJ6pZgTUJj2jvsZdi7ssvBUNDZ47s27Zo3wmrbGn6Vp+mN6bSFox1loY5xIni8Wt+Kts/c4JxPhLlzvU7HYv4LofUsf7DjMh312/v6At76JlGuT2HGZDvrt/f0Bb30TAew4zId9dv7+gLe+iYD2HGZDvrt/f0Bb30TAoNpockuae5uXG7ODm8V0ayk9rbaTqfOLgXQYUAza4ppStZy4ZyvqbTcMzWUUS3UFYtoxT4UfbldzUA8/fUVnGk19zAzTpyRgfT6AAAAAAAAAAAAAAAAAAAEN6Qv4A17+Z2peiXQEi2r+1hT3+QWf+ogA78AAAAAAFfcm/wkM13P7L/o9owCwQAAAAAAK/aMz4NM357rn/v7PwLAgAAAAAAAAAAAAAAAAAAAAAAAAAAAAV/nfGmU1zAT3puUAWAAAAAAAAAAAAAAAAAAAFfrf8aVdXmCoHpyswLAgAAEAaJ/is8tXMBRvQbMDRoouK4yz8wNG9BNQLBAAAAAAAAfNJ6tm+Htafmiw6UeAe3OhQ4ovLpzQyX+qwAWiAAAOFKpTLJOwRlMpl6LVqgls0EEEcE004Pkww4fWA85aZpxxYy/Nzsr8/7SrL6wf1VSGG5ub+kM6drP4I0vxW71d8zi+TsIPlwHUeBmMibZ9H3XM+F1vyx/KPE2Mezt2rqu+2Waq7Y0O1Rdzh4g3UZSx642aEz2S8C0bOKOOCKGCFaCDZcLg8PhGy4/DzOAmmPPnao8BV/aCDpfltvXce/CV9p7YvCkJZMrySOdq0k8m7GN0xQl8jdM+qa+9HCiO0UcRoQwwoqKRbNBKKL8WupwNVU8aYy2rXSY6KauLFWeWj6duXszyn3Qwu4WTDMu0q6a3Cl1G1o9ZzNWuZarT1FTilt9qtJrNN+N41+rqS7bebhKDVV2f1QnwO1q8Ir6sBdumPT2dvpTNHj7Zt42XRo+nPds6/Xs7WSxZGrmyuia4p9pbbfjt4rbdOSPH04aPF3KEl3lvj6o1EPedRfhRIobT72mS+b6sp/9KFy+P+4VDZTNtTldPY6MtLPWzPrsVTM8KlpL1pOJrvWYJwYN1mkc62ybZt3abrtcK/cakMcPuHmqm79WcberL4+9l0cWyJznKdnXn8Ov3drFWOTnNNI7Q0jb+Gzq6ztKzslp6Zqo1BLdgxfMKigeqwR9uT14YkuFBEmnq/K2XcmGMBpuLEZfyvNWPwE1TMeJ585snnGVi/U1q7G37Oy8O9ZdeSf15jcjqwx2L5m9aOYUmcKUCu+9+fVUDWPaI7HYoe/RcCEzTgrpFWUx1557P6vnLrfxM89vE+725/pl7c0g5Uss9b2Xrq2s5m9BpSdnIcvLClp0ui4Q7XM0l0Y97cCPWj1e3xa0Osn+MTMBgZpmn/SiY/H7NN/uLA3ArOlbaUTMbg1tN0ZbKJMyUfTN4t3CaCXDijLmdPTTEzKrimZnKFgNGNaGsrU5SJK8uZTa8mqmt5rM6uqKUvMO3y1eZu1HaTNXd++Nm8aDWL8ZucEx+Ji43GcZ2uzYPQRgsLGg7FiSOlgAABX3Su8VxmY5gay6CdAeAnqKzjSa+5gZp05IwPp9AAAAAAAAAAAAAAAAAAACG9IX8Aa9/M7UvRLoCRbV/awp7/ILP/UQAd+AAAAAACvuTf4SGa7n9l/0e0YBYIAAAAAAFftGZ8Gmb891z/39n4FgQAAAAAAAAAAAAAAAAAAAAAAAAAAAAK/zvjTKa5gJ703KALAAAAAAAAAAAAAAAAAAACv1v+NKurzBUD05WYFgQAACANE/xWeWrmAo3oNmBo0UXFcZZ+YGjegmoFggAAAAAAAPmk9WzfD2tPzRYdKPAPbnQocUXl05oZL/AFWAC0QAAAAgnOhkzp3NXJZRUclqtakLhUcoq5ouuJehguqyxU3Nq1XRx9x2xX1IMFW0WOGts4I4IklkklYJGDxk4CrNGxeEjF05KqVOpmyso6wk9/cpNUqxI47nrutVL1KolL78eFu2/hJGL42KajXVh7mFZXujo2D4aWyaMsbsaHj+CWO/4SXA9kbJPmBv14slc+aC01ns3fQNXr74Ub4bHsi5B8wd+/FlrnzQNcLT3pY9VLz4Ub4PZFyD5g79+LLXPmga4WnvSaqXnwo3weyLkHzB378WWufNA1wtPek1UvPhRvg9kXIPmDv34stc+aBrhae9JqpefCjfB7IuQfMHfvxZa580DXC096TVS8+FG+G8heqoami3nb/KvfafzHd3EWatkZ5JNp/0idt2LaD+ctCeY4Y2eNsTL7PBK9xszSnYzIbeC8dbSe7Gd9jLJZIqffN5lTVnpS+36nv5OPXRezh3725URj7ak0Q7QmpjtIlF4tnqaFeuEk3Cco2Q3WyWOm3U5z94u8a42IAAAAFfdK7xXGZjmBrLoJ0B4CeorONJr7mBmnTkjA+n0AAAAAAAAAAAAAAAAAAAIb0hfwBr38ztS9EugJFtX9rCnv8AILP/AFEAHfgAAAAAAr7k3+Ehmu5/Zf8AR7RgFggAAAAAAV+0ZnwaZvz3XP8A39n4FgQAAAAAAAAAAAAAAAAAAAAAAAAAAAAK/wA740ymuYCe9NygCwAAAAAAAAAAAAAAAAAAAr9b/jSrq8wVA9OVmBYEAAAgDRP8Vnlq5gKN6DZgaNFFxXGWfmBo3oJqBYIAAAAAAAD5pPVs3w9rT80WHSjwD250KHFF5dOaGS/1WAC0QAAAAAAAAAAAAAAAAAAAAAFfdK7xXGZjmBrLoJ0B4CeorONJr7mBmnTkjA+n0AAAAAAAAAAAAAAAAAAAIb0hfwBr38ztS9EugJFtX9rCnv8AILP/AFEAHfgAAAAAAr7k3+Ehmu5/Zf8AR7RgFggAAAAAAV+0ZnwaZvz3XP8A39n4FgQAAAAAAAAAAAAAAAAAAAAAAAAAAAAK/wA740ymuYCe9NygCwAAAAAAAAAAAAAAAAAAAr9b/jSrq8wVA9OVmBYEAAAgDRP8Vnlq5gKN6DZgaNFFxXGWfmBo3oJqBYIAAAAAAAD5pPVs3w9rT80WHSjwD250KHFF5dOaGS/1WAC0QAAAAAAAAAAAAAAAAAAAAAFfdK7xXGZjmBrLoJ0B4CeorONJr7mBmnTkjA+n0AAAAAAAAAAAAAAAAAAAIb0hfwBr38ztS9EugJFtX9rCnv8AILP/AFEAHfgAAAAAAr7k3+Ehmu5/Zf8AR7RgFggAAAAAAV+0ZnwaZvz3XP8A39n4FgQAAAAAAAAAAAAAAAAAAAAAAAAAAAAK/wA740ymuYCe9NygCwAAAAAAAAAAAAAAAAAAAr9b/jSrq8wVA9OVmBYEAAAgDRP8Vnlq5gKN6DZgaNFFxXGWfmBo3oJqBYIAAAAAAAD5pPVs3w9rT80WHSjwD250KHFF5dOaGS/1WAC0QAAAAh/Nbm6t7lVpuXu6hlj6f1PPnEbWjaJkkUGMxnjmDDDGLCDCPGGBFFPDHXVcqRQoow44a0W7HBDHnwmDqx0xFKNi8ZTg6c5VZqO+ekOu7uTae39klo2auOOxp63VPtJo7b4bvuQKzOborpOI/wAZNkjCb7guBUR95LTcdwtj/hnA3c6/fP7w/qjQno0TNSbX21I2t+N7NHvn9Tdzr98/vD+qNCejQ1JtfbUa343s0e+f1N3Ov3z+8P6o0J6NDUm19tRrfjezR75/U3c6/fP7w/qjQno0NSbX21Gt+N7NHvn9Tdzr98/vD+qNCejQ1JtfbUa343s0e+f1N3Ov3z+8P6o0J6NDUm19tRrfjezR75/V+audjvol3P1SoT0aGpNr7ZNbsb2aPfP6u4prM1pArEfwu+rKSXvkSOP1ZJZ5KGlP1Aph8tu+Z6rFaP8AwKjRGGL8MkVmO4FzEfuKwwXCumY/eti3WXTMdbLM/bZvc6083WWZYrqMppLXyO938nfJbm2ZO2/dIuE93hQf34YoddOOGM0XTUzTslucJEPD6AAAFfdK7xXGZjmBrLoJ0B4CeorONJr7mBmnTkjA+n0AAAAAAAAAAAAAAAAAAAIb0iHF+3z5nqn6KdASLav7WFPf5BZ/6iADvwAAAAAAV9yb/CQzXc/sv+j2jALBAAAAAAAr9ozPg0zfnuuf+/s/AsCAAAAAAAAAAAAAAAAAAAAAAAAAAAABX+d8aZTXMBPem5QBYAAAAAAAAAAAAAAAAAAAV+t/xpV1eYKgenKzAsCAAAQBon+Kzy1cwFG9BswNGii4rjLPzA0b0E1AsEAAAAAAAB80nq2b4e1p+aLDpR4B7c6FDii8unNDJf6rABaIAAAAeZtuaxVzJXQrHODP8dsrVU0XltCbuPAllLMl40WkCXyN9RwRvlflRO4Ie5ShOr8FsFTgbZyyf5nMeFeNjHY/kkf4bO5tjvWVLOsfwCht+ectby2KO5dc7mYOoLG2zpy8NXo4XAnNZ0w4ezpGUIQQVFTU1X4K0MGx2cEUPDaq7PhQxIa3B2sJq+Dx10rpppqX2PwFu/bZJUqnSD4yG1Usub1m9r1T9emO8vXB716303sfd72/sjevye16/wAYmc85Rnki83zlLo3WkRvdT7h5FVeVWWNGkml9OTidLIXF2ijWVTh1g2b4QpdTodd8nFr7VtrQo9r4LqIj881R/J7/AD562Xm3R+PO7r39Hp9zVarO1dyUVPM4ry27xXota8c/pCV1n1Wg30lG3XdRt4Op6LbhttkjsNvttttO6T1e2mbDY+ZnKY2drxzfTxenb589HtYzSOmVourqLqeq5JQFMzZWX21XrampPTFy2szdKNUlIIN5TRKBvrSl9uLodr+qIe77Z2oiRfYqznL3/n2JlXB2KZiJzj1x5zT5dXMJXtlcvjO51wbVSz13TN8wlrKkpVU20aqTF67gbNEd+rN0O1ay0GupvftfD1YVfj2s43i6LOY2+etU8gp5f6Pgha5ea/MtX1V0XaelKcZUFPUbxetC4vUqpkHmzghlUcxR3gq8lC8LhBZvqK60SKKkMXaeDr7WCFONukzERGX1tvnJYzgbbEz/ALezz7/kuEbG1hjtuKvcZc861D3SlWOwkN0XydF3CZfe1XcaccUmme5+HTcQbw1vjJvuF70kc64aYCIp5ZHU6DwSx2zkr0SOeN7AAACvuld4rjMxzA1l0E6A8BPUVnGk19zAzTpyRgfT6AAAAAAAAAAAAAAAAAAAEN6RDi/b58z1T9FOgJFtX9rCnv8AILP/AFEAHfgAAAAAAr7k3+Ehmu5/Zf8AR7RgFggAAAAAAV+0ZnwaZvz3XP8A39n4FgQAAAAAAAAAAAAAAAAAAAAAAAAAAAAK/wA740ymuYCe9NygCwAAAAAAAAAAAAAAAAAAAr9b/jSrq8wVA9OVmBYEAAAgDRP8Vnlq5gKN6DZgaNFFxXGWfmBo3oJqBYIAAAAAAAD5pPVs3w9rT80WHSjwD1M0RufextAaL+xFFVBQl61nsstdKWy60jy3VxM2kccLaDDdRds5Qqg5g/kUSUihi+LEBY7sk+Xb5uL+eKjcHzEA7JPl2+bi/nio3B8xAOyT5dvm4v54qNwfMQFcaW000Vkb6UflxzT0HW1Q+vyadTqKruR2Cq6ml3SnucF7KJwwS93CHHHWVYuHOtF7u9kIQI70euGrkLsnh+FtHTin8+KVNTuNon+y8NP/ACx8XGLjGVwxEf5iXnTTfbRZp+GLZWIRdZCbEOpBaGVOsZ3vyzr5orSM628G+1YG/u72ddp1VklNSCKOHVh4UEEUOqU/NehmNHt+46PP6LTnGf23+c6N3o0rPTaaOoZrd+vVZPh640pLIMJux3pKOrqa/VDYfUe0j1tvrQbZRbZ/c4OvCYYs9OfTKVNyzhmNVZLLU1phPoZrOZ4j65qcp+TvcEXCHakJO6jct9TtPdRRR8P8XudUlzgKZzROX7c3T0/kHtNIK89ec2rmr51LsaymFVo0bNV2qkqTnL3bbV5wG8K3BSWjSgTiW2PxtntO2mPmmnj9L1FyiKMsvb1/p7s/S2pfkIoVK3s2tNNb63Km1LTGlfWzJpA7qBrvSn5b+BawJN4cFYoeAlCu83wtCnBq7TutdFoiM4mZ9v8AR9ruVNdMRFMR6s9vvy3ZJJvVZWk7621VtlV03mrNFVdu5ZTORr73dsXbdeBZu5Sj4UO1TVggih1oYoflQxQkzF4aMZE57EOiriSw6jck1s6MeSionNdVRPZ7Lq+Xq+Z1NO3DXfU3mSrFZh9VbJumnsoW6+ygSRTRhh2EP42vFpwER+fVtS6rjFVUzEZb/imMtlQirNpUrakLfUpWk0Zu1kpPeq3T5ZGWSpZ861IK0kmvvdu3giXcKxQcGFJOGJRTuYYTV+GGVNoqmPQ2TgpHGvOij0SuHFpHbQq4bjSx1/1/8WWyr0/9bLoTj7rD9x0hNGq4bjPLHf8AW/8A7ITlP/WowgIs+mEf8VyZ39W/xW22f+tWhA6Svs4tzKtomZ05RmTnMdIJk8ZRpNKhlVKU/vpip8VZKB+8jQjiw/kUTih/FApLezScZlb0ZZM0GTq62XKdT5pJsvlbwzK7kjbMW7WULwU8+j3nOmjN8+QaOotyGHDZudoopHrb0QTA8+PUVnGk19zAzTpyRgfT6AAAAAAAAAAAAAAAAAAAEN6RDi/b58z1T9FOgJFtX9rCnv8AILP/AFEAHfgAAAAAAr7k3+Ehmu5/Zf8AR7RgFggAAAAAAV+0ZnwaZvz3XP8A39n4FgQAAAAAAAAAAAAAAAAAAAAAAAAAAAAK/wA740ymuYCe9NygCwAAAAAAAAAAAAAAAAAAAr9b/jSrq8wVA9OVmBYEAAAgDRP8Vnlq5gKN6DZgaNFFxXGWfmBo3oJqBYIAAAAAAAD5pPVs3w9rT80WHSjwD250KHFF5dOaGS/1WAC0QAABFdicpFisv0zmNV28o+NWqZzF/wAIq2qJ+tNJ7NMPci1HD5zHEvElhFhuwIa2xT+9pwYAUCyGoOpJkxttRjrDHfdK0e0pqZo4/e30tg3g4g/muGscJ3Cy8XmrDepxi/TM3DEJhLhVAEKVTeK/NVZj51ZuwsNHtGtDyqTvqmxqpi7jjm+MwXW7S1cIqwwtNmi1j7bEi52ikerqw6msVczpp02xaxyDkMxKGKr0hGYujKSjva4pmilaXqXCtGVGyfFi6xmUsdSVo9WbrPVY3Gq7SX6nL66aaLeJHaQQ6yndFVzhp+mehaVYG38WOLG3r8/Oc/Q3ajzY5gZY7ktEXfhpB3MZ1BRVQyxaj8ZlL4GLWZTyBmszcaj7WcRQfFW1k0XH3xvq8GPPy/TRsn0fn63yrAW+fsxl9519fX1Q0W4z/ZmrkVa5f29sKpUsommFRtqfkyFvZ+x6mLsNvvGNxPXEHU13C7ia6vadnsYl4IdZTUiI0Xi51VdHun8+iWWu12+jRxV8Yn3Rtj2pryg3pr27kln8Nyaukcxm8leNt1BjQk4pZ22gWb6+o6ls3iUWh4WvqLwqbNaHue4LS34urGRtn3THuVd0oo0deVMZe2J98bPOSZS3UwBH1927ieza2NEyzD+EZ1fyhI2aO575vCoGU4cf6LWXLxfzDWeFeXM85tl4J/xyXpicddXAAHRVzR9PXBpCZ0NVMp35KZwwVZTNjjFjBtUFYMYI4NaHHCKHg4/F4X1gK/6Rq31v7T6ITMJb+2VFSmnJFJ8vFXt5ZJZJL02bRsnhI3WOokklhDBBD+SB4P8AqKzjSa+5gZp05IwPp9AAAAAAAAAAAAAAAAAAACG9Ihxft8+Z6p+inQEi2r+1hT3+QWf+ogA78AAAAAAFfcm/wkM13P7L/o9owCwQAAAAAAK/aMz4NM357rn/AL+z8CwIAAAAAAAAAAAAAAAAAAAAAAAAAAAAFf53xplNcwE96blAFgAAAAAAAAAAAAAAAAAABX63/GlXV5gqB6crMCwIAABAGif4rPLVzAUb0GzA0aKLiuMs/MDRvQTUCwQAAAAAAAHzSerZvh7Wn5osOlHgHtzoUOKLy6c0Ml/qsAFogAAAB58ZorbPskt6qku44Z/+By4k76sTSa4e6hRdQrfxqN1u+8sHyu4vvnuUXca2EerC4SN04K3unR08hxnR1NL4U2KrG08pw3TDsmjto7aIumrzbIre8rfhTqUS5y3T08o4uplTy/3prJrX1waOVeTBNBukvijPXzRGZoN19ski/btlYUJikmrwoEnCakOHD1e6IFWBpqqzy6PPtW0XGYpmnt9X59Mexitb6P8Ay91EyrZek6cwk0+rCSThihNcHzp41k68zg1HblrL43O9m6q3dKxIwpxLfdi4ZH5o0G2f1JuWPqpydjQeR3LfQNJoU+3o5493FZO4WfTSfTFdfGOWR7ZjClGq5UibtkVeFAzTi3vDw+18IYe06GiCu5Y6rpbmORHK68qaY1RNrUQvFZwjME1ZY9nz5eWtuqH8ejay+NbezRRx99URTTUU1492LhxDm+2ZzMR58+h9m43GacupllpLG20sbL3qdvmMzwxmi+1fPahqV7N3znUT1INZ0+VWWwhhg7mHaasPxSVhsLTo4yjP3yjaXSzpK5qnpnsiIjdGyPYzAmoLg1BUFPURT7yratqVjLJayQ2j2aTVxA3QawfLjjj4MEJjmYySuh3uRay9Q35vRLM61bU29llIU1KnDW0ksmrfFBxM13eGo4qOJKLhIpRN/qVrDFwokV3C0UOqskck4SXvnCqIp+zDp9jstFvpzq+8XhNWbGAAAFfdK7xXGZjmBrLoJ0B4CeorONJr7mBmnTkjA+n0AAAAAAAAAAAAAAAAAAAIb0iHF+3z5nqn6KdASLav7WFPf5BZ/wCogA78AAAAAAFfcm/wkM13P7L/AKPaMAsEAAAAAACv2jM+DTN+e65/7+z8CwIAAAAAAAAAAAAAAAAAAAAAAAAAAAAHl5WWanMZK9IG2yx4PN8Xx9ak7omnp3hKE97qMXk2l0yb1FscO1aqMnTXVig97ieMI0fjgenjOHBu1SRjebXHc3MFcfjgb4AAAAAAAAAAAAAAAABX63/GlXV5gqB6crMCwIAABAGif4rPLVzAUb0GzA0aKLiuMs/MDRvQTUCwQAAAAAAAHzSerZvh7Wn5osOlHgHtzoUOKLy6c0Ml/qsAFogAAABw3zFpOWi8rmjBFZqsjs1kVsMI4FIIsNyKCKHH/wCvdArBUmiVy9RO1H1ia6r2z22jxUilduagQwlkGOP4KWTJu7YtvyUEU4SywN7uuB+zUrMZZrdjI+vo4l1vYnZ13yW/f6Pof0ZJ+tF676NqxYfAg7E7Ou+S37/R9D+jI1ovXfNWLD4EHYnZ13yW/f6Pof0ZGtF675qxYfAg7E7Ou+S37/R9D+jI1ovXfNWLD4EHYnZ13yW/f6Pof0ZGtF675qxYfAg7E7Ou+S37/R9D+jI1ovXfNWLD4EHYnZ13yW/f6Pof0ZGtF675qxYfAhkds9FdlipKfs6zug8qm604lq+Cstd3OnW/2rVaH3IVkpcimjL4FIfiqQttpD8WIr8beLnjvvJTMDb8FgY/YRks0VywAAAABX3Su8VxmY5gay6CdAeAnqKzjSa+5gZp05IwPp9AAAAAAAAAAAAAAAAAAACG9Ihxft8+Z6p+inQEi2r+1hT3+QWf+ogA78AAAAAAFfcm/wAJDNdz+y/6PaMAsEAAAAAACv2jM+DTN+e65/7+z8CwIAAAAAAAAAAAAAAHixnl9V6Y5MM3tw8qeGj49cvrBqVzJ+r3XX3nv/ZY7m22PUpTZbvydpF/jAij28zj3rrHw2/7lAe3mce9dY+G3/coD28zj3rrHw2/7lAe3mce9dY+G3/coD28zj3rrHw2/wC5QHt5nHvXWPht/wBygPbzOPeusfDb/uUB7eZx711j4bf9ygPbzOPeusfDb/uUB7eZx711j4bf9ygPbzOPeusfDb/uUDDnHqxOz7q/LTM450QjKKu2tLKU0hUsd6MdunKonGDmJrh/A25q7XhfW3fdx+UBmPt5nHvXWPht/wBygPbzOPeusfDb/uUB7eZx711j4bf9ygPbzOPeusfDb/uUB7eZx711j4bf9ygPbzOPeusfDb/uUB7eZx711j4bf9ygPbzOPeusfDb/ALlAe3mce9dY+G3/AHKA9vM4966x8Nv+5QHt5nHvXWPht/3KBImUP1YjjmvzU24yxwaOvCQY3DreV09hOsbub73hvt0mjttj1JT2urtNbV14db5QHt0AAAAK/W/40q6vMFQPTlZgWBAAAIA0T/FZ5auYCjeg2YGjRRcVxln5gaN6CagWCAAAAAAAA8R/VNGhp0g2kszb0HcrKRaVlPpDILdQyqZPntTsGG47387W1MIF1oIseApBwtXV4f1wPT3RlWUuJlv0e9mrD3Zk+EtqijreSyUz9i3cwLwJOUEIIIoNdPWhj/KhAnsAAAAAAAAAAAAAAAAAAAAACF9IhbSt7z5A74WetvKcZlUdV2fqeTyGWwrQJ4unzqVOkW6OvHqwwayscEOtFFDD7vCxA8ffUveiB0jGQHP9V94s3GW5zRtOTK0L+TsZmtP5c7wUfKTWVrQI6rRwrFhupILRa2MOrwPrge9QAAAAAAAAAAAAAAAAAAAQ3pEOL9vnzPVP0U6AkW1f2sKe/wAgs/8AUQAd+AAAAAACvuTf4SGa7n9l/wBHtGAWCAAAAAABX7RmfBpm/Pdc/wDf2fgWBAAAAAAAAAAAAAAApPfL1PRoesx93ahvvejKFjOqtquaKP6gmuNfVA3xdOI+7U2SL+BKDd/FhhhAxb2rjoLOQxh4Tqn85APauOgs5DGHhOqfzkA9q46CzkMYeE6p/OQD2rjoLOQxh4Tqn85ARBk79Tn6G27cquDNa8yawveo13akkUlxwuJUae9mDJ3vZJHgTGHX1dSPhRcLH7u6BL/tXHQWchjDwnVP5yAe1cdBZyGMPCdU/nIB7Vx0FnIYw8J1T+cgHtXHQWchjDwnVP5yAe1cdBZyGMPCdU/nIB7Vx0FnIYw8J1T+cgHtXHQWchjDwnVP5yAe1cdBZyGMPCdU/nIB7Vx0FnIYw8J1T+cgHtXHQWchjDwnVP5yAe1cdBZyGMPCdU/nIB7Vx0FnIYw8J1T+cgHtXHQWchjDwnVP5yAe1cdBZyGMPCdU/nICIcmnqcvQ13aoqs6irrJpC8jlt26skcr3LiVGlsmEvnDlmijwJjDrasKHdxcKL4wEve1cdBZyGMPCdU/nIB7Vx0FnIYw8J1T+cgHtXHQWchjDwnVP5yAyG0HqdbQ5WCupTd7bT5Qeo9U0jO283p6aYV9UC+9XrdTBZFbZLP4ko9WODd1YoYoQLwAAAACv1v8AjSrq8wVA9OVmBYEAAAgDRP8AFZ5auYCjeg2YGjRRcVxln5gaN6CagWCAAAAAAAAAAAAAAAAAAAAAAAAAAAAAAAAAAAAAAAAAAAAAAAAAAAAAACG9Ihxft8+Z6p+inQEi2r+1hT3+QWf+ogA78AAAAAAFfcm/wkM13P7L/o9owCwQAAAAAAK/aMz4NM357rn/AL+z8CwIAAAAAAAAAAAAAAAAAAAAK+aN2DbWXrScYf2bf24+P/ZVdNW3/wAACwYAAAAAAAAAAAAAAACvmjW1HeXiezvc92ZXuuU53f8AHW071f8Au4YAWDAAAAAAAAAV+t/xpV1eYKgenKzAsCAAAQBon+Kzy1cwFG9BswNGii4rjLPzA0b0E1AsEAAAAAAAAAAAAAAAAAAAAAAAAAAAAAAAAAAAAAAAAAAAAj6vsz+Wm0VwJFai6eYah6aqmqYoMKapqoKvaNH8211NlBvVusrCo41o+Dhs4YuFwQJBAAAOmpyrqUqqKYp0pVTCZRS18owmULB8mvvJ3Bua6CupjwFYdeHWgi4WG7hugdyB0tJVfS1dymGoqJqdlNpbi5XbYPZU+gXQxURUjRVg14MccNaBSCOCLD4sUGMP8oHWtrx2pc1hjQbW6VPqz7f6jDqNhOW+LrfaTeByq2wR19baQoKQLxQbmtgnHDHjwfdAywCG9Ihxft8+Z6p+inQEi2r+1hT3+QWf+ogA78AAAAAAFfcm/wAJDNdz+y/6PaMAsEAAAAAACv2jM+DTN+e65/7+z8CwIAAAAAAAAAAAAAAAAAAARjey/MVk62t3KZ5Tm1kFb1Z63XtQYPtzqO+VQUiY4RJanDhcOIN7a2thqrLIw7kWvwAgbITfiVU1RdA2HllOOZzPa/r65VQvcUFsNSTyiCqJwtG/cfywKOHLVqnD98icYxYY7iMQFxwAAAAAAAAAAAAAAIzvXfmOydwreyGoKX2shripMaeWqLf+51JmCqEcbGFVHUx10nCqcbfX1odVZRvDwtrwAgjR+X5lUitzbmwsqpxeZT6t6iruonuKGOGCcnlEFQzGON64/vKOHKDdKH75EpHFDwUYgLhgAAAAAAAAK/W/40q6vMFQPTlZgWBAAAIA0T/FZ5auYCjeg2YGjRRcVxln5gaN6CagWCAAAAAAAAAAAAAAAAAAAAAAAAAAAAAAAAAAAAAAAAAAAAUUmkwb2KuXmSoC8uT6t7oTO7tSJzOkUJZbp1M5VWEtjlTVm2lDuZot1WcrgQcILpRdUVEU001MFsNaGOKLEIwzBz7O4+0gUpc2/oO7VNNZFPU5bOmkiXrOaSKcS5WmFosHiS21RkLZBN7Gk12cLRw926e+I1m/1gMeoagM+9A5ekIOrOYx5hUdkLazm5O/agnswnKT/qqphU0Et3zHE5YzHqfu67Nhs1oeBsk9tqAcbM40zfVA3pFpYKu81NLW1Spyf40S9nlu6qn9SOZ91V+p4HSLCcy14knsNXekVS7RrEnr77whAmxyleuymjqzlVvUcFQ01UmM4rOeSqdpt45W7ij6htcYH7TUj4HbYI8YI0lY4dZPgqRARLR0pzIXdqem5VaKoMz3Won9y6NxqCZ1RNaqlk2VUVlM4xnyiThxsnbeWRY9S8cY2+KTFNfH6k1frgdPNqE0gtR0/Wc/dTbMahMqRtlN5rQqLKoKgb75nyVZzjekEaUMerMsep+9fqVbawKN9jrJxQ7IDg3VtTm/tXdHMk5y9U1fBnMJ/WNczdJaU4VCo3me1oNr1LWaq4dqWj6p7dNLY8JNRNFPg6iUIGcVfb/NRayufWVUc4zJTGyuFXUlMrgLyOf1ZNKh1HFPTHfe8HbONSa4teqsEu3y2YRdp/BpIxqgSZaKs6quF6n8rKua3q6oZ+9mdma4Vxm1Uvt8P3SP8KYJRrLY93Hsdn+LuYYavBAurav7WFPf5BZ/6iADvwAAAAAAV9yb/CQzXc/sv+j2jALBAAAAAAAr9ozPg0zfnuuf+/s/AsCAAAAAAAAAAAAADpK1rmiLa0k8rm4tYSun5JLkNrMZxPZgmzatU/rayqq2MMEEP3N2L+UCvq2l5yIxuscKcuHV9SoYe5hMqIs3VU/Yx/kO5dLVkI/5sRn5Bcsvso0Y3Bz/AIkb2jsu2S35F4fFlrvzMSOabn3KtzDy23+LRvg7Ltkt+ReHxZa78zDmm59yrcctt/i0b4Oy7ZLfkXh8WWu/Mw5pufcq3HLbf4tG+GBZl9IRkSzLWKqaxs+fXiZYVBK8U2c0QyzV3tpa8hxwWaPUv4G99QcQILwfjJwjme69PJat3yOX4Hr01G+P1V+0RGbCyeWayruvc26N1euzVi6mE5ZNMu1buG8hlqTt1G3ljVaCTbkSW2XdvIv8M/Vh+JCJtF1nowsx7Pk+xj8BE/f0b4W+7Ltkt+ReHxZa78zDmm59yrc+ctt/i0b4Oy7ZLfkXh8WWu/Mw5pufcq3HLbf4tG+Dsu2S35F4fFlrvzMOabn3Ktxy23+LRvhqbaXfInCrh1aritpAjjj9k6wspVckYp/lO38rRRg/nRmDmq6d1m5dg+vSRvT7b65tvLs0o0r61NeSWppDMkteWzqnZqi8aOYPlJKoxRQR4fkkdJZCAAAdJWtc0RbWknlc3FrCV0/JJchtZjOJ7ME2bVqn9bWVVWxhggh+5uxfygV9W0vORGN1jhTlw6vqVDD3MJlRFm6qn7GP8h3LpashH/NiM/ILll9lGjG4Of8AEje0dl2yW/IvD4std+ZiRzTc+5VuYeW2/wAWjfB2XbJb8i8Piy135mHNNz7lW45bb/Fo3wdl2yW/IvD4std+ZhzTc+5VuOW2/wAWjfCP80Wf3I/mVsRUtkprM7yy3GdMP4MnKGWavNtKH6UeCzF+l/A2HbW7tNBeD8ZGE+81XPqok5fgPFo3x+qCNETmusTllsUrWeaNjdfrsVXFuVCiyy6Vu5Qk7BuuvvSWILQSbHCNLXXdPcdz7/MnH4p9i1XOY+xUcvwET97Rvhbfsu2S35F4fFlrvzMeeabn3Ktxy23+LRvg7Ltkt+ReHxZa78zDmm59yrcctt/i0b4Oy7ZLfkXh8WWu/Mw5pufcq3HLbf4tG+Gptpd8icKuHVquK2kCOOP2TrCylVyRin+U7fytFGD+dGYOarp3Wbl2D69JG9Ptvrm28uzSjSvrU15JamkMyS15bOqdmqLxo5g+UkqjFFBHh+SR0lkIAABX63/GlXV5gqB6crMCwIAABAGif4rPLVzAUb0GzA0aKLiuMs/MDRvQTUCwQAAAAAAK25/ZZNKrqiwdp8a8qmRSesL0KS2p8aOq9/JHbtolSlRP4UN9MFUV4IN8MmymOEKkOts+FwQOy7HBYz517+eM7XPncB2OCxnzr388Z2ufO4DscFjPnXv54ztc+dwHY4LGfOvfzxna587gOxwWM+de/njO1z53AdjgsZ869/PGdrnzuA7HBYz517+eM7XPncB2OCxnzr388Z2ufO4DscFjPnXv54ztc+dwHY4LGfOvfzxna587gOxwWM+de/njO1z53AdjgsZ869/PGdrnzuA7HBYz517+eM7XPncB2OCxnzr388Z2ufO4DscFjPnXv54ztc+dwHY4LGfOvfzxna587gOxwWM+de/njO1z53AdjgsZ869/PGdrnzuA7HBYz517+eM7XPncB2OCxnzr388Z2ufO4DscFjPnXv54ztc+dwHY4LGfOvfzxna587gOxwWM+de/njO1z53AdjgsZ869/PGdrnzuA7HBYz517+eM7XPncB2OCxnzr388Z2ufO4DscFjPnXv54ztc+dwHY4LGfOvfzxna587gOxwWM+de/njO1z53AdjgsZ869/PGdrnzuA7HBYz517+eM7XPncB2OCxnzr388Z2ufO4DscFjPnXv54ztc+dwHY4LGfOvfzxna587gOxwWM+de/njO1z53A6qrdFhlgr2mJnRVc1je2cyecNFG0zlc2zJ1su1eoKYasaKqUc31Y4IocdXGGL6+6BzGWjMsBLGybVhdO/iCKSOzQQRzOVthAnB8mH+FgOT2OCxnzr388Z2ufO4DscFjPnXv54ztc+dwMLvToXsh+ZKmUaLzAye5ldydB5g6byWsr+VfM2qS8O7BtoEnM0ihwj1Y4+F+OB23Yl8p3W/603rjvN61upnUv1seyNrLeHU/U2W9d79VNlsNlwNlq6urwQLJSuUs5NLW8nlcGyQaowJIp/yQQ+5gBzAAAAAAAV9yb/CQzXc/sv+j2jALBAAAAAAAr9ozPg0zfnuuf8Av7PwLAgAAAAAAAAAAABiF47xUJl+tTUV6LnTXFjIqalTiZTJbDDaR4ppQa+MEEPx1YvchgTw92KLHCGH64Hn69kNU5p6pZ5iM30nwevsVd80Xb579USyhm/xINl725mOr7+8i1otbXTR2SJ1azcHKbdTFU/f+fP5OZXy/Rjo/wAlIJuTUAAAAAAAAAAAjqGi60y91q8zCZL9hJ6mVV37U9IY9olNfJw92g9g7lF5q8FCYQ9sTi1dptUddI1G9cGouG2PtNosfCDkURE/dL+2EvZQGZGzdOXytm7WXkVSyxN0y38hs10vuRorJfel048FE40/ixpxQ/cOSuqM4AxC8d4qEy/WpqK9FzprixkVNSpxMpkthhtI8U0oNfGCCH46sXuQwJ4e7FFjhDD9cDz9eyGqc09Us8xGb6T4PX2Ku+aLt89+qJZQzf4kGy97czHV9/eRa0Wtrpo7JE6tZuDlNupiqfv/AD5/JzK+X6MdH+SyHrsUT12Osb1Zx9cvrb6u9S9gp/ENvsdtr6my994Orra34ptGcZ5NbzjPJuW/uXRV1af9dtEzffktRmjtjtt7xp9vaLxtnEHDghi4KqEcPyYvi8E+Rt6H1t3LuxRFoKIWuJc6cdTZOiu3bLPd7qKcNwvAilwEYIouErHBCMRXThYzI+s7l27aylqs7d49pRR2qxJmXnrddQFwKVurRcnubRE335J5/K276WPN7xp7RBWDXhj1I9WKDWh+VDrEeJiYzh6dwSkMAAAAEdQ0XWmXutXmYTJfsJPUyqu/anpDHtEpr5OHu0HsHcovNXgoTCHticWrtNqjrpGo3rg1Fw2x9ptFj4QciiIn7pf2wl7KAzI2bpy+Vs3ay8iqWWJumW/kNmul9yNFZL70unHgonGn8WNOKH7hyV1RnAACv1v+NKurzBUD05WYFgQAACANE/xWeWrmAo3oNmBo0UXFcZZ+YGjegmoFggAAAAAAV+zlfbzyuc/rv9xqsAsCAAAAAAAAAAAAAAAAAAAAAAAAAAAAAAAAAAAAAAAAAAAAAAAAAAAAAAACvuTf4SGa7n9l/wBHtGAWCAAAAAABX7RmfBpm/Pdc/wDf2fgWBAAAAAAAAAAAACo+lsmMbu39o7VOYv4OrW90vbzVHc99SlstmlQpQf0iToF1waw0Yy8UR52Ka/TxbLpp9DBztzjgBhru9lJtb8M8v+83vVh5SjiokV+BvTeiS8DaODX19ba68fydXV+MReNHG4iXnGfKXQMc5mXFamHdZ19dKSUTL2k8nEnwVreftGGKqkvfbwcRway3vW11NWL8eHW1dYiTj9DTGc7Eum34+ucqYzl+Zgs4eXvLPRHr4uXciV4qvJXg+ktPsJu06pTxCHU1o2SSy0O+NXX1uD8U+43HaLQRtl8wGAx2NjN3bvMXl8lVdrWsm1+KQZVaiz3wtTS9TtE5ikjsNttom+vtNXZcLW1e54RInG6DPi5+xH5uuHF42Wzoz9LF7aZ6sq1y7WU7d/G+tMSaU1e8UZSGGpKlYt1HDqCPUjbQ9uihiX/wcMUUXbICJF5tkxE8aEvmq6RMxlOzp9DNLmXip607mmmlRM3y3rtqtvImW8dTtS6sEccEauvHD2rtHxdaL8UmYmYjLOEOmcn5Ir7WMqiezymKWvTS8xf0thj67Jayn7RdaU7n199QwR6zfuFPfNXuDzGN0dVU5TGce56m2100xVMbJ6J7fU12tvjZe98uXf2Xu/S9Xtm/8YUpefIP4UdfX1NeJKOL5Ef+gfacVRXGdM5leir0dc0VxlMdMT0wykmIIBmeigeOZRFfG1WGOOMvkF4I30mSxx96Tmcnl0ycwfzn7l8r/wA+cT4S7LxU7HYYzs2h9S3pRrlUfS2TGN3b+0dqnMX8HVre6Xt5qjue+pS2WzSoUoP6RJ0C64NYaMZeKI87FNfp4tl00+hg525xxXi7Ewe2ezpy3MDVFCVdMqWmdqnFPb9pCk3s6jbP4JlA5hgVQlySzmCFRLX1VNns+BqxRcKEpMTpKcJcor6suzNsOi0dWnwHFjLP0zEe+ZiFVJ1bamWlZUXKc02WyoajTnNua/nDKikaYdTdwxXfz9Jyy27VnApsV9kv75FjqtVMcNZROI1+cLETH0lPe/NZ011TGWF0/h+fl1+lyrqWCue6kzqUZhrFVhW9zVqWoL1l1LK6ZdThOUb1jS6qo9UEe1tI98QLrr60Se+oVIPf93VM+Kwue3Hbatnz2vmjrmKf3Sf2P7T49W/b1Zuwqy0Na3HzdpT+aZWoGUS9zKgZVYv1pZq4dPZMrK5g2bxuqieOIm0xYuu06rFFHYt+1J46urw04Wqbttp93xe+PTTa4y0231x+XV7ZYLOMuNwHVm7eyxS0E1k0hZ2NaSmmpZ1gZrN5jI6rhcRdUHLVFJ2w6iTFRXYKwTJxqoqamttoYe7jVYKeLTs6u75y9bPocdlVpv8AX4v9c/VktJpCpXI8La2TlN4KSmlVMOupK/XNLWUojdrvoIJc93xrtW20icQ/LbJ7TaJ66fbdcvrz9mjjKK2Z8bTZK83OszcOeWwZW2VypRr0u8QrRzbGXVPaac1NjKEXD+DqfLEpai4boSBeJLtqTl7q71T7V2vtsJQYqmeLERTs9XnJsGir4lczVppn1TEdfbtz8z1NF3aLVaSWX1BmHstVMyrN4tbPrf1Y+pl1/BDWBZhA+ZxPY+CxX37vuJVBSJNRxt4OCp8STicpnOuNv7Dzn8P0Q6ONFE8mnZ+12enbls37erPqzZNLLDXoxzezqfVXJ6lwqnri1G+WqClbSOoJk/kCrVbejeKqlpohL4mux3tCkz2cSiLhBLtPBjUPX0U87Z+ns6v9Ry2nmyZ8/wD9WXntTPo0bfoW/iqGVSCz6UnlGEllSWNQ42umlFLzN3BivrQOpY+Wi308T4ESsyR1U3G32f8AY5YWaJ4s5bPZl/X1oF3zzpz7I/mirdl0erphao2NrTM9FA8cyiK+NqsMccZfILwRvpMljj70nM5PLpk5g/nP3L5X/nzifCXZeKnY7DGdm0PqW9KNcgFfrf8AGlXV5gqB6crMCwIAABAGif4rPLVzAUb0GzA0aKLiuMs/MDRvQTUCwQAAAAAAK/Zyvt55XOf13+41WAWBAAAAAAAAAAAAAAAAAAAAAAAAAAAB0Na3Ft/bSnlqrubWspp6UobmC8znz9Nm3T/KVWxhhAhxxpWtFw2i2DnSSWERU3PrY3gkm7/6XIH52V3Rcd8wsD4ZJF5SA7K7ouO+YWB8Mki8pAdld0XHfMLA+GSReUgOyu6LjvmFgfDJIvKQHZXdFx3zCwPhkkXlIDsrui475hYHwySLykB2V3Rcd8wsD4ZJF5SA7K7ouO+YWB8Mki8pAdld0XHfMLA+GSReUgOyu6LjvmFgfDJIvKQMmtZn3yP3yqBKk7LZzbTVfNlveJZStxZbMHCuP95JBaKICXAAAAAAAAAAAAAr7k3+Ehmu5/Zf9HtGAWCAAAAAABX7RmfBpm/Pdc/9/Z+BYEAAAAAAAAAAAAKhaWL7NZbOftx+49WGw8F/41Qo+E/8B0/qYYdncfAIMvHR90qEzU03mToG00yrqWo0NMKamcnp+bS5B82UUdNnKLmGGYuG6MaeOwjgj7dtO43E4uGVOMmqnSxpIpmd3xy/P1LjRUU14Pks1RHrz+Gf5blfE7eXesxeGyszq/L7DV9UvVri1M9ouSvmO2lnVJyitqJKu1UW0aqMLrZK9s1dXa7PW4GvVzxqZo2Z/aWNFMVTpomcvu+nP4ZuomeSLM5QVlJ/Z5vYpjX0yre0kkkGEyZziXINaadsHDlbe0W/I01NhDtoN7xIwqdsT4Wwh4RGnAaaIyiM84Sox2CqpnOejSdG3b6tn55M1xsPm2meaWQT+a0FMWlLyK9jioVkpT62WcgUYKy5y2Sfp7GHqs5mPbsd8b4Uhh7vU2sOoSOR3SbpxurP0ZevtYOX2yLX1Zzo/Tn+n5o/eZL81yVAShs8tTXWOKlq5nQkykFL1BSXbMYpksttV1ZvC7hgYukl4O2t/qpPe/ut4uBqxpwGnyjZPZ1fFLox+ApmZzjt257tnX7tnStZeGydwZtQ9oKRpNmu8Wo2uJO5nS2D+BSNJo3aLoqra8cCe24UcHcpwxRfgy/xVNWVDXaZ+/VRrPKFfeKwDGiaytzJLdtrW2wqOUzmuagqeXN5dV+LpwirhqRox9qZuN67Vwo9TR1Yl+5i4URQTgauLtjKKYX9OOnZxZ26XqjPPz2ZZpv0etxpZfS8l5r6UXQaMmkU9Xp9qzWYzaXP03K7RjHAr9Vy5VZotEnrwQ9pWU1YdTWigi7VBaWfGRjuNX1bFXc9HNtq0VM9XnrWrNga+AZZouPtn5i+cST/ALsSs43wq/jEuscFf4NSuIa22RULSxfZrLZz9uP3Hqw2Hgv/ABqhR8J/4Dp/Uww7O4+AcH1pU/64Uau9bLHqwixUbITTe8G3SQjUgjjRgW7rVijggiih/wAGRZ2ymZRnmwKvs1ti7R3WStLdaupZSrx3IkJozmdRTdo0YOcFV40YWySqy0OsvFFBH2vV7kx1Y6iJyqlJi31T0Q7+qL6WOo2vJfaGqr00hJ6um2z6j01NKmat5i91+BBs28ce0V1o4I+5hPvLdHFWVU7Z6mGm2V1UTVEbI6Z7PWxWTZzsuitEy64df3ektEM5xO5hLZMjXE+YyxR8sydxs1cUtZbhcKD4vxVINYjRj7bltmIZ4t9xq6IdnVN5cr8dyJRba4F06Bxq5tNU+oEgmk+Y4zJF/ihwNg3jj2mC+yX+LDraq/45nqxVuiYjjRmjxo7lVTNURsjp9Du298bMTKu5va2V3dpdWp5EyxcT+Qoz5BR9LUMPrrLt9faJQ9sT4UUP3w9xpKJmYidsdRNFdNMVTGyeifV0sUoKlMl1/q0TzKWrpy11bT1mvvdO4tPIS6Zu2qkCepsYZgjrRQRwwR6urtO5jIlPNel/tCMpntSpm6YCOQzMxHYlMt1OAAMs0XH2z8xfOJJ/3YlZxvhV/GJdY4K/walcQ1tsgBX63/GlXV5gqB6crMCwIAABAGif4rPLVzAUb0GzA0aKLiuMs/MDRvQTUCwQAAAAAAK/Zyvt55XOf13+41WAWBAAAAAAAAAAAAAAAAAAAAAAAAAACA87mbd1lxpmU0RbOUNJ9cauXDhrRUkexfUqOCWGu7mTzZ7keDNtDHBjHq8NRRRFGHciV1sJuCwVWO0sUQi43GU4LCTp56lQ08uVNVHVCV1cwU3WujXe57tT1zqON46/uxwMGnvErQ93gpNoYfr9siVi4Z1u12O22+Njldwv2Px3QzOqaopegqWd1RWlRSuQyKXI4OHcymi0CDVihD3USqsfBghh/GLyqaaImZ6lbTTVXMRTG2XBmV37VSKVyGoZ9cinWjOpXiDennryboQQThZx/F0W8ccfbolPiQw918UwTVTHW+xE1dDIyWhAAAAAAAAADHa+s/aq7sgVkV17bSSpJepjuwtJ3KEHkGGP5K0ERFxVNNUZSmUTMVZw49tb6V/o9nzOZP6wm0/sTtcIanlNRP13j6gm8WHuTJk6W1lVpcj9/ZqRRb3R7Yhqwpb3j53fuC9GHonF4OM464b9ZL9Okq5Niul6KNXTZ62gdtFcFUlcN1NTD62OBorcm8AAAAAAAAAAV9yb/CQzXc/sv+j2jALBAAAAAAAr9ozPg0zfnuuf+/s/AsCAAAAAAAAAAAAFZdKjbOf1bliRuhRcnXmU4tTVLKtGktb4a6zpq12iMxRShx7tSKWun0MEPxlNSH7pY2fG8hucaRX3DAxjsFOg7UN0/UFP1vT0sq2kpwg9lszYpvpW9Q7h0grBrwRwfixQHc4mJhx3pc4yIoAAAAAAAAAAcSazaVU9KXlRVC8QZs2aCjl69X7XAnBB3cccfxIYTHMxHWlbUp6KOhZqwy+T2+9RShdm7vFWjir27N7DqLpSzFq1YSzXgi96iUYMWq+KX3uNxHCcNvGO5dcprdhwGB5Dgo0C1BWrFWXSo2zn9W5YkboUXJ15lOLU1SyrRpLW+Gus6atdojMUUoce7Uilrp9DBD8ZTUh+6WNnxvIbnGkV9wwMY7BToO1DdP1BT9b09LKtpKcIPZbM2Kb6VvUO4dIKwa8EcH4sUB3OJiYcd6XOMiKAVRzcWUvVUWYac3BonLYjXktn1i3lGIPcZvLU94v3TpSPt8DxZP6k1PftntFO41E1TX8fFU6XPidWTYLdETgsvp/8TzCObp5W85biok6IldLzCZyqXTuhnGEzp3GmW8rnaEqwl++3UyVeQRTZZ9DGgtqbOJNHYwJQ62trQRxJwN242Xq7P6pkY+2Ro56M89J25/pv2upuXlSzrK2zmdtaXtnMWuM+o6rZZg8pf1rbVRd7OnrlJtM3c0hWW6nRt1kYsIWOO02iiuvq8AizgLtOyPT2e/NK0WPtlOczl7/dl8ZSFM8ot2ZpKa8mnWpR6pT6vLfTKVbeYNNdVpKsJXvmPX23A2MaLr8aL73ra8BN5BPZ3UDl+X/UcCf5YswdY5d6zynOsvbdOZq41WrLLrzWfy7YuOqT6NylA11Ns52riGPZONsiinDqff4dQ+ci0s6GcDl7fO165bgYxkYyJ/8At+fmk/JJaG6NE1zXt17pUvXUrdVJhJ227cGcU0o+dbyQj4e96dZptkYYdvsoYollFFIYOFClqQEiz4WqKZmc/d8GK7V0TX9WIy9HG/8AdtWINha2AcSazaVU9KXlRVC8QZs2aCjl69X7XAnBB3cccfxIYTHMxHWlbUp6KOhZqwy+T2+9RShdm7vFWjir27N7DqLpSzFq1YSzXgi96iUYMWq+KX3uNxHCcNvGO5dcprdhwGB5Dgo0C1BWrEAr9b/jSrq8wVA9OVmBYEAAAgDRP8Vnlq5gKN6DZgaNFFxXGWfmBo3oJqBYIAAAAAAFfs5X288rnP67/carALAgAAAAAAAAAAAAAqDcmSYZkM9ldWJvLfCtqUpuh7ZSSd0hJqJuTMaXjd78cPoH02cKy5Vsu52OLZBHBJVRRslu60SesqBGF9NKDce1sNssMtdx2F0acVZUjFWc0qS3Crd2+l05m0EubTaOYRzGWtm0brt2yQaMHqkUSe02KSEcOIHUyzSwZuaWpOeXhudSVvJxTalK3SmVP09IZQ+l79gvSU03mlvp2s8XTcpOIeHHqt0MUf5VQMhvTn4z4WjcUpYKlXVpLl3Qq2oV4Entu5RBimwYpSVOZbFxJppUrHZOVMY49nj1V7Y2T3xCj96AzfR45k7s5gbk3NuJcOLBpjHQVETJGmWVXoTiUyx04YO43G8VWay7aNJSNPCLaIqRbTcg4W6BBSOlxzryHL/TF16iYWenMxuFa2WVfS7KSSeZJt5IpFPZXKnDZ7FG/V33tOqO0SiT3tsVG8acW37vEMjdZ2c8NOXun2XK39S209cWFVVdhNKmqKmZ6/YqxyanpC9+p5fHPcYmaa0T1eDYJuNknwFNyJTa7YMRkmeLMrWWapvcKaVe39a1WyGzD6W0Gg4mzdORKTvCaKOMYFWr9KFbuFNfao7NaHe0Kif1Pww51F6W3O/1p6OrOt5Pa1Z5du39Mzyi15ZTEybs6UdzWoWsni6pYxzFXF8gnvyBftcbSLdg2PxtqBcHIjfm8V9KXr9pe57SDyd0PdOaUnhMqIYLtGL5NnAh2/ZLuXMaSkUSkesntItn3OtFq6+IT4B56XHmUVyNIZeSppxuY+sFvI6HkmOH9jJ9TWs7cRw/jLRzhCGP5W9EfkHR+BcZRXW57wvnP6HDu7OgtFQppGd11kdui2d/+SLr9uBVXiIi11ytrd/ENCpxULabz6f01Yiomiy0ty63MpyUMnqyGzgVXmFSMo5fq/LiRk6cCWtD/bUZRbYnL8Muquj/AHmypmaqqaXhnUzom6s9ZLPJXcFvOWT+8sxmcyZLtWj6NpA9ksDRJhIFU42us2wRi20ScH33tsRG5dPGmf8AV/N8OiGacFH0dNP+3/hR+fTPt6GaTOrKty80HVic0vZcucS6Z2MoybzJ7MbiOto3mT2ZLNnT+B673z1JbRfWWVbw7rdGCNRJOGKEzzP0ETMz/L2+cnzPnGYierSdUec59/pYxbC+ruarrUnd7MO+kVo0ruOG8zqeSXvnEzRaox04i4ZNUqkcQtncTNw72kW02kKcSmojDFFDFw8VOLnr+zn3v/c81aPKNn3v0fh//Exqe31vr1laGhqLMK/k8nWtvOHNKVbV92ZxTTp7PIJ06SxU3WbFyrOXSLdNpuStZPhbTgoqfFw1YqqYjb75j+vqlO0FEZznt9mezr64y9cb1rM9lfzelsvdq5pcu780o9OZ1/T7auqgpybryvZtVUF996yvaFW6Hy4otnEjD2ztUUJsFwnLQ05y123RM4/TREZoLrC/Sra3VPUc9unUjulphW9W426qeoL2zGmWk7lLXU3pjHOmjZzMJovtl195oQxfVUEGEam31YCqnHRFMRu+tl7+mVvTgJmuap/7UT7vOW5h1QZha4n2X9Cq71Zla3puskbS0Y8ti0ldbPpfHUC6v2VcxII7PqirrbqS+0hU2Ce6p2jW1iNOOmY21bcv6svIopzj6HZOk8+r2SkiQXfv+6z0L0/P7xNJPPkbtP2ONJY3DnLh04piFrHstSmEZcq0hS2Oo6hme2h1lODEtwtmS86udtvb5+qjxxebfP8A3c0jaOSv46gr+oKdiu+/r10jTzd1OKhZXSez5gqtvhT+NS98inFTcxU/uaj2uCHXh+8wE2zYjjZxn75n3dXq6GC60zEU59nZEfl0+vplbs2VqbjzWUtZtKlpTNmaCzN6hs1kV+2QKJx93BEeNkpXQmDRNz6bTTIzS9JT52o8WoeazujEl3C20jUayWcO5a0jii+PHE1bIRRRfKOBYyMtJU7Vg5mcJo/Umek73Whr6u5/bGibkyScT2lY0IamlMsfwOF5ZGrr4QQL6mOOyUx2ePBi4WG5h7nChI6QzEAAAAAAAABX3Jv8JDNdz+y/6PaMAsEAAAAAACv2jM+DTN+e65/7+z8CwIAAAAAAAAAAAAAKPXoyLXosNUMyrbJTTMqqWkJk9UfTO0j+Y4S9eWOFcdZWOROI+0QJKRcOJi52aMMWvEkslD2o2mycJKrf9WYzpa5erHTcKONH3iL3F95tInHUytssV/JLMfvzNKxNQTfZ/wDSJO0dto/5qkRvOtdnyzzaXqnfO1s+yLkHzB378WWufNA1wtPel81UvPhRvg9kXIPmDv34stc+aBrhae9JqpefCjfB7IuQfMHfvxZa580DXC096TVS8+FG+D2Rcg+YO/fiy1z5oGuFp70mql58KN8OFS+b62tfUvLq0om1F65zKZwygey2cynLdWjlo9QVg1klklYJTqrJRQ7kcMUPBi3TzHCmzz/M+zwUvfhRvhzfZFyD5g79+LLXPmg9a4WnvS+aqXnwo3weyLkHzB378WWufNA1wtPek1UvPhRvg9kXIPmDv34stc+aBrhae9JqpefCjfDfRvvNp246l0Tljv5Onf3lmpYKo5RtP+kTVo0bQfzlITzrXZuqX2eCd8jrhINrMhV9My81aT/OfTSFH2/Yu4HSVomU5TfvqhVgx1oOrTlHtEDeGL3d4tlF01d3tziJPWbmlXrhLVcNkRlDb7JYabdTmveao2gAAUevRkWvRYaoZlW2SmmZVUtITJ6o+mdpH8xwl68scK46yscicR9ogSUi4cTFzs0YYteJJZKHtRtNk4SVW/6sxnS1y9WOm4UcaPvEXuL7zaROOplbZYr+SWY/fmaViagm+z/6RJ2jttH/ADVIjeda7Plnm0vVO+drZ9kXIPmDv34stc+aBrhae9L5qpefCjfB7IuQfMHfvxZa580DXC096TVS8+FG+D2Rcg+YO/fiy1z5oGuFp70mql58KN8Hsi5B8wd+/FlrnzQNcLT3pNVLz4Ub4cKls39ta+piX1nRNqL1TqUTZpA8ls6lGW6tHLR8irw4VkloJRqxpRQ8OGKHuj5HCqz5/a8+e16ngpe4/wAKN8Ob7IuQfMHfvxZa580H3XC096XnVS8+FG+D2Rcg+YO/fiy1z5oGuFp70mql58KN8Hsi5B8wd+/FlrnzQNcLT3pNVLz4Ub4b6N95tO3HUuicsd/J07+8s1LBVHKNp/0iatGjaD+cpCeda7N1S+zwTvkdcJBtZkKvpmXmrSf5z6aQo+37F3A6StEynKb99UKsGOtB1aco9ogbwxe7vFsoumru9ucRJ6zc0q9cJarhsiMobfZLDTbqc17zVG0AACv1v+NKurzBUD05WYFgQAACANE/xWeWrmAo3oNmBo0UXFcZZ+YGjegmoFggAAAAAAV+zlfbzyuc/rv9xqsAsCAAAAAEZ5vrxT7LrlJufmBpqVtXcyoS3U8qFk0fY47BwuyYrOYIFdThasUSeGtq+79cDBGdFaUh22Sc4ZqbBdtS3cf/AAAzz0rA3ut/pSuVTYLwBzz0rAesPSkcq2wPi9zz0sAesPSlcrGwXi9Tz0sAesPSlcrGwXi9Tz0sAesPSlcrGwXi9Tz0sAj+9OR7NhmQxl2OYur8o1e9R1VI5NjW2Up9Nd5RxYcKNLfNUxbHW1MNbV/k/vAK/wAi+bC7FatLkXPqzKNUtQy2X7yllQz7KS+ePmyGvr7FJZaqYooE9bHW1IYtXWA7ORZTs8dOwtcZBd3K5Lt44zDBlgxyrzJPe3VBTavsINWq+BvhXtiu577FwowMV7Gbe3G0ilgt6ZLPWKtM+qi1GewyddSY3+5ub53p66djtdz77q6wGaSnLdpBacxeOqSv/lplC0yZN2bteVZYpqgooi3g1G0EUcFWcOFGDHVTg+tBh3O5gBE2W3RJ3zys2gSs5QFd5VXjTeLFrUE6m2Up0rMqh3ljrtFpkqjUyeDxWCPhQxRw8GLhQgSanlIzr+utzW3Xcyt4zhVZ2qtNI8qMy30pG7QRRcx7XGrNbdWSQQTUx++QoQQxdzgB1uORLNdHUUuqrGtcpGMyk8rZy6VTPHKC/wBuxaMotZo2Rj9dmsmkjFwkoIdyFPc4IHR3U0dedq4lpHVmqdzHZaqMZuqY9baL2ncnmDjFrJtpBHHLU28yqN203rHqcJBRvGn93CHW3IgNeTXR+58ckFl4LKWmzkWLVaYzVxMnT59ljfIKOV1scN3tLCqWzVGCGDBNKBJuimmmmnBDDCBLXW40o/LGsF4tU89MgKmWslV05VmVzJNb21fIJ9UaN4WHVSc0xTK8oYuMcaHpfFLBJos8eKI6qWMEMWs5U1ouFwdfVg6fwKyi2Tl3v0c84X/36P8Abn85SIby0YAAAOjoi5tEXN6p4UPON+dRp44k80+p1E9m7b8BZHhwQ6+r8qHgkWJTOljOZOT2ixtW8rC9dX1PJ6cprBWYvXlMVXOJSsmnDhucKKUOE1lof8HwocPkmLHUxVR9b3TMfll80q3aSdHPGjL2xE/nmym31FURbOiZbby3smRlshkzJNtLGSPcJwQ//XCii4UXxjLGGimOhF4zRW1saJuD1G9dsn356354nOJX9UKJ72dpa8EC3Aj4fdx8GLgiYzkd4SkNH1yctVn7v1g1rG4TKoJko1xbq4yXGtJrBJlFG6m2RjVlsLiFk41Y+F2xGLuIPkkKcDRNWcz75/JPi51RRNGzKfRGe/LOPYkEmoAAAAVkktk9J7cqzeE3y03Sljiz7O7Vd+vu3spkLvCezJf1zTLdW1kZvK1XiGp3TZN+21u52bo4Vev4pU7XZc+b9EtHk0jzGVVb/G3uU/Ntlpp9nSuq2mdBIZTZ5JphT6kWHcPJYtVyS7RWLcxx7YnDip7sW7F9crFimfrcaUrlk2C8WmeemQDrcaUrlk2C8WmeemQDrcaUrlk2C8WmeemQDrcaUrlk2C8WmeemQDrcaUrlk2C8WmeemQDrcaUrlk2C8WmeemQDrcaUrlk2C8WmeemQDrcaUrlk2C8WmeemQEHZVKB0jjq/GZf1v5qLJtHiN7WOE6Xe5fJwum6d+sWlNxZCDCq097J7DFBPZxxLRbRNVTaYQq4IpBOPW40pXLJsF4tM89MgHW40pXLJsF4tM89MgHW40pXLJsF4tM89MgHW40pXLJsF4tM89MgHW40pXLJsF4tM89MgHW40pXLJsF4tM89MgMuyl2NqHLZZZK2dWVy0qWbrVHP57OZ4yk+MvQdPJrOX01cYJNo3C8SKUKr2OGCGJZSLVg92LdAlMAAAAAAAAAAAAAAAAAAAAFftFWpDho0rDoY4e8WmkDfH+YxRg/8AYBYEAAAAAAAAAAAAAAABXzRTRQ9jdsa3w+u2tfJ22P8AzTWBP/2AWDAAAAAAAAAV+t/xpV1eYKgenKzAsCAAAQBon+Kzy1cwFG9BswNGii4rjLPzA0b0E1AsEAAAAAACv2cr7eeVzn9d/uNVgFgQAAAAAgnSkcWZmK5iKv6GdgTVKfsQ1/Mp/swA5gAAAAAAAAAAAAAAAAAA8+b5051otIdX0im0WKTO7kkl9XU8tq44YOHbJohKJmjBj92NFJrKlYvxXZ0TgVjc4nRtE4W4HZyl2x0Rz4AAAKB0XaF61zKPKgp3LjVLO4XskJnOMa4e0y7btMaQ1FN8QQzOODYYtlu2JQtNprKLKb42f300/kv9rdH1uN7m18b+zOn9j9H+u9EkNn70T9Opp9TuVqYSB7PrRVS3qaWSSz08YvuqqrtmskzfzJ84XiqF17/qO8E9nH23Ui+LBAjC1Tn9XqnqmP6rbSzRFFOWm/nj+aJ7c9kRs9U7Y9OaT3VA3Jmee+T3AbZeIpM9l14nHVqdI2snKkxVkvUpy2Scq1Gq43s4YrcH+D26Ozb8CHHV1PdmZTzx0dfn6yD0W3z/ANr+n69DRmUm7FrbK0bM8v1lJ7Ia5n1gqnbVbM2TBRo+ezGNxL427V0r2v6p1NvC320Wsn974MAjATFOyNvFfOcJnKmZ2cfcyC81oaEqKh6axy35XZ9SlsWVa74rqQVLYuazCVTJx1JwRSW9a0CzR24STX2OCisKMMO21VvqjZRqwsXTx4/Z0/V9NP8A7TRVRTH7zpv2v+7/APLktNkSpWqbf5U6PpOqsJ5gqzZqbBGpJB1Mdtmka8cbdGNpE7dqN9mlqJQJqLRKQwpwbTVi4BeWiP7NpzUdxy5x2JgLdUgADqq0rWlrbUXOLgVrN0ZdKJOyXfTN4rhwG6CUGurHF+TCY6qoiM56kumKqpyiFgNGPbWqrY5JaSwuHJ1pdPqlXmlXTqWPMO3sV51MXU2iZq7vx0N+7CL8ycDxmI+k0szm7RhKIw2FiE8YSplg/Wm0LFDF0u3TSWWww4ccEG0xgg1tzd1cMVFNz8uL+UjpLmgAAAAAAAAK+5N/hIZruf2X/R7RgFggAAAAAAAAAAAAAAAAAAAAAAAAAAAcGKbSqGboyiKYN8HS6CiqLXFbDaKQQYp4RxQw7vcw7SDd/LhAr3oxalkEryDWVp2aThkg9e0jA1lTNdeCBR1G3hj14UoN3h6sEGMWOr9aH3QLJAAAAAAAAAAAAAAAYnPbr2/p64tPWmn9SYNJ9UyDxxIGThBTde701MV8IFdzZ68MCmEWz1taKHWiwhxhgiAgHRtXXoGi8n1iLPz2osE59U1MPE6flmLZRRRwnLtbfMeGMEGqkmnwO2KakO6okn7sUcOGIWqAAAAAAAAAV+t/xpV1eYKgenKzAsCAAAQBon+Kzy1cwFG9BswNGii4rjLPzA0b0E1AsEAAAAAACv2cr7eeVzn9d/uNVgFgQAAAAAgnSkcWZmK5iKv6GdgTVKfsQ1/Mp/swA5gAAAAAAAAAAAAAAAAAAh/N1lSpvNVb1tTzuoXEhqeQPsZlRNZMEMFHMjmOEGMGEeEOO5gqipBHGkuhFwVkVI4eDjqxwZ8Hi5wNXGiUbGYSnGU5SpbWNxroZbVeoGcGz00pVVH3PX3JGC80paZwfhoHaMEUTHW/APYUYofuRKw8I6hguFNsx1OWM+q51jeCmPwMZ4T9ox7DSFZC4vrZ2LRpfnriypOP+sF1N3tfXiad/wAlNFuuE9GH0jV2QXILy6LPeE2VeUHrni19+Hrmy5+BpDsguQXl0We8Jsq8oHPFr78HNlz8DSHZBcgvLos94TZV5QOeLX34ObLn4GkOyC5BeXRZ7wmyrygc8Wvvwc2XPwNIdkFyC8uiz3hNlXlA54tffg5sufgaQ7ILkF5dFnvCbKvKBzxa+/BzZc/A0h2QXILy6LPeE2VeUDni19+Dmy5+BpDsguQXl0We8Jsq8oHPFr78HNlz8DSHZBcgvLos94TZV5QOeLX34ObLn4GkOyC5BeXRZ7wmyrygc8Wvvwc2XPwNI35bnmyk1LHvG3F75LXkzxx3EJJbSH1zv1cfxW8q26n/AHSNiL7a4j7WbPFhuEdOhSvYzKBejNHVUouHmfoRWh7ZyWZpTCV21m2CCk2qZ0lHrt1ptsYok2zNOLUUhY60Si0WEO+NlqRN49B4R8I+XxFFHQ3Sx2LkM/TabpXzNTbUAAAAAAAAAAFfcm/wkM13P7L/AKPaMAsEAAAAAAAAAAAAAAAAAAAAAAAAAAACBM9tvq0io2T5mbPU2tNK8tDMo57JpUyh7fPZbjBqTSSw4+7uxOmmvst3DVhdJtFPvQFaNCKrjmdoaQ5oY4cFqMoGnHFF2pUxw3U3qizrFzOJun7nua0W9GEGPBiT3g7w7lUD0SAAAAAAAAAAAAAAAh7OjY6qL02c35bSNFC4VGzRCprbvV8dyBKdNdfURji3eCg6SjWZL/8Am7tUCtOhBt1cOsLP+yxvFSMykbtVg4pS3sgnTfYO5ZIm79ZZ3GqlF70q6mG01vlIsGcQF9wAAAAAAAAFfrf8aVdXmCoHpyswLAgAAEAaJ/is8tXMBRvQbMDRoouK4yz8wNG9BNQLBAAAAAAAr9nK+3nlc5/Xf7jVYBYEAAAAAIJ0pHFmZiuYir+hnYE1Sn7ENfzKf7MAOYAAAAAAAAAAAAAAAAAAAAAAAAAAFf8AP99gbS8/tJf14CwAAAAAAAAAAAAAAAAAAAAV9yb/AAkM13P7L/o9owCwQAAAAAAAAAAAAAAAAAAAAAAD5EJ9pPvVFLWeu2stvnf3Zb7U2OGFMOO53f8Ai4HE7KT6o4+fe/n6rOPJQHZSfVHHz738/VZx5KA7KT6o4+fe/n6rOPJQHZSfVHHz738/VZx5KB1VEaQbT8W1pVvRFs66vPT0mZ4qbzlUioWJm1S148Y49VJFpDBBuxxxxY7mHdYgdr2Un1Rx8+9/P1WceSgOyk+qOPn3v5+qzjyUB2Un1Rx8+9/P1WceSgOyk+qOPn3v5+qzjyUB2Un1Rx8+9/P1WceSgOyk+qOPn3v5+qzjyUB2Un1Rx8+9/P1WceSgbDXSreqHJku6bS3MHfRVZgtsHiaNPK472j1IFNSPcb8CLUjgi1fkxQxfWxwA3+yk+qOPn3v5+qzjyUB2Un1Rx8+9/P1WceSgOyk+qOPn3v5+qzjyUB2Un1Rx8+9/P1WceSgOyk+qOPn3v5+qzjyUB2Un1Rx8+9/P1WceSgOyk+qOPn3v5+qzjyUB2Un1Rx8+9/P1WceSgOyk+qOPn3v5+qzjyUB2Un1Rx8+9/P1WceSgTPo5tInp3q9z+2Uo2+1473L0ZNrpyBnUqM1p5dNoqxVfIwKwKxYt4cIU4oMccMfdA+pMAAAAV+t/xpV1eYKgenKzAsCAAAQBon+Kzy1cwFG9BswNGii4rjLPzA0b0E1AsEAAAAAACv2cr7eeVzn9d/uNVgFgQAAAAAgnSkcWZmK5iKv6GdgTVKfsQ1/Mp/swA5gAAAAAAAAAAAAAAAAAAAAAAAAAAV+z/wD2LtLz+0n/AFvECwIAAAAAAAAAAAAAAAAAAAV9yb/CQzXc/sv+j2jALBAAAAAAAAAAAAAAAAAAAAAAAAAAAAAAAAAAAAAAFfsm3wg81XP6z/cKkALAgAAAAAAAAAAAAAAAAFfrf8aVdXmCoHpyswLAgAAEAaJ/is8tXMBRvQbMDRoouK4yz8wNG9BNQLBAAAAAAAr9nK+3nlc5/Xf7jVYBYEAAAAAIJ0pHFmZiuYir+hnYE1Sn7ENfzKf7MAOYAAAAAAAAAAAAAAAAAAAAAAAAAAFfs/8A9iLP8/tJ/wBbxAsCAAAAAAAAAAAAAAAAAAAFfcm/wkM13P7L/o9owCwQAAAAAAAAAAAAAAAAAAAAAAAAAAAAAAAAAAAAABX7Jt8IPNVz+s/3CpACwIAAAAAAAAAAAAAAAABX63/GlXV5gqB6crMCwIAABAGif4rPLVzAUb0GzA0aKLiuMs/MDRvQTUCwQAAAAAAK/Zyvt55XOf13+41WAWBAAAAACCdKRxZmYrmIq/oZ2BNUp+xDX8yn+zADmAAAAAAAAAAAAAAAAAAAAAAAAAABX7P/APYiz/P7Sf8AW8QLAgAAAAAAAAAAAAAAAAAABX3Jv8JDNdz+y/6PaMAsEAAAAAAAAAAAAAAAAAAAAAAAAAAAAAAAAAAAAAAV+ybfCDzVc/rP9wqQAsCAAAAAAAAAAAAAAAAAV+t/xpV1eYKgenKzAsCAAAQBon+Kzy1cwFG9BswNGii4rjLPzA0b0E1AsEAAAAAACv2cr7eeVzn9d/uNVgFgQAAAAAgnSkcWZmK5iKv6GdgTVKfsQ1/Mp/swA5gAAAAAAAAAAAAAAAAAAAAAAAAAAV/0gH2OtBz+Ur/W8QLAAAAAAAAAAAAAAAAAAAABX3Jv8JDNdz+y/wCj2jALBAAAAAAAAAAAAAAAAAAAAAAAAAAAAAAAAAAAAAAFfsm3wg81XP6z/cKkALAgAAAAAAAAAAAAAAAAFfrf8aVdXmCoHpyswLAgAAEAaJ/is8tXMBRvQbMDRoouK4yz8wNG9BNQLBAAAAAAAr9nK+3nlc5/Xf7jVYBYEAAAAAIJ0pHFmZiuYir+hnYE1Sn7ENfzKf7MAOYAAAAAAAAAAAAAAAAAAAAAAAAAAFf9ID9irP8AP7S3+vUAsAAAAAAAAAAAAAAAAAAAAFfcm/wkM13P7L/o9owCwQAABF13M6uTPL7NPW7fjNrbOiHu5/EqtrqXSxT/AEHK0GIGHdld0XHfMLA+GSReUgOyu6LjvmFgfDJIvKQHZXdFx3zCwPhkkXlIDsrui475hYHwySLykB2V3Rcd8wsD4ZJF5SA7K7ouO+YWB8Mki8pAdld0XHfMLA+GSReUgOyu6LjvmFgfDJIvKQHZXdFx3zCwPhkkXlIDsrui475hYHwySLykB2V3Rcd8wsD4ZJF5SBlFrM9OR6+VQYUnZTONaysJmt7kMspW4EtmC+P8xstFEBLQAAAAAAAAAAAAAAAAAAAV+ybfCDzVc/rP9wqQAsCAAAAAAAAAAAAAAAAAV+t/xpV1eYKgenKzAsCAAAQBon+Kzy1cwFG9BswNGii4rjLPzA0b0E1AsEAAAAAACv2cr7eeVzn9d/uNVgFgQAAAAAgnSkcWZmK5iKv6GdgTVKfsQ1/Mp/swA5gAAAAAAAAAAAAAAAAAAAAAAAAAAV/z/wD8Ts9z+0t/r1APNvSOSuxkWfPM5UFxK5sK3q6XSWjlKLpisaTQXr6eOoZbrwI0rMN97eXPFFdmlAomwe9uxRi2fue6Fim2f+9k9zNuMnsWYVKSVu9zGzGQIUzjL5apM5ZSytHLv2K0SWxi7Vv3UVhcqe+RQbPWj4cAE7aO6/GYPMTKqyuBeV84ZoyDGXUp1E6nIp7KfS9p/DjyCKCDWVhierRoQ4e9/UPAh4QFRcr2k/urNLaubm1dnQmtz0oMv08qq6smo+l6f3/biZsnDZFpi3ggRQTSXXSjdR7KZqKJrRNNunsm+skB01odJLmXnyHrTu/nwZ01RKd05gyjvtK39NzlONH1tsn8slPVDqE0li2+XCzrtibLWi3pvdFaKLtoGxSekp0gNVVBZffmYiipAvOLaUJO20tqtfqavcd3M19yZ73ljanJg6fxYbmy2UvcMomeMe0V1090CwWjuze5grmZ4LkWKuzmEhr9KWsZm+SaU7DJlpbTuEE1xRbs3ECTRjNZE+wSxxSiYTJF7tsEcVkXvAVgxC/gAAAAAAAAAAAr7k3+Ehmu5/Zf9HtGAWCAAefN/Myt1s59yZ9a20VeTOlLMU4+XlE0qGmn+wmtdP0o8IHCLR2l21hLklcI0Il0dVZwonHqKJow/VG48G+DMY2IxuMjZ1efMy1W/X6cF+64X711VtrIWds1K+pdp7VSOQJbm4tjK2ECajmOLu41Y+6Wii+NFFwoou6OlYbCUaHY5zOP5c4Nz8yOXexjppKb5ZgKKpB5MUMFWiFT1a1YKOE4e6jhgcrQ60IxWO0Ggn60xG560dtuFx+zGbLpTNpTUMpZ1DT05QeM3iCblk9YuNom5Tj7iOGP48MRJiYqhjcsyIoAAAANp06aNWm+3faUUT50PWzJ01ubi25u3TKVZWsuLJapkimKiSc4p6bIO2sakPAi1VUY4oeDF3RipxNFdPGp/VLr0VejqmmuMpjql3xmQgDHLl2etTd+WYSG7Ft5JUrVXHdwZzyUILwYf6cBFmmmYymM0zonN+Wqv7W2j2myCtX15NalsUstglOkKjmCjx9QOtjqQPG7pbti0rh+/oLRRRNU+2IxbNKNI53wk4NZ08twe5vtivs1TyXE9L0QNFbm3AAAAAAAAAAAAAAAAACv2Tb4Qearn9Z/uFSAFgQAAAAAAAAAAAAAAAACv1v+NKurzBUD05WYFgQAACANE/xWeWrmAo3oNmBo0UXFcZZ+YGjegmoFggAAAAAAV+zlfbzyuc/rv9xqsAsCAAAAAEE6UjizMxXMRV/QzsCapT9iGv5lP9mAHMAAAAAAAAAAAAAAAAAAAAAAAAAACv8An/8A4nZ7n9pb/XqAWAA4b9pA8ZLNV8VsNslqY4ouFE4/5sUHCh/KhAxiz1lLbWAtuytLaiTLMJEyiXiRQcTFd4upGspGqqqq4cRqLuFVFY41I1VFIlIoo8YoogN2ztnbaZfrZyiz9oKc6j05Im+95XLN9LOMG8Hux7mutFGpF7uPxosQOqv9lxtzmTp9GlLlzWsUGaGCuOGFH3HnlOxq4RwakcCsUoeNonCeOH3tSKKH6/uAZPQ1CUlbSipRb23lPM5PI5EwRYyaWMEdmi1apQaiSMMPyYYMMP8AqA7wAAAAAAAAAAAAK+5N/hIZruf2X/R7RgEp3MvlZ+zbiTMrs3KkdNxVHM8JbI8J3NE2+/nWMGtgklr44YRxbn/19YDBdIddaqrJZHbrXPt9McWdQyyiX+FPvYfrtpkqjii1V/vaqyicX/IBVy2tASCztv5DbOiWuKUokEqQljNLH7sCUGpCd9w+HpopycPqqmXeEtDU2zd3RgthpBaXnEeY+2NsIXdm5k2ind0GO3aOMOqTbtCUPVBh2343vkXBw7k1XH18kusTTXFOdPX/AFbXbaePb9ugnS/tOr+koiY5jELEZfepbuup7RsseZXZolblmvOF0+q83avHUEDqW8BDWdKJb1XghTThUhRXR+LARuXc32z/ANLNyDnDHzP+YnKkqovHjmZp/L7hWNUqy2q+pVwsZphMV9RtLWrCBs7lkKvxIIpgmxViT+NC+V4PdFpnP03F7dquy/cc2LaQC5FNUrmdmdPV3mUq+iWiNi3EzpKV05VzqWdUqg38vA32Wxjh328/BNO2QuPjJq6hEvGJinSZTVlsSrZRVVg8o0H86Pb35krlQ3okrWc1jNafryUzigms7kr27T2WxpYuo2WMwwZU20Z72mDGLfMaSrx6twY9eGGKHZJYEXF42Z0sezr/APb1+1J0WBjkE5/5nVn/ANXpj19PS3ZDeu53XHkbmgL71hN7zLYXC9eluPXK6dsWL9o1fdSW3UyPtDTV1Ed7Qwwp74h7Z23uhEznsn631ic8ozj9l+zy2ent63As5d+v5pa2tnUGb6Ws5F6x6fUqB4ld6o6jxls1if8Ab99TWKVpxU3vpLaILpoqfwf/ABjYpnnCYqcqvr++fzy2ezo6UjS008eji6Gf/wCMRs6tmc8b2+rOVl7ATWV3cyP1c0wm89eS6OKetkJnBct1P4HMGGvw5bPe0O3bX4sCymqp3cPcwQltgPrWn5+d6luGdFz9XbHw+Ct9oW91ZFYyq6qtnce4is3ojLRSj+jJMhV81dptnz1pMI3bmFpEsok7W93HZQqJqbPYQQp6u4VkbOj8OsZ2z/8Ad8+z0fJ2UuriKtaqQttl4zR19PrVTO5tFsEatQr18/XUXcMJjHNpa3msbiJaOGJKBjFHDtPqdRfgbKLuWfVRV9XY+zPGnjYnQ/tfPsZfleVrel72W7c43sr2cIzmv7g029ZVFWr5+0VlstWc7yg2SsUUO0R2H8Zi+qMfjqRQknAbKonPtRrjXNUdEf4fn5dEdS8JtTVXEm0qlNQyl5T1RNEHjN6go2esl+4UTj4EcEf5R4mImEpNeimq+e1XkSoyW1M9VePaTdzijFniuOvG4wkU2eyeFaKL40UcDHCLGL42ucBxmgy0k0u04Oc8NErIGBJAAAAAAAAAAAAAAAAFfsm3wg81XP6z/cKkALAgAAAAAAAAAAAAAAAAFfrf8aVdXmCoHpyswLAgAAEAaJ/is8tXMBRvQbMDRoouK4yz8wNG9BNQLBAAAAAAAr9nK+3nlc5/Xf7jVYBYEAAAAAIJ0pHFmZiuYir+hnYE1Sn7ENfzKf7MAOYAAAAAAAAAAAAAAAAAAAAAAAAAAEQZuLC3BzB0PT8ttbceSUxUdMVxK6ilsyqGmlJq112imMexVbou20ccMW78VaH6wGO9b/SlcqmwXgDnnpWA63+lK5VNgvAHPPSsB6w9KRyrbA+L3PPSwB6w9KVysbBeL1PPSwB6w9KVysbBeL1PPSwB6w9KVysbBeL1PPSwB6w9KVysbBeL1PPSwD863mlK5W1g/F5nvpcA63mlK5W1g/F5nvpcA63mlK5W1g/F5nvpcB++sHSk8rqwXi4z30vAesHSk8rqwXi4z30vAdb7Slcr2wXi4Tz0vAdb7Slcr2wXi4Tz0vAdb7Slcr2wXi4Tz0vA/Ot1pSeWHYLxb556ZAOt1pSeWHYLxb556ZAQflToDSOOb75l8ZDmosm0eIXtYQztd5YCcOE3Lv1i0puLIQYVWnvdPYYoJ7OOJaLaJqqbTVVwRSDJs0M0zV2ytos1zYZ5MsGFNz7dY4U/PcsM5edXY/c+o0WPrvUUfqRfgE01IotzuQKY1pYbSZ2+y3XQq2fVxJqey7Y0tDvK283op9K3yq++E9iswaPJ1NV5Qhr6kewUcp8HHZ7yS7qCRg8vpEfGf3Zao/QDhYAAAY3KrT0RT1zZzdtpJ1/XLOmLdi9erzBdx2hLuEUoI44oWyXxooUIYdaLhRcIi5R0wl5Rnmj67V7Ms1kMwKc3rRtUyteOqH931sUbP51GnJYXcfDVglzdZJKHfG04UWrEQ6sZoKKtvT6pn8k7R6C4aXPizGztmI/OYZTIMx9iaoeM2cguQyVxd0P670nmOCm9MJLtNTfm+I+1wQ/lRaxJjG0Ic2+YnKUJUnefInSN1JZdansbrVLVM8kjuZSTb0zWtTKNpYs61FXLRosk5hlyCyqfuRpppwqJ6mp2vGArIm0U1Z7dv+qVrxblpIy2bP8AZj9FjKAuDRN1qKl1w7eTnfknmaO0ZL4IRwf6UEerEjFDHwYkooYYoYuDFDrFzoKs42daol3pnRAAAAAAOu0btF575plzmz2ymZC0NP00reG4XUuV1VZSazh8n/wxnG0xVdo1KzTV1ldpFDqt09WHch4W5r48HvGXO2J7eNLt1v8A7hoP9CwHW40o/LGsF4tU89MivTjrcaUfljWC8WqeemQDrcaUfljWC8WqeemQDrf6UnliWD8WieemQH51utKTyw7BeLfPPTIB1utKTyw7BeLfPPTIB1utKTyw7BeLfPPTID9632lK5XtgvFwnnpeA632lK5XtgvFwnnpeA632lK5XtgvFwnnpeA632lK5XtgvFwnnpeA632lK5XtgvFwnnpeA9YOlJ5XVgvFxnvpeA9YOlJ5XVgvFxnvpeA9YOlJ5XVgvFxnvpeBBuU6idI45vnmUip/M9ZRu7QvYzwniryxM4cQOnnrKpbhoQeuhPeyW99hBsoolYtpBGptNWPBKAJx63mlK5W1g/F5nvpcA63mlK5W1g/F5nvpcA63mlK5W1g/F5nvpcA63mlK5W1g/F5nvpcB++sPSlcrGwXi9Tz0sAesPSlcrGwXi9Tz0sAesPSlcrGwXi9Tz0sAesPSlcrGwXi9Tz0sAesPSlcrGwXi9Tz0sAesPSlcrGwXi9Tz0sAesPSkcq2wPi9zz0sAdb/SlcqmwXgDnnpWA63+lK5VNgvAHPPSsB1v9KVyqbBeAOeelYDrf6UrlU2C8Ac89KwOTl2y7X9o+/tYZjsx14KQqWfVLSEkptBCiKJdyRq0ay13NHMEccDmYvolVI45qp8aGHVTh4IE8AAAEAaJ/is8tXMBRvQbMDRoouK4yz8wNG9BNQLBAAAAAAAr9nK+3nlc5/Xf7jVYBYEAAAAAIJ0pHFmZiuYir+hnYE1Sn7ENfzKf7MAOYAAAAAAAAAAAAAAAAAAAAAAAAAAAAAAAAAAAAAAAAAAAAAAAFfcm/wkM13P7L/o9owCdXTRo4VRcOm8KuKMe0Q4PuwR7mMGtD/NjxwAjbOzZOd5isoFy7IUouilOKmomYMpAsvjuJpzCJCLekcePyYV9nFj/iAp1Zu7EqvHaeQ3PlbRZn1YY7RZmt7+xX7hw2Vg+IqirrpRw/FiTO94SunGUcZw7H/uDKyaiAAABT7NdK6pleeZpW+NZ3fpKQrWejlnrhtRbRSot8u+qOMe9VdyUzGFHg8PuU4vc7o1rHRM3OJzqjZ1Rn8JbXa4/cOjRT65y+MImTye5hb0T+hJU3kTyg06bsK03KfcShTqNPHbWe4rNJNNdttFNmslBruG222nD4WtqakcHkGmqy6tiRTccDTE7M/rpalEiu9mWzdSK8MhVuvZxLrNYMZm4RpFknGlMoZr22XqRzSXOUI9XuoIkffIe2JxRJkqIm5aaJzmnZ56keJi24KYmI037Tz0SinPzllmdOU9HZK1GXtzUkMntY7jpOp5zbWc1c/fTlw8dLON6rtnCLSSTDa9vifKQ6y0S0EMEPatkRLjgZziIj3Z/0lMteNp4kzM++I6fRlMz7Et2coeq/ZnK2cdylb1q01s7m4qrr+9zaZtMGEDaNLuoItrBNXWOt8aOAtYpzu2X/AKlP0W//AKa3ZfqAAAAOnr+4FLWroqcXMrWbJNJRIJWu9mbxbD3U0EoNeKMjVTFMZymxEzOULG6NC1lWWfyT0RTtxJYtLqjnGEwqWoZYv7ijGYziYupu6axfjJKvVEovzZwfFTnpZdnwm3DwnswJAAAAAAAAAAAAAAAAAr9k2+EHmq5/Wf7hUgBYEAAAAAAAAAAAAAAAAAAAAACANE/xWeWrmAo3oNmBo0UXFcZZ+YGjegmoFggAAAAAAV+zlfbzyuc/rv8AcarALAgAAAABBOlI4szMVzEVf0M7AmqU/Yhr+ZT/AGYAcwAAAAAAAAAAAAAAAAAAAAAAAAAAAAAAAAAAAAAAAAAAAAAAAK+5N/hIZruf2X/R7RgFggAFI8zmSy71proz7MjlFp2GppJVjjqlcK0mD6Bsus/+NNpOqtjChC6U+/s1ok0Vou3QqJLbXfGyWThHNu2T0NdvdkpuNOcfeIPmed3LPRkW8bv1+jbaZ4YYbeVXTbx0w7SU/ImUCG2/KT1k4u6hiihOi4a92rGRsxUNDmw3Cmf7u2uyC5BeXRZ7wmyryglc8Wvvwwc2XPwNIdkFyC8uiz3hNlXlA54tffg5sufgaQ7ILkF5dFnvCbKvKBzxa+/BzZc/A0h2QXILy6LPeE2VeUDni19+Dmy5+BpDsguQXl0We8Jsq8oHPFr78HNlz8DSHZBcgvLos94TZV5QOeLX34ObLn4GkOyC5BeXRZ7wmyrygc8Wvvwc2XPwNI6mRZ1NGnSk1nE0pbNxZCWPJ893xOnjKvpOnHMl9SCHbOIoFu2xasEEOtF8WDVPMXW0Z58ePPn0vM4C/dE6HSO27ILkF5dFnvCbKvKD1zxa+/D1zZc/A0h2QXILy6LPeE2VeUDni19+Dmy5+BpDsguQXl0We8Jsq8oHPFr78HNlz8DSN6V558qNTxYMrVXilVeTPHHcQkls8FKnfq/kN5Vt1P8AukTE3q1R/wAVHn2M9NhuH4dMVgcn14cydaSa52amgVaOoCRPk5lT9r5s4RXmdROko9du9nGxjiTboIxaisDCGJSKJTVicampvc0O+cJJuMcTR7KW6WKw8h/eMR96vSam2oAAAAAAAAAAAAAAAAAK/ZNvhB5quf1n+4VIAWBAAAAAAAAAAAAAAAAAAAAAAgDRP8Vnlq5gKN6DZgaNFFxXGWfmBo3oJqBYIAAAAAAFfs5X288rnP67/carALAgAAAABBOlI4szMVzEVf0M7AmqU/Yhr+ZT/ZgBzAAAAAAAAAAAAAAAAAAAAAAAAAAAAAAAAAAAAAAAAAAAAAAAAr7k3+Ehmu5/Zf8AR7RgFggAAAAAAAAAAAAAAAAAAAAAAAAAAAAAAAAAAAAACv2Tb4Qearn9Z/uFSAFgQAAAAAAAAAAAAAAAAAAAAAIA0T/FZ5auYCjeg2YGjRRcVxln5gaN6CagWCAAAAAABX7OV9vPK5z+u/3GqwCwIAAAAAQTpSOLMzFcxFX9DOwJqlP2Ia/mU/2YAcwAAAAAAAAAAAAAAAAAAAAAAAAAAAAAAAAAAAAAAAAAAAAAAAK+5N/hIZruf2X/AEe0YBYIAAAAAAAAAAAAAAAAAAAAAAAAAAAAAAAAAAAAAAr9k2+EHmq5/Wf7hUgBYEAAAAAAAAAAAAAAAAAAAAACANE/xWeWrmAo3oNmBo0UXFcZZ+YGjegmoFggAAAAAAV+zlfbzyuc/rv9xqsAsCAAAAAEE6UjizMxXMRV/QzsCapT9iGv5lP9mAHMAAAAAAAAAAAAAAAAAAAAAAAAAAAAAAAAAAAAAAAAAAAAAAACvuTf4SGa7n9l/wBHtGAWCAAAAAAAAAAAAAAAAAAAAAAAAAAAAAAAAAAAAAAK/ZNvhB5quf1n+4VIAWBAAAAAAAAAAAAAAAAAAAAAAgDRP8Vnlq5gKN6DZgaNFFxXGWfmBo3oJqBYIAAAAAAFfs5X288rnP67/carALAgAAAABBOlI4szMVzEVf0M7AmqU/Yhr+ZT/ZgBzAAAAAAAAAAAAAAAAAAAAAAAAAAAAAAAAAAAAAAAAAAAAAAAAr7k3+Ehmu5/Zf8AR7RgFggAAAAAAAAAAAAAAAAAAAAAAAAAAAAAAAAAAAAACv2Tb4Qearn9Z/uFSAFgQAAAAAAAAAAAAAAAAAAAAAIA0T/FZ5auYCjeg2YGjRRcVxln5gaN6CagWCAAAAAABX7OV9vPK5z+u/3GqwCwIAAAAAQTpSOLMzFcxFX9DOwJqlP2Ia/mU/2YAcwAAAAAAAABhN3sxuX/AC/yxKb31vlR1ENV8O0OqxqdrK01P8UTmOHdAjPsrui475hYHwySLykB2V3Rcd8wsD4ZJF5SA7K7ouO+YWB8Mki8pAdld0XHfMLA+GSReUgOyu6LjvmFgfDJIvKQHZXdFx3zCwPhkkXlIDsrui475hYHwySLykB2V3Rcd8wsD4ZJF5SA7K7ouO+YWB8Mki8pAdld0XHfMLA+GSReUgOyu6LjvmFgfDJIvKQOfTOkz0b9czROR0Zn/shOJir7yxld15Ouup+TBA51gJsbuIHUELprHgokph7mP8gG+AAAAAAAAAAAAAAAAAAAAABX3Jv8JDNdz+y/6PaMAsEAAAAAAAAAAAAAAAAAAAAAAAAAAAAAAAAAAAAAAV+ybfCDzVc/rP8AcKkALAgAAAAAAAAAAAAAAAAAAAAAQBon+Kzy1cwFG9BswNGii4rjLPzA0b0E1AsEAAAAAACv2cr7eeVzn9d/uNVgFgQAAAAAgnSkcWZmK5iKv6GdgTVKfsQ1/Mp/swA5gAAAAAAAFP8AO7m6uY8uWtk4yt1P1AqNCWIPrhXB3im49ajRx/FmrWBXWSVmbjd1sNprJt0e3RwR7RKGO/slmquVefVCkvN5ot1HpQpQuXCzFu5orVkpo9CZ1I8x/hOtak/hCdPlPluHznWXj/J1tWH4sMJ1PAWrQYHoczx9wx2PZ2WyqAAAAAAAAAAABwahpSnqrlS0pq6mWMzZre/MnzeBwmr/ADIyPOU7ExhNGye5mSVfrhZNcV0JE0x2s7sri4/gGcIfH6nwx8GUPPkRI6rdSLgrJ/fYdOvXBaMdETgtktisvCuMHTljF/rD3voHMfaKQXvtVN8XkhqaWQPWCqyGzXT+5GiqlFjrJKpx7qcacXCTUgihi93A5g6czYAAAAAAAAAAAAAAAAAAAAFfcm/wkM13P7L/AKPaMAsEAAAAAAAAAAAAAAAAAAAAAAAAAAAAAAAAAAAAAAV+ybfCDzVc/rP9wqQAsCAAAAAAAAAAAAAAAAAAAAABAGif4rPLVzAUb0GzA0aKLiuMs/MDRvQTUCwQAAAAAAK/Zyvt55XOf13+41WAWBAAAAACCdKRxZmYrmIq/oZ2BNUp+xDX8yn+zADmAAAAAAAAeYGVKbevS280vxNsMVpldGqZxV71XGLHHcgdO496I+7+BZQNWuH+DQgOx8GsNFNrpci4QVfv+mSebKoGJ3evPbWyEjQqi5c4VZJPnybCVs2cqdP3z53F3CLVq0hUXcK/G1U04otWCOLuYSFpcTRhKdvQm0aOrS1RTHvnL3zshu2su/b69EhXqm3s4WWSbvlGr1F4xWYO2LiDu0XDRzAmu3V/waicMWrqRfHGFxUYqnOOh8ro4lUxLJyahsHdX3to1u6tZTD1wvKjQSbxvcGNIzVw1bbX3nfD1FtE2Rii+SopDFq8Ih8toiriR+XmE3m6eLxvj8On2s4JiEAAOC6qBq0qFnTuLN9tnqKiqKyEvXUQ7Vqa+1cwQbJGLh8GFSKGJT4utqRkXo2Jme1wa3ubRFsupmFcTjefVmeN5PK/qdRTaO3HARR4EEWprfKi4ImToc6nqha1ZKuq0pZvkUduol9XS9dmpwY9T3paCGLV+TFq6sUPCh4J9iRziShgADJNFnNfWtcW+lhmcGOMultVy6rpWljjjjg2gnDTdcIw4fyRPWL1z+W7jON8MsLEXXpda4LV/wBnQs5Mb12flN2JbY+a3NkSNZzhio9llLdVYOqDlsl7sa8KG7tNlD7vC3NX65rbYmYAAAAAAAAAAAAAAAAAAABX3Jv8JDNdz+y/6PaMAsEAAAAAAAAAAAAAAAAAAAAAAAAAAAAAAAAAAAAAAV+ybfCDzVc/rP8AcKkALAgAAAAAAAAAAAAAAAAAAAAAQBon+Kzy1cwFG9BswNGii4rjLPzA0b0E1AsEAAAAAACv2cr7eeVzn9d/uNVgFgQAAAAAgnSkcWZmK5iKv6GdgTVKfsQ1/Mp/swA5gAAAAAAAHlhkO+B1bv8AzPaf+pidxs38Kw3qcYuP8QxCXy3VSB80TKoaNvdazMPDSE6qWm6NXnDGoGVOylZ++Y9UEIEUZmk1bay7jZxwbOKFFNRSFN3HFq6sERVY/OJo0mS1t1M11abCxKLL8qyO+Uwpy5NV5RKnVtV1y1FK1lq1BunEyqtCCVRtmkzeyXZb9VQRe6iUCayKinaEltnCnDuFXjZ5bETxZ4vnqW2AonR1TT9PH03rj8+j3ofgyaVdca103xu9l8nsxVk+Xad9bmWzuUKO15QpHOZirKmsPyZigy3rDBBD25HuSu5Bxo2x1f0SeceLtpnL6/w2s8dZcpw3zRYXVllhnKUxdVxQrmZVAjTHb3CcMpmOL5ZVxqcPVW2G1iii7rU1ixnA5abo7qJzhM4Hp8R1Fo8itHuaLsdS1a5asVWsNu6ofVyzmlIcBxOVYGWx6pQxo9tX/BQrcLtEGr70RsNZ6csJnT60mblMTp8tP0JE0ediJtZa4VNzXrVzWQKT3L/IfXm8fS9dON7UMLiPa78VW99eQwx/fO2Qw8HuSTZsFxJz/wCVFuNwmYjPxEa2toCX1BmVn81t7ZaouuKzzPTdy9r/AAkLrejam4IFN9tuqersNmp2xLqftNpEspttn99IsRndtkbeMl51c19OziednxYnVmT6rpBk+oWlbfZeZ40nE3svV/rt6l0vHA+jmrrGX6m+NRHab5i1NWDads1UNWHuRyCY0PR1PPOM8ty/52b3Uyf0NQVzZ9LKfywRLULLLo0FO0ZbK6BUmDXGHBJdGYvG7VFJTXi943xEnD/fjJM4CKZy4mzOlg5wmr/H6tJ7vOyPZDFphk1nNxaVrZ5crL1Npw8llnKz9aSM0phftc2VqScOWkTXge681NSJKJPtmqv2vuyNyDlmbPzhVo4zjpdhmLolGV3EWqC/Fop5Mq0mdxLddbms4qZdKIMpVvlgi4Z9UPe28W+t/bVpFFCoti4gU2anxGO+1tjb9V7wH2ZynZ+037ctnnLP0vRo3NpYBX6pbbaSC6t5L0ynR2Xrp+jpulTtEYVOhM2Gu7mbHazjtLJztYd7K6m3+MlFFrwarhrqaxyPhnsurqfBP+HQlLI82vVRM2eWFtRmBsZa+4zzDF7UdEXAyxVA3qicqJw46zxV25rdWKfauG7uvkXLtP7m2NTbSs91uNKVyybBeLTPPTIB1uNKVyybBeLTPPTIB1uNKVyybBeLTPPTIB1uNKVyybBeLTPPTIB1uNKVyybBeLTPPTIB1uNKVyybBeLTPPTIB1uNKVyybBeLTPPTIB1uNKVyybBeLTPPTIB1uNKVyybBeLTPPTIB1uNKVyybBeLTPPTIB1uNKVyybBeLTPPTIB1uNKVyybBeLTPPTIB1uNKVyybBeLTPPTIB1uNKVyybBeLTPPTIB1uNKVyybBeLTPPTIB1uNKVyybBeLTPPTIB1uNKVyybBeLTPPTICDsqlA6Rx1fjMv6381Fk2jxG9rHCdLvcvk4XTdO/WLSm4shBhVae9k9higns44lotomqptMIVcEUgnHrcaUrlk2C8WmeemQDrcaUrlk2C8WmeemQDrcaUrlk2C8WmeemQDrcaUrlk2C8WmeemQDrcaUrlk2C8WmeemQDrcaUrlk2C8WmeemQDrcaUrlk2C8WmeemQDrcaUrlk2C8WmeemQDrcaUrlk2C8WmeemQDrcaUrlk2C8WmeemQDrcaUrlk2C8WmeemQDrcaUrlk2C8WmeemQDrcaUrlk2C8WmeemQDrcaUrlk2C8WmeemQDrcaUrlk2C8WmeemQDrcaUrlk2C8WmeemQDrcaUrlk2C8WmeemQDrcaUrlk2C8WmeemQDrcaUrlk2C8WmeemQDrcaUrlk2C8WmeemQDrcaUrlk2C8WmeemQDrcaUrlk2C8WmeemQDrcaUrlk2C8WmeemQDrcaUrlk2C8WmeemQDrcaUrlk2C8WmeemQDrcaUrlk2C8WmeemQDrcaUrlk2C8WmeemQDrcaUrlk2C8WmeemQDrcaUrlk2C8WmeemQDrcaUrlk2C8WmeemQDrcaUrlk2C8WmeemQDrcaUrlk2C8WmeemQDrcaUrlk2C8WmeemQHd5UMv9y7E4XDq28F0JJVlVXJr6GpZy9pukVpGwbRwSaVylJBBqs+eqbmCMrRiiiicRayike5q4ATMAAAAAAAAAAAAAAAAAAAAABAGif4rPLVzAUb0GzA0aKLiuMs/MDRvQTUCwQAAAAAAK/Zyvt55XOf13+41WAWBAAAAACCdKRxZmYrmIq/oZ2BNUp+xDX8yn+zADmAAAAAAAAeYuXKS4WlRqrLLNsMUZla6sJhI9hF9dSUxrxuZS5/JUl67X8XabZP4p2Hg1jYuFrhyq/4KMDj80lGztYAAAAAAAcCnqUp6lN+et6mmMs34+UfPd4t4E98rq92tHqd2rF8aLuojHsySnPMiKAAMMc2BsS4uglfJzYqkVa4Tx3Uqywplr1VTx2ex3d9am03dTg913PBIfIdBNXGy29qbFyuEUzTns7GZkxCAMt0VMjhqd1dnMz7vU2saxSktLL444fV0pkyGLXfOH4sUwUmuEHxYk4IFIe7OJcJMby+6S7HY8FyHARStzExZuXCLp0yRiVRw7Urudx+SUi5coAAAAAAAAAAAAAAAAAAAK+5N/hIZruf2X/R7RgFggAAAAAAAAAAAAAAAAAAAAAAAAAAAAAAAAAAAAAAAAAAAAAAAAAAAAAAAAAAAAAgDRP8AFZ5auYCjeg2YGjRRcVxln5gaN6CagWCAAAAAABX7OV9vPK5z+u/3GqwCwIAAAAAQTpSOLMzFcxFX9DOwJqlP2Ia/mU/2YAcwAAAAAAACsedbJjVV0Kqb5mctz2Vyu6cmlXUxVvPMMYJbVkshUjWglz2OHWiRxTVjjibuYYYokYlFd1NVNWKEsrTdq7fVn1efPnbX4/AU42nJVyo8z1I2nxwk+aOm55ZyZp47jtvX8v3pLcf+LzaDWl7mD82trfKhhOq4LhLa8dT05etznG2DH4Kfqut7ILkF5dFnvCbKvKCZzxa+/CBzZc/A0h2QXILy6LPeE2VeUDni19+Dmy5+BpDsguQXl0We8Jsq8oHPFr78HNlz8DSHZBcgvLos94TZV5QOeLX34ObLn4GkOyC5BeXRZ7wmyrygc8Wvvwc2XPwNIdkFyC8uiz3hNlXlA54tffg5sufgaQ7ILkF5dFnvCbKvKBzxa+/BzZc/A0h2QXILy6LPeE2VeUDni19+Dmy5+BpDsguQXl0We8Jsq8oHPFr78HNlz8DSHZBcgvLos94TZV5QOeLX34ObLn4GkOyC5BeXRZ7wmyrygc8Wvvwc2XPwNI1pZ/skL6He8kzcW8njrd7TLKeq1rM3an5DdnEopH/NhPnPNsn+eCq13OnbVoMmaUJZHMVncX9b8mo6o7bWse/+MNa1FL45XPpw3/taUsVu3tNpDubr51CnEnDj2lOOLtsOo3nhlsywPnz7G0WXgnFMfva/dvLeUTaigpTbK2lMMpNIZBK0JbJZOxR1EGbVKDCBJGGH5MMO5h/yHO2+u/AAAAAAAAAAAAAAAAAAAABX3Jv8JDNdz+y/6PaMAsEAAAAAAAAAAAAAAAAAAAAAAAAAAAAAAAAAAAAAAAAAAAAAAAAAAAAAAAAAAAAAEAaJ/is8tXMBRvQbMDRoouK4yz8wNG9BNQLBAAAAAAAr9nK+3nlc5/Xf7jVYBYEAAAAAIJ0pHFmZiuYir+hnYE1Sn7ENfzKf7MAOYAAAAAAAAAAAAAAAAr/n1+vZnn8p7/44FgAAAAAAAAAAAAAAAAAAAAAAAAAAAAAAFfcm/wAJDNdz+y/6PaMAsEAAAAAAAAAAAAAAAAAAAAAAAAAAAAAAAAAAAAAAAAAAAAAAAAAAAAAAAAAAAAAEAaJ/is8tXMBRvQbMDRoouK4yz8wNG9BNQLBAAAAAAAr9nK+3nlc5/Xf7jVYBYEAAAAAIJ0pHFmZiuYir+hnYE1Sn7ENfzKf7MAOYAAAAAAAAAAAAAAAAr/n1+vZnn8p7/wCOBYAAAAAAAAAAAAAAAAAAAAAAAAAAAAAABX3Jv8JDNdz+y/6PaMAsEAAAAAAAAAAAAAAAAAAAAAAAAAAAAAAAAAAAAAAAAAAAAAAAAAAAAAAAAAAAAAEAaJ/is8tXMBRvQbMDRoouK4yz8wNG9BNQLBAAAAAAAr9nK+3nlc5/Xf7jVYBYEAAAAAIJ0pHFmZiuYir+hnYE1Sn7ENfzKf7MAOYAAAAAAAAAAAAAAAApLmIzATiq7syWyN0ZMyk1R0DmRpd0y2OOOzmdPPYHUcumcO0i+Um6aq7n35itq8HVAsFlDvlUWZK1cV8XknQZU7UM9eLW+xRxx2j6n4VNRm/V3f7ahgxcp4Q/eV0d3hawEsAAAAAAAAAAAAAAAAAAAAAAAAAAAAAV9yb/AAkM13P7L/o9owCwQAAAAAAAAAAAAAAAAAAAAAAAAAAAAAAAAAAAAAAAAAAAAAAAAAAAAAAAAAAAAAQBon+Kzy1cwFG9BswNGii4rjLPzA0b0E1AsEAAAAAACv2cr7eeVzn9d/uNVgFgQAAAAAgnSkcWZmK5iKv6GdgTVKfsQ1/Mp/swA5gAAAAAAAAAAAAAAGGXlvfaHL5RatwL23GldNSZFZNvv6auNntV1d2BJBL46y6kXBgSTwiUji9yGHHEDzz0mVu680jc1tvW2XTJ3ftRtI6iwa1dUCUplNORzikHH8ebIoTuZy95C64EGLZWJHtW0W/CgXCtbnjy/OKqkFhqopio7TVG82bGmKPuFTOMmwfakGGEDWXuMNZi9ihhh94aOFFIYYO51QJ9AAAAAAAAAAAAAAAAAAAAAAAAAAAAAr7k3+Ehmu5/Zf8AR7RgFggAAAAAAAAAAAAAAAAAAAAAAAAAAAAAAAAAAAAAAAAAAAAAAAAAAAAAAAAAAAAAgDRP8Vnlq5gKN6DZgaNFFxXGWfmBo3oJqBYIAAAAAAFfs5X288rnP67/AHGqwCwIAAAAAQTpSOLMzFcxFX9DOwJqlP2Ia/mU/wBmAHMAAAAAAAAAAAADhuXrZuolC5fQpbaLZow/hItzW4P83DEDiVZVlN0LScyrarZugxlsnYqvZm9Xx3IG6CUGKkccX96GHDHEDyV0kWlOlmQKyFN6QW8tuUKqvrdVFfGwduKgx3WNu5BubsLpVLD3YHaiUaEbpWHVWUWX3qnFAi3xiA8PL16dHS533rRatqiz9XMk6y+OslLaIqhxI2KWHyYW7CNKD3PxsIscfugWw0bnqlS8zaetcqulaTQvLZWqFU5dN5pUbHfM2keGOOGq8wWgw13cKce4pFraziHcwjRUwihwhjD6Csolxapou4k9ydXDrVxU/rekbSf20rV8527qo6WcY6kGLhX6yzpmthvdVX66yajRaLti0YFigAAAAAAAAAAAAAAAAAAAAAAAAAAAV9yb/CQzXc/sv+j2jALBAAAAAAAAAAAAAAAAAAAAAAAAAAAAAAAAAAAAAAAAAAAAAAAAAAAAAAAAAAAAABAGif4rPLVzAUb0GzA0aKLiuMs/MDRvQTUCwQAAAAAAK/Zyvt55XOf13+41WAWBAAAAACMc4VoaizFZSbqZfaSmjJpM67t5O6eljt7r7Buu9YrtoI1dThasMcfC1fdAwdrX2lHaNkmuGTywfaktz3cys89DQN3rj6UrkbWC8ZaeehoDrj6UrkbWC8ZaeehoDrj6UrkbWC8ZaeehoDrj6UrkbWC8ZaeehoDrj6UrkbWC8ZaeehoDrj6UrkbWC8ZaeehoDrj6UrkbWC8ZaeehoDrj6UrkbWC8ZaeehoDrj6UrkbWC8ZaeehoDrj6UrkbWC8ZaeehoDrj6UrkbWC8ZaeehoEYZpJRmguZbNaZ5rsjuV/1uSDdfQ1DPs0s5l/UKPdw+rG8wwpFNVgru7nb01E4vxgKgTy+uk1uBlyu1RlY0LKKhy2OaDdN3VyZ5W7+YPkmquGo4RZO3kllS84a7LHGDbqtou16ym/V/chjDzy9WLzGrHGlclsqn+GOMtY2plCdPf8XxXdRx/wD42KwHk+AA+tnRlzSrZlbDR/VDVmO5ULiwFRsnG73akmwaSeOD+ZrIS3/ugekYAAAAAAAAAAAAAAAAAAAAAAAAAAAK+5N/hIZruf2X/R7RgFggAAAAAAAAAAAAAAAAAAAAAAAAAAAAAAAAAAAAAAAAAAAAAAAAAAAAAAAAAAAAAgDRP8Vnlq5gKN6DZgaNFFxXGWfmBo3oJqBYIAAAAAAFfs5X288rnP67/carALAgAAAAAAAAAAAAAAAAAAAAxC49jrQXkdyZ7de2skqRanJnhMpBFO5XA43g6wg1dqlr4Y6kX1//AK3AOXde2VKXqtlUtna9aYO5FVUieSedNPrbRo6QjRVg3f78EeIHjhpcdFbcrSlWMlNvpZMGKWbXL1KOp75jNtRv1x6a3fqaYN1o8fdwWx7bDF72i7UdtVdX3FQPnuvVlxvvlwrda2t/7Q1JRs9Q9yKWVLJlmiuP9+HCOHhw4/cih3Ycf5QLk6KTQI5q8/Ney+4N4KGmduLIyz+EatuFU6HU/Bwwgw2ikLHfG5to8YMMe3bmKKPdKRfWhjD6Vcl1IyG6Vzsc09I0z1GtxIaJQoOwMrxb4p7tPQRoKu5pDBHwoEHirVhAhDj3TaWt1v7IAtMAAAAAAAAAAAAAAAAAAAAAAAAAAACvuTf4SGa7n9l/0e0YBYIAAAAAAAAAAAAAAAAAAAAAAAAAAAAAAAAAAAAAAAAAAAAAAAAAAAAAAAAAAAAAIA0T/FZ5auYCjeg2YGjRRcVxln5gaN6CagWCAAAAAABX7OV9vPK5z+u/3GqwCwIAAAAAAAAAAAAAAAAAAAAAACM8wGVu0+ZdnLVq5l0wZTqQrYuaYq6m5wtLptJHG5h2xq7RxhUghi+tGnjrIrQ4aqqakPBArDnwvBnF0aeU+rcxzzPPS9TySl2f1AxuFZDqpOZivj70htpPNZWhrfHjU3r2tNONTGHGGDEDMbFZc6fzsW1o7MLmRzJ1Hdmm5yyazeS0KvJ0JBTaUf18MHUpQxiVcqpx7sMbd+4cppqQe9wxwAW1A3AAAAAAAAAAAAAAAAAAAAAAAAAAAAV9yb/CQzXc/sv+j2jALBAAAAAAAAAAAAAAAAAAAAAAAAAAAAAAAAAAAAAAAAAAAAAAAAAAAAAAAAAAAAABAGif4rPLVzAUb0GzA0aKLiuMs/MDRvQTUCwQAAAAAAK/Zyvt55XOf13+41WAWBAAAAAAAAAAAAAAAAAAAAAAAAKLaXu0VwLtWOvZW9cSWJvQdrstNZvaRw3zBHjNKmmEjmLZV7ssMdaHeLHXQSii1daKbOfwUMQE55bbQXBsRea5FIyiUf8AgxqaYJ1fSS+DmD+C5s9jj6sy/ZY8LZKOYMJjCp7uspM3cPB1IMAJ2AAAAAAAAAAAAAAAAAAAAAAAAAAAAAr7k3+Ehmu5/Zf9HtGAWCAAAAAAAAAAAAAAAAAAAAAAAAAAAAAAAAAAAAAAAAAAAAAAAAAAAAAAAAAAAAACANE/xWeWrmAo3oNmBo0UXFcZZ+YGjegmoFggAAAAAAVf0iFy7e2hrvLdcu61eySlaak9/FVJpUFRzVFmxZQRUbVCMO1XWjhTS1lY4E8N2LulIcPugZV2UjRmd8VsR4XZN5SA7KRozO+K2I8Lsm8pAdlI0ZnfFbEeF2TeUgOykaMzvitiPC7JvKQHZSNGZ3xWxHhdk3lIDspGjM74rYjwuybykB2UjRmd8VsR4XZN5SA7KRozO+K2I8Lsm8pAdlI0ZnfFbEeF2TeUgOykaMzvitiPC7JvKQHZSNGZ3xWxHhdk3lIDspGjM74rYjwuybykB2UjRmd8VsR4XZN5SA7KRozO+K2I8Lsm8pAdlI0ZnfFbEeF2TeUgOykaMzvitiPC7JvKQHZSNGZ3xWxHhdk3lIDspGjM74rYjwuybykB2UjRmd8VsR4XZN5SA7KRozO+K2I8Lsm8pAdlI0ZnfFbEeF2TeUgQppHdIlo9690e9+Ld0NnvsxOJ7PbMVOxkslldzpS4dv3a0pdwJIIpQOdZVWOPgwww8KKIC60r+xiH/F0wOWAAAAAAAAAAAAAAAAAAAAAAAAAAAABX3Jv8JDNdz+y/6PaMAsEAAAAAAAAAAAAAAAAAAAAAAAAAAAAAAAAAAAAAAAAAAAAAAAAAAAAAAAAAAAAAEAaJ/is8tXMBRvQbMDRoouK4yz8wNG9BNQLBAAAAAAA2XbNq6h3HLbBTD+THADZ6kyj+5SP9HwAdSZR/cpH+j4AOpMo/uUj/AEfAB1JlH9ykf6PgA6kyj+5SP9HwAdSZR/cpH+j4AOpMo/uUj/R8AHUmUf3KR/o+ADqTKP7lI/0fAB1JlH9ykf6PgA6kyj+5SP8AR8AHUmUf3KR/o+ADqTKP7lI/0fAB1JlH9ykf6PgA6kyj+5SP9HwAdSZR/cpH+j4AOpMo/uUj/R8AHUmUf3KR/o+ADqTKP7lI/wBHwAdSZR/cpH+j4AOpMo/uUj/R8AHUmUf3KR/o+AHMAAAAAAAAAAAAAAAAAAAAAAAAAAAAAAV9yb/CQzXc/sv+j2jALBAAAAAAAAAAAAAAAAAAAAAAAAAAAAAAAAAAAAAAAAAAAAAAAAAAAAAAAAAAAAABAGif4rPLVzAUb0GzA+Xa3PqiHTE2Ht/I7H2pzgYyql6LkDCS0zLPWBT6+8mLVsmigltVmEaimqnBDDrRxRRY4YcLHHEDle2jNOty5MPBlTHmwB7aM063Lkw8GVMebAHtozTrcuTDwZUx5sAe2jNOty5MPBlTHmwB7aM063Lkw8GVMebAHtozTrcuTDwZUx5sAe2jNOty5MPBlTHmwB7aM063Lkw8GVMebAHtozTrcuTDwZUx5sAe2jNOty5MPBlTHmwB7aM063Lkw8GVMebAHtozTrcuTDwZUx5sAe2jNOty5MPBlTHmwB7aM063Lkw8GVMebAHtozTrcuTDwZUx5sAe2jNOty5MPBlTHmwB7aM063Lkw8GVMebAHtozTrcuTDwZUx5sAe2jNOty5MPBlTHmwB7aM063Lkw8GVMebAHtozTrcuTDwZUx5sAe2jNOty5MPBlTHmwB7aM063Lkw8GVMebAHtozTrcuTDwZUx5sAe2jNOty5MPBlTHmwB7aM063Lkw8GVMebAHtozTrcuTDwZUx5sAe2jNOty5MPBlTHmwB7aM063Lkw8GVMebAHtozTrcuTDwZUx5sAe2jNOty5MPBlTHmwB7aM063Lkw8GVMebAHtozTrcuTDwZUx5sAe2jNOty5MPBlTHmwB7aM063Lkw8GVMebAHtozTrcuTDwZUx5sAe2jNOty5MPBlTHmwB7aM063Lkw8GVMebAHtozTrcuTDwZUx5sAe2jNOty5MPBlTHmwB7aM063Lkw8GVMebAHtozTrcuTDwZUx5sAe2jNOty5MPBlTHmwB7aM063Lkw8GVMebAHtozTrcuTDwZUx5sAe2jNOty5MPBlTHmwB7aM063Lkw8GVMebAHtozTrcuTDwZUx5sAe2jNOty5MPBlTHmwB7aM063Lkw8GVMebAHtozTrcuTDwZUx5sAe2jNOty5MPBlTHmwB7aM063Lkw8GVMebAHtozTrcuTDwZUx5sAe2jNOty5MPBlTHmwDpaC9UYaZSh6tqWo6WzjYtXteVIjOarcYW/p6PF69hl7KWwq8OX44JbjRg0S1U9SHtOtua8UcUQd17aM063Lkw8GVMebAHtozTrcuTDwZUx5sAe2jNOty5MPBlTHmwB7aM063Lkw8GVMebAHtozTrcuTDwZUx5sAe2jNOty5MPBlTHmwB7aM063Lkw8GVMebAHtozTrcuTDwZUx5sAe2jNOty5MPBlTHmwB7aM063Lkw8GVMebAHtozTrcuTDwZUx5sAe2jNOty5MPBlTHmwB7aM063Lkw8GVMebAHtozTrcuTDwZUx5sAe2jNOty5MPBlTHmwB7aM063Lkw8GVMebAHtozTrcuTDwZUx5sAe2jNOty5MPBlTHmwB7aM063Lkw8GVMebAHtozTrcuTDwZUx5sAe2jNOty5MPBlTHmwB7aM063Lkw8GVMebAHtozTrcuTDwZUx5sAe2jNOty5MPBlTHmwB7aM063Lkw8GVMebAHtozTrcuTDwZUx5sAe2jNOty5MPBlTHmwB7aM063Lkw8GVMebAHtozTrcuTDwZUx5sAe2jNOty5MPBlTHmwB7aM063Lkw8GVMebAHtozTrcuTDwZUx5sAe2jNOty5MPBlTHmwB7aM063Lkw8GVMebAHtozTrcuTDwZUx5sAe2jNOty5MPBlTHmwB7aM063Lkw8GVMebAHtozTrcuTDwZUx5sAe2jNOty5MPBlTHmwB7aM063Lkw8GVMebAHtozTrcuTDwZUx5sAe2jNOty5MPBlTHmwB7aM063Lkw8GVMebAHtozTrcuTDwZUx5sAe2jNOty5MPBlTHmwB7aM063Lkw8GVMebAHtozTrcuTDwZUx5sAe2jNOty5MPBlTHmwB7aM063Lkw8GVMebAHtozTrcuTDwZUx5sAe2jNOty5MPBlTHmwB7aM063Lkw8GVMebAHtozTrcuTDwZUx5sA+nfRWQQ9jAy3+5//AWj+hWgH//Z;" vertex="1" parent="1">
          <mxGeometry x="530" y="170" width="882" height="1051" as="geometry" />
        </mxCell>
      </root>
    </mxGraphModel>
  </diagram>
</mxfile>
